<svg width="344" height="344" viewBox="0 0 344 344" fill="none" xmlns="http://www.w3.org/2000/svg">
<g opacity="0.5">
<g filter="url(#filter0_f_814_1484)">
<circle cx="90" cy="90" r="90" transform="matrix(0 -1 -1 0 262 262)" fill="url(#paint0_radial_814_1484)" fill-opacity="0.4"/>
</g>
</g>
<path d="M198.501 268.602L191.791 270.817C193.341 270.305 194.56 268.781 195.074 266.367L201.784 264.152C201.265 266.565 200.052 268.085 198.501 268.602Z" fill="url(#paint1_linear_814_1484)"/>
<path d="M166.413 77.8872L173.122 75.6723C174.69 75.1539 176.606 75.6736 178.484 77.3515L171.774 79.5664C169.896 77.8885 167.98 77.3689 166.413 77.8872Z" fill="#B3C9F3"/>
<path d="M222.906 135.677L229.616 133.462L201.785 264.147L195.07 266.361L222.906 135.677Z" fill="url(#paint2_linear_814_1484)"/>
<path d="M171.775 79.561L178.484 77.3513L224.73 118.612L218.02 120.827L171.775 79.561Z" fill="#B3C9F3"/>
<path d="M222.907 135.677C223.949 130.808 221.761 124.163 218.021 120.827L171.777 79.5613C168.041 76.2317 164.172 77.4676 163.131 82.3369L162.011 87.602L221.788 140.943L222.907 135.677Z" fill="url(#paint3_linear_814_1484)"/>
<path d="M135.295 213.02C134.255 217.879 136.441 224.535 140.176 227.864L186.421 269.13C190.16 272.466 194.032 271.22 195.071 266.361L197.11 256.781L137.339 203.442L135.295 213.02Z" fill="url(#paint4_linear_814_1484)"/>
<path d="M162.009 87.6072L137.337 203.442L197.114 256.782L221.787 140.943L162.009 87.6072Z" fill="#203C73"/>
<path d="M218.02 120.827L224.73 118.613C228.47 121.948 230.658 128.593 229.616 133.463L222.906 135.678C223.947 130.814 221.76 124.163 218.02 120.827Z" fill="#B3C9F3"/>
<path d="M164.448 232.856C167.058 235.169 168.593 239.796 167.88 243.183C167.167 246.57 164.474 247.444 161.863 245.131C159.253 242.817 157.718 238.19 158.431 234.803C159.146 231.411 161.843 230.543 164.448 232.856Z" fill="#EBEEF0"/>
<path d="M139.52 166.657L141.233 166.093C142.029 165.831 142.997 166.093 143.945 166.942L142.231 167.506C141.283 166.657 140.315 166.395 139.52 166.657Z" fill="#E3F1FC"/>
<path d="M175.857 223.721L177.572 223.152L176.347 228.889L174.634 229.453L175.857 223.721Z" fill="#E3F1FC"/>
<path d="M180.952 224.596L179.238 225.16C180.022 224.901 180.637 224.129 180.899 222.909L182.612 222.346C182.355 223.566 181.736 224.337 180.952 224.596Z" fill="#E3F1FC"/>
<path d="M183.696 209.806L185.41 209.243L182.613 222.346L180.899 222.91L183.696 209.806Z" fill="#E3F1FC"/>
<path d="M142.237 167.501L143.95 166.938L182.942 201.731L181.228 202.294L142.237 167.501Z" fill="#E3F1FC"/>
<path d="M181.23 202.294C183.117 203.98 184.227 207.346 183.698 209.806L180.9 222.915C180.376 225.376 178.415 226.002 176.527 224.317L175.863 223.722L174.639 229.459L172.427 220.656L137.542 189.525C135.654 187.84 134.545 184.473 135.073 182.013L137.872 168.904C138.395 166.443 140.356 165.817 142.244 167.502L181.23 202.294Z" fill="url(#paint5_linear_814_1484)"/>
<path d="M181.228 202.294L182.942 201.73C184.83 203.416 185.939 206.782 185.415 209.243L183.702 209.807C184.22 207.345 183.116 203.979 181.228 202.294Z" fill="#E3F1FC"/>
<path d="M162.836 113.122L164.55 112.558C165.345 112.296 166.313 112.558 167.266 113.408L165.553 113.971C164.604 113.128 163.631 112.859 162.836 113.122Z" fill="#E3F1FC"/>
<path d="M191.042 151.724L192.76 151.162L191.532 156.892L189.817 157.461L191.042 151.724Z" fill="#E3F1FC"/>
<path d="M196.135 152.605L194.422 153.168C195.206 152.909 195.82 152.137 196.083 150.913L197.797 150.349C197.539 151.575 196.919 152.346 196.135 152.605Z" fill="#E3F1FC"/>
<path d="M196.87 147.232L198.585 146.663L197.798 150.349L196.084 150.913L196.87 147.232Z" fill="#E3F1FC"/>
<path d="M165.551 113.977L167.271 113.409L196.117 139.151L194.403 139.715L165.551 113.977Z" fill="#E3F1FC"/>
<path d="M194.402 139.714C196.295 141.401 197.399 144.766 196.87 147.226L196.083 150.912C195.558 153.379 193.603 154.006 191.71 152.319L191.045 151.725L189.821 157.462L187.609 148.658L162.864 126.577C160.971 124.891 159.867 121.526 160.392 119.059L161.179 115.373C161.704 112.907 163.664 112.281 165.556 113.973L194.402 139.714Z" fill="url(#paint6_linear_814_1484)"/>
<path d="M194.403 139.715L196.117 139.151C198.01 140.837 199.114 144.203 198.585 146.663L196.871 147.227C197.395 144.765 196.295 141.406 194.403 139.715Z" fill="#E3F1FC"/>
<path d="M136.106 147.846L137.826 147.278L133.16 149.947L131.446 150.511L136.106 147.846Z" fill="#80D3F8"/>
<path d="M133.992 121.313L135.706 120.749C136.501 120.487 137.469 120.749 138.417 121.598L136.704 122.162C135.756 121.313 134.788 121.051 133.992 121.313Z" fill="#2F65CD"/>
<path d="M168.664 173.225L166.95 173.789C167.734 173.529 168.348 172.758 168.612 171.533L170.325 170.969C170.062 172.194 169.448 172.966 168.664 173.225Z" fill="#2F65CD"/>
<path d="M171.409 158.434L173.123 157.871L170.327 170.969L168.612 171.538L171.409 158.434Z" fill="#2F65CD"/>
<path d="M136.709 122.158L138.422 121.594L170.649 150.353L168.935 150.922L136.709 122.158Z" fill="#2F65CD"/>
<path d="M168.935 150.922C170.823 152.607 171.932 155.973 171.403 158.433L168.606 171.537C168.081 174.003 166.121 174.629 164.233 172.944L136.106 147.846L131.445 150.516L132.67 144.78L132.006 144.185C130.118 142.5 129.009 139.133 129.537 136.673L132.334 123.57C132.859 121.104 134.82 120.478 136.708 122.163L168.935 150.922Z" fill="#427AE8"/>
<path d="M168.933 150.921L170.647 150.357C172.535 152.043 173.644 155.409 173.115 157.869L171.401 158.433C171.931 155.968 170.826 152.607 168.933 150.921Z" fill="#2F65CD"/>
<defs>
<filter id="filter0_f_814_1484" x="0" y="0" width="344" height="344" filterUnits="userSpaceOnUse" color-interpolation-filters="sRGB">
<feFlood flood-opacity="0" result="BackgroundImageFix"/>
<feBlend mode="normal" in="SourceGraphic" in2="BackgroundImageFix" result="shape"/>
<feGaussianBlur stdDeviation="41" result="effect1_foregroundBlur_814_1484"/>
</filter>
<radialGradient id="paint0_radial_814_1484" cx="0" cy="0" r="1" gradientUnits="userSpaceOnUse" gradientTransform="translate(90 90) rotate(45) scale(127.279 703.822)">
<stop stop-color="#427AE8"/>
<stop offset="1" stop-opacity="0"/>
</radialGradient>
<linearGradient id="paint1_linear_814_1484" x1="187.921" y1="244.692" x2="196.878" y2="270.472" gradientUnits="userSpaceOnUse">
<stop stop-color="#EFFCFB"/>
<stop offset="1" stop-color="#5D8BE4"/>
</linearGradient>
<linearGradient id="paint2_linear_814_1484" x1="252.995" y1="-9.96209" x2="188.874" y2="311.352" gradientUnits="userSpaceOnUse">
<stop stop-color="#F4F8FF"/>
<stop offset="1" stop-color="#5D8BE4"/>
</linearGradient>
<linearGradient id="paint3_linear_814_1484" x1="174.442" y1="57.2596" x2="88.305" y2="168.105" gradientUnits="userSpaceOnUse">
<stop stop-color="#FBFCFF"/>
<stop offset="1" stop-color="#5D8BE4"/>
</linearGradient>
<linearGradient id="paint4_linear_814_1484" x1="163.358" y1="179.699" x2="95.0212" y2="251.14" gradientUnits="userSpaceOnUse">
<stop stop-color="#FBFCFF"/>
<stop offset="1" stop-color="#5D8BE4"/>
</linearGradient>
<linearGradient id="paint5_linear_814_1484" x1="142.042" y1="172.987" x2="172.659" y2="276.021" gradientUnits="userSpaceOnUse">
<stop stop-color="#FBFCFF"/>
<stop offset="1" stop-color="#5D8BE4"/>
</linearGradient>
<linearGradient id="paint6_linear_814_1484" x1="164.669" y1="117.481" x2="183.339" y2="192.037" gradientUnits="userSpaceOnUse">
<stop stop-color="#FBFCFF"/>
<stop offset="1" stop-color="#5D8BE4"/>
</linearGradient>
</defs>
</svg>
