<svg width="344" height="344" viewBox="0 0 344 344" fill="none" xmlns="http://www.w3.org/2000/svg">
<g opacity="0.5">
<g filter="url(#filter0_f_814_1639)">
<circle cx="90" cy="90" r="90" transform="matrix(0 -1 -1 0 262 262)" fill="url(#paint0_radial_814_1639)" fill-opacity="0.4"/>
</g>
</g>
<path d="M243.139 251.994L135.811 170.464L124.001 85.822L231.327 167.362L243.139 251.994Z" fill="#10295A"/>
<path d="M189.754 272.592L82.4262 191.062L122.543 71.8119L229.87 153.342L189.754 272.592Z" fill="#395897"/>
<path d="M229.871 153.342L122.543 71.8117L129.259 68.996L236.586 150.526L229.871 153.342Z" fill="#334F8A"/>
<path d="M236.586 150.526L250.084 247.275L243.138 251.994L231.327 167.362L196.23 271.678L189.754 272.592L229.87 153.342L236.586 150.526Z" fill="#203C73"/>
<path d="M181.067 260.771L82.1116 185.73C100.253 146.518 120.237 91.9937 125.019 78.3113L223.975 153.353C219.201 167.046 199.209 221.559 181.067 260.771Z" fill="url(#paint1_linear_814_1639)"/>
<path d="M153.269 230.976L164.454 239.473C166.505 234.9 168.574 230.182 170.623 225.383L159.438 216.886C157.389 221.686 155.318 226.413 153.269 230.976Z" fill="white"/>
<path d="M135.063 198.371C133.014 203.17 130.945 207.889 128.894 212.461L140.097 220.97C142.148 216.397 144.217 211.679 146.266 206.879L135.063 198.371Z" fill="white"/>
<path d="M147.26 207.635C145.211 212.434 143.142 217.152 141.091 221.725L152.276 230.221C154.326 225.658 156.396 220.931 158.444 216.141L147.26 207.635Z" fill="white"/>
<path d="M122.884 189.129C120.835 193.929 118.776 198.648 116.715 203.219L127.9 211.716C129.951 207.143 132.02 202.425 134.07 197.626L122.884 189.129Z" fill="white"/>
<path d="M165.537 159.195L154.334 150.686C152.64 155.096 150.843 159.701 148.983 164.406L160.186 172.914C162.047 168.199 163.834 163.604 165.537 159.195Z" fill="white"/>
<path d="M177.715 168.446L166.53 159.95C164.836 164.36 163.039 168.964 161.179 173.669L172.374 182.167C174.225 177.451 176.012 172.855 177.715 168.446Z" fill="white"/>
<path d="M110.707 179.878C108.657 184.677 106.588 189.395 104.538 193.968L115.723 202.464C117.772 197.901 119.842 193.173 121.892 188.374L110.707 179.878Z" fill="white"/>
<path d="M124.627 145.903L135.812 154.399C137.672 149.684 139.459 145.088 141.162 140.679L129.977 132.183C128.274 136.592 126.487 141.188 124.627 145.903Z" fill="white"/>
<path d="M136.805 155.154L147.99 163.651C149.851 158.936 151.638 154.34 153.341 149.931L142.156 141.434C140.453 145.844 138.666 150.439 136.805 155.154Z" fill="white"/>
<path d="M141.74 139.165C143.418 134.802 144.992 130.633 146.452 126.745L135.267 118.249C133.807 122.136 132.223 126.304 130.555 130.669L141.74 139.165Z" fill="white"/>
<path d="M166.113 157.68C167.791 153.317 169.376 149.149 170.835 145.262L159.622 136.752C158.162 140.64 156.578 144.807 154.91 149.172L166.113 157.68Z" fill="white"/>
<path d="M153.917 148.417C155.595 144.054 157.17 139.884 158.63 135.997L147.445 127.5C145.985 131.388 144.401 135.556 142.732 139.92L153.917 148.417Z" fill="white"/>
<path d="M134.284 117.495L123.099 108.998C121.639 112.886 120.055 117.054 118.387 121.418L129.572 129.915C131.24 125.55 132.824 121.383 134.284 117.495Z" fill="white"/>
<path d="M178.291 166.932C179.969 162.569 181.544 158.4 183.013 154.513L171.819 146.015C170.359 149.903 168.775 154.071 167.106 158.435L178.291 166.932Z" fill="white"/>
<path d="M183.996 155.267C182.537 159.155 180.952 163.322 179.284 167.687L190.469 176.183C192.147 171.82 193.722 167.651 195.181 163.763L183.996 155.267Z" fill="white"/>
<path d="M173.357 182.921L184.542 191.417C186.403 186.703 188.189 182.107 189.893 177.698L178.708 169.201C177.004 173.61 175.218 178.206 173.357 182.921Z" fill="white"/>
<path d="M128.985 131.428L117.8 122.932C116.106 127.342 114.308 131.946 112.449 136.651L123.634 145.148C125.495 140.433 127.281 135.837 128.985 131.428Z" fill="white"/>
<path d="M111.411 178.221L122.596 186.718C124.647 181.908 126.677 177.028 128.666 172.162L117.481 163.665C115.493 168.522 113.463 173.402 111.411 178.221Z" fill="white"/>
<path d="M122.993 146.773L111.808 138.276C109.934 143.019 107.987 147.87 105.998 152.737L117.183 161.233C119.172 156.367 121.11 151.514 122.993 146.773Z" fill="white"/>
<path d="M98.529 170.626C96.4794 175.426 94.4104 180.144 92.3598 184.716L103.545 193.213C105.594 188.65 107.664 183.922 109.713 179.132L98.529 170.626Z" fill="white"/>
<path d="M116.497 162.911L105.312 154.415C103.323 159.281 101.283 164.161 99.242 168.971L110.427 177.468C112.469 172.647 114.498 167.776 116.497 162.911Z" fill="white"/>
<path d="M118.167 161.987L129.352 170.483C131.341 165.617 133.288 160.765 135.162 156.023L123.977 147.526C122.103 152.269 120.156 157.121 118.167 161.987Z" fill="white"/>
<path d="M140.853 181.414L129.668 172.918C127.67 177.783 125.639 182.664 123.598 187.474L134.783 195.97C136.826 191.15 138.855 186.279 140.853 181.414Z" fill="white"/>
<path d="M153.049 190.678L141.836 182.168C139.847 187.034 137.807 191.914 135.766 196.724L146.97 205.233C149.02 200.424 151.051 195.543 153.049 190.678Z" fill="white"/>
<path d="M165.228 199.929L154.034 191.422C152.036 196.287 150.006 201.168 147.965 205.978L159.148 214.484C161.199 209.675 163.239 204.796 165.228 199.929Z" fill="white"/>
<path d="M160.14 215.239L171.325 223.736C173.376 218.927 175.406 214.046 177.395 209.18L166.21 200.683C164.221 205.549 162.192 210.42 160.14 215.239Z" fill="white"/>
<path d="M166.907 199.006L178.092 207.503C180.081 202.637 182.028 197.785 183.903 193.042L172.718 184.546C170.834 189.287 168.886 194.139 166.907 199.006Z" fill="white"/>
<path d="M130.345 171.238L141.53 179.735C143.519 174.868 145.466 170.017 147.34 165.274L136.155 156.778C134.281 161.52 132.334 166.372 130.345 171.238Z" fill="white"/>
<path d="M171.723 183.791L160.538 175.294C158.664 180.037 156.718 184.879 154.728 189.755L165.913 198.251C167.901 193.385 169.838 188.542 171.723 183.791Z" fill="white"/>
<path d="M159.546 174.539L148.343 166.031C146.468 170.773 144.522 175.615 142.532 180.491L153.736 189C155.715 184.132 157.662 179.281 159.546 174.539Z" fill="white"/>
<path d="M182.799 234.643L171.604 226.146C169.555 230.945 167.486 235.663 165.436 240.226L176.63 248.734C178.69 244.162 180.751 239.433 182.799 234.643Z" fill="#427AE8"/>
<path d="M207.369 173.016L196.174 164.518C194.714 168.406 193.13 172.574 191.462 176.938L202.646 185.444C204.325 181.071 205.909 176.904 207.369 173.016Z" fill="#427AE8"/>
<path d="M196.079 202.294L184.894 193.797C183.02 198.54 181.073 203.391 179.084 208.258L190.269 216.754C192.258 211.888 194.195 207.035 196.079 202.294Z" fill="#427AE8"/>
<path d="M202.07 186.949L190.885 178.453C189.191 182.863 187.393 187.467 185.534 192.172L196.719 200.669C198.58 195.954 200.366 191.358 202.07 186.949Z" fill="#427AE8"/>
<path d="M189.583 218.432L178.398 209.936C176.409 214.802 174.369 219.681 172.328 224.492L183.513 232.988C185.554 228.178 187.584 223.297 189.583 218.432Z" fill="#427AE8"/>
<path d="M224.779 153.02C220.161 166.26 200.003 221.304 181.735 260.816L181.068 260.771C199.209 221.559 219.193 167.035 223.975 153.353L224.779 153.02Z" fill="white"/>
<path d="M223.985 153.354L125.028 78.3224L125.822 77.9882L224.779 153.02L223.985 153.354Z" fill="white"/>
<path d="M137.619 91.2819L132.677 87.5586C132.325 87.2976 131.869 87.4575 131.644 87.9122L130.921 89.4084C130.704 89.8741 130.798 90.4576 131.151 90.7186L136.083 94.4405C136.426 94.7003 136.891 94.5417 137.117 94.087L137.84 92.5907C138.066 92.1263 137.962 91.5416 137.619 91.2819Z" fill="#395897"/>
<path d="M145.814 72.6552C144.469 71.6294 142.439 71.4935 140.067 72.4975C135.345 74.4788 130.994 80.1926 130.379 85.2307C130.073 87.7352 130.746 89.6132 132.072 90.6268L136.044 93.6471C134.717 92.6432 134.043 90.7652 134.35 88.251C134.977 83.2044 139.317 77.4991 144.038 75.5178C146.409 74.5235 148.44 74.6594 149.786 75.6755L145.814 72.6552Z" fill="url(#paint2_linear_814_1639)"/>
<path d="M143.841 77.1685C147.716 75.5445 150.446 77.5815 149.936 81.7063C149.833 82.5214 149.607 83.3703 149.295 84.1985L150.315 84.9766C150.905 83.6707 151.318 82.3525 151.481 81.0621C152.097 76.0239 148.771 73.528 144.05 75.5094C139.329 77.4907 134.978 83.2044 134.362 88.2425C134.056 90.747 134.72 92.6239 136.056 93.6387C136.319 92.8832 136.567 92.175 136.796 91.5336C136.047 90.6513 135.702 89.3071 135.907 87.5983C136.408 83.4722 139.966 78.7926 143.841 77.1685Z" fill="#8CB1EB"/>
<path d="M156.136 105.338L151.194 101.615C150.851 101.355 150.386 101.514 150.16 101.968L149.438 103.464C149.211 103.929 149.315 104.514 149.668 104.775L154.61 108.498C154.953 108.758 155.418 108.599 155.643 108.144L156.366 106.648C156.582 106.192 156.478 105.607 156.136 105.338Z" fill="#395897"/>
<path d="M164.33 86.7212C162.985 85.6955 160.954 85.5595 158.582 86.5635C153.861 88.5449 149.51 94.2586 148.894 99.2967C148.588 101.801 149.252 103.678 150.588 104.693L154.56 107.713C153.232 106.709 152.559 104.831 152.866 102.317C153.491 97.2801 157.833 91.5652 162.554 89.5838C164.925 88.5895 166.956 88.7255 168.301 89.7415L164.33 86.7212Z" fill="url(#paint3_linear_814_1639)"/>
<path d="M162.356 91.2344C166.23 89.6103 168.961 91.6474 168.449 95.7819C168.347 96.5969 168.131 97.4471 167.809 98.2741L168.828 99.0522C169.417 97.756 169.832 96.4281 169.995 95.1376C170.62 90.1007 167.285 87.6036 162.564 89.5849C157.842 91.5663 153.491 97.28 152.876 102.318C152.57 104.823 153.243 106.701 154.569 107.714C154.833 106.959 155.08 106.251 155.31 105.609C154.56 104.727 154.215 103.383 154.421 101.674C154.923 97.5381 158.481 92.8585 162.356 91.2344Z" fill="#8CB1EB"/>
<path d="M174.641 119.403L169.699 115.68C169.356 115.42 168.891 115.578 168.665 116.033L167.942 117.529C167.716 117.994 167.82 118.579 168.173 118.84L173.114 122.563C173.458 122.823 173.923 122.664 174.148 122.209L174.872 120.703C175.097 120.258 174.994 119.664 174.641 119.403Z" fill="#395897"/>
<path d="M182.844 100.787C181.5 99.7616 179.469 99.6257 177.097 100.63C172.376 102.611 168.025 108.325 167.409 113.363C167.103 115.867 167.767 117.744 169.103 118.759L173.074 121.779C171.747 120.775 171.074 118.897 171.381 116.383C172.007 111.337 176.347 105.631 181.069 103.65C183.44 102.656 185.47 102.792 186.816 103.808L182.844 100.787Z" fill="url(#paint4_linear_814_1639)"/>
<path d="M180.86 105.299C184.735 103.675 187.466 105.712 186.954 109.847C186.852 110.662 186.636 111.512 186.314 112.339L187.333 113.117C187.922 111.821 188.337 110.493 188.5 109.203C189.125 104.166 185.79 101.669 181.068 103.65C176.347 105.631 171.996 111.345 171.381 116.383C171.075 118.888 171.748 120.766 173.074 121.779C173.338 121.024 173.585 120.316 173.815 119.674C173.065 118.792 172.72 117.448 172.926 115.739C173.437 111.604 176.995 106.925 180.86 105.299Z" fill="#8CB1EB"/>
<path d="M193.156 133.469L188.215 129.746C187.872 129.486 187.407 129.644 187.181 130.099L186.458 131.595C186.231 132.06 186.336 132.645 186.689 132.906L191.63 136.629C191.973 136.889 192.438 136.73 192.665 136.266L193.388 134.769C193.614 134.315 193.509 133.73 193.156 133.469Z" fill="#395897"/>
<path d="M201.35 114.852C200.006 113.826 197.975 113.69 195.603 114.694C190.882 116.676 186.531 122.389 185.915 127.428C185.609 129.932 186.282 131.81 187.608 132.824L191.58 135.844C190.253 134.84 189.579 132.962 189.887 130.448C190.512 125.411 194.853 119.696 199.575 117.715C201.945 116.72 203.976 116.856 205.322 117.872L201.35 114.852Z" fill="url(#paint5_linear_814_1639)"/>
<path d="M199.376 119.365C203.251 117.741 205.982 119.778 205.47 123.913C205.367 124.728 205.141 125.577 204.829 126.405L205.849 127.183C206.439 125.877 206.853 124.559 207.015 123.268C207.631 118.23 204.305 115.734 199.584 117.716C194.863 119.697 190.512 125.411 189.896 130.449C189.59 132.953 190.263 134.831 191.59 135.845C191.853 135.09 192.101 134.381 192.33 133.74C191.581 132.858 191.236 131.514 191.442 129.805C191.953 125.67 195.511 120.991 199.376 119.365Z" fill="#8CB1EB"/>
<path d="M211.671 147.535L206.729 143.812C206.377 143.551 205.921 143.711 205.696 144.165L204.973 145.662C204.746 146.126 204.85 146.711 205.203 146.972L210.145 150.695C210.488 150.955 210.953 150.796 211.179 150.341L211.901 148.845C212.128 148.381 212.024 147.796 211.671 147.535Z" fill="#395897"/>
<path d="M219.865 128.918C218.52 127.892 216.49 127.757 214.117 128.761C209.396 130.742 205.045 136.456 204.43 141.494C204.124 143.998 204.797 145.876 206.123 146.89L210.095 149.91C208.767 148.906 208.094 147.028 208.401 144.514C209.028 139.467 213.368 133.762 218.089 131.781C220.46 130.787 222.491 130.922 223.837 131.939L219.865 128.918Z" fill="url(#paint6_linear_814_1639)"/>
<path d="M217.891 133.432C221.766 131.808 224.496 133.845 223.985 137.979C223.882 138.794 223.656 139.643 223.344 140.471L224.364 141.249C224.952 139.953 225.367 138.625 225.53 137.335C226.146 132.297 222.82 129.801 218.099 131.782C213.378 133.764 209.026 139.477 208.411 144.515C208.105 147.02 208.778 148.898 210.104 149.912C210.368 149.156 210.616 148.448 210.845 147.806C210.095 146.924 209.751 145.58 209.956 143.871C210.469 139.727 214.026 135.057 217.891 133.432Z" fill="#8CB1EB"/>
<defs>
<filter id="filter0_f_814_1639" x="0" y="0" width="344" height="344" filterUnits="userSpaceOnUse" color-interpolation-filters="sRGB">
<feFlood flood-opacity="0" result="BackgroundImageFix"/>
<feBlend mode="normal" in="SourceGraphic" in2="BackgroundImageFix" result="shape"/>
<feGaussianBlur stdDeviation="41" result="effect1_foregroundBlur_814_1639"/>
</filter>
<radialGradient id="paint0_radial_814_1639" cx="0" cy="0" r="1" gradientUnits="userSpaceOnUse" gradientTransform="translate(90 90) rotate(45) scale(127.279 703.822)">
<stop stop-color="#427AE8"/>
<stop offset="1" stop-opacity="0"/>
</radialGradient>
<linearGradient id="paint1_linear_814_1639" x1="106.357" y1="95.1169" x2="251.993" y2="384.061" gradientUnits="userSpaceOnUse">
<stop stop-color="#FBFCFF"/>
<stop offset="1" stop-color="#5D8BE4"/>
</linearGradient>
<linearGradient id="paint2_linear_814_1639" x1="126.577" y1="68.0295" x2="165.85" y2="72.4366" gradientUnits="userSpaceOnUse">
<stop stop-color="#EFFCFB"/>
<stop offset="1" stop-color="#5D8BE4"/>
</linearGradient>
<linearGradient id="paint3_linear_814_1639" x1="145.093" y1="82.0956" x2="184.365" y2="86.5026" gradientUnits="userSpaceOnUse">
<stop stop-color="#EFFCFB"/>
<stop offset="1" stop-color="#5D8BE4"/>
</linearGradient>
<linearGradient id="paint4_linear_814_1639" x1="163.607" y1="96.1617" x2="202.88" y2="100.569" gradientUnits="userSpaceOnUse">
<stop stop-color="#EFFCFB"/>
<stop offset="1" stop-color="#5D8BE4"/>
</linearGradient>
<linearGradient id="paint5_linear_814_1639" x1="182.113" y1="110.226" x2="221.386" y2="114.633" gradientUnits="userSpaceOnUse">
<stop stop-color="#EFFCFB"/>
<stop offset="1" stop-color="#5D8BE4"/>
</linearGradient>
<linearGradient id="paint6_linear_814_1639" x1="200.628" y1="124.293" x2="239.901" y2="128.7" gradientUnits="userSpaceOnUse">
<stop stop-color="#EFFCFB"/>
<stop offset="1" stop-color="#5D8BE4"/>
</linearGradient>
</defs>
</svg>
