<svg width="344" height="344" viewBox="0 0 344 344" fill="none" xmlns="http://www.w3.org/2000/svg">
<g opacity="0.5">
<g filter="url(#filter0_f_814_1245)">
<circle cx="90" cy="90" r="90" transform="matrix(0 -1 -1 0 262 262)" fill="url(#paint0_radial_814_1245)" fill-opacity="0.4"/>
</g>
</g>
<path d="M179.799 144.382L179.06 152.188L129.323 116.979C127.56 115.737 125.121 116.85 124.918 118.993L115.783 215.422L210.652 282.991C212.87 284.576 215.797 284.805 218.244 283.601L220.509 282.484C222.603 281.455 224.004 279.412 224.223 277.096L233.256 181.745C233.512 179.04 232.298 176.416 230.079 174.843L184.214 142.38C182.453 141.127 180.001 142.25 179.799 144.382Z" fill="#203C73"/>
<path d="M128.081 117.833L177.818 153.043L177.971 151.427L129.321 116.99C128.048 116.095 126.436 116.441 125.548 117.491C126.364 117.209 127.286 117.273 128.081 117.833Z" fill="#10295A"/>
<path d="M230.081 174.831L184.216 142.368C182.942 141.474 181.331 141.819 180.442 142.869C181.247 142.586 182.181 142.651 182.975 143.212L228.84 175.674C231.059 177.248 232.272 179.883 232.017 182.577L222.984 277.928C222.82 279.659 221.998 281.236 220.708 282.352C222.677 281.288 224.013 279.32 224.225 277.085L233.258 181.734C233.513 179.04 232.3 176.405 230.081 174.831Z" fill="#10295A"/>
<path d="M226.709 113.241L153.012 61.1251C152.305 60.6192 151.322 61.0703 151.24 61.9415L138.025 201.438C137.947 202.263 138.323 203.073 138.997 203.553L212.694 255.669C213.401 256.175 214.384 255.724 214.466 254.853L227.681 115.356C227.759 114.531 227.395 113.722 226.709 113.241Z" fill="url(#paint1_linear_814_1245)"/>
<path d="M226.709 113.241L153.012 61.1254C152.456 60.7378 151.742 60.9251 151.415 61.4379C151.752 61.3077 152.146 61.3215 152.483 61.5614L226.18 113.677C226.866 114.158 227.23 114.967 227.152 115.793L213.937 255.289C213.919 255.484 213.858 255.64 213.763 255.781C214.137 255.632 214.424 255.3 214.466 254.853L227.681 115.357C227.759 114.531 227.394 113.722 226.709 113.241Z" fill="white"/>
<path d="M185.713 114.058L190.663 117.554L190.864 115.433L185.914 111.937L185.713 114.058ZM198.675 120.967L192.289 116.446L192.088 118.567L198.474 123.088L198.675 120.967ZM194.588 130.772L205.826 138.733L206.026 136.613L194.789 128.651L194.588 130.772ZM197.852 125.608L197.651 127.729L203.764 132.063L203.965 129.942L197.852 125.608ZM211.157 135.025L205.413 130.957L205.212 133.078L210.956 137.145L211.157 135.025ZM166.165 118.835L157.831 112.94L157.63 115.061L165.964 120.956L166.165 118.835ZM162.674 105.936L158.746 103.161L158.545 105.281L162.473 108.056L162.674 105.936ZM163.745 111.911L158.294 108.057L158.093 110.177L163.544 114.032L163.745 111.911ZM160.984 99.5083L159.222 98.2555L159.022 100.376L160.783 101.629L160.984 99.5083ZM163.069 95.7605L159.686 93.3607L159.485 95.4814L162.868 97.8812L163.069 95.7605ZM202.852 123.927L200.121 121.994L199.92 124.114L202.651 126.048L202.852 123.927ZM169.254 102.402L173.932 105.71L174.133 103.59L169.455 100.282L169.254 102.402ZM173.37 110.538L175.523 112.071L175.724 109.95L173.571 108.418L173.37 110.538ZM175.367 106.736L184.266 113.032L184.467 110.911L175.568 104.615L175.367 106.736ZM168.8 110.259L164.122 106.951L163.921 109.071L168.599 112.379L168.8 110.259ZM176.971 113.086L184.434 118.367L184.635 116.247L177.172 110.965L176.971 113.086ZM171.103 122.341L167.6 119.861L167.399 121.982L170.902 124.462L171.103 122.341ZM174.896 119.795L165.181 112.925L164.98 115.046L174.695 121.916L174.896 119.795ZM178.463 129.811L187.362 136.106L187.563 133.986L178.664 127.69L178.463 129.811ZM200.009 139.84L207.874 145.414L208.075 143.293L200.21 137.719L200.009 139.84ZM200.406 145.336L208.685 151.192L208.886 149.071L200.607 143.216L200.406 145.336ZM179.02 119.767L185.319 124.222L185.52 122.101L179.221 117.646L179.02 119.767ZM188.63 131.785L194.744 136.118L194.945 133.998L188.831 129.664L188.63 131.785ZM179.731 125.489L187.194 130.771L187.395 128.65L179.932 123.368L179.731 125.489ZM185.869 119.393L191.982 123.727L192.183 121.606L186.07 117.272L185.869 119.393ZM188.999 135L188.798 137.121L191.137 138.775L191.338 136.654L188.999 135ZM164.504 96.786L164.303 98.9067L167.806 101.387L168.007 99.2666L164.504 96.786ZM177.785 116.62L170.236 111.273L170.035 113.394L177.585 118.741L177.785 116.62ZM192.572 139.8L198.958 144.321L199.159 142.2L192.773 137.679L192.572 139.8ZM196.416 124.594L193.631 122.621L193.43 124.742L196.215 126.715L196.416 124.594ZM196.392 135.013L196.191 137.133L198.574 138.815L198.775 136.694L196.392 135.013ZM178.497 122.343L176.344 120.81L176.143 122.931L178.296 124.464L178.497 122.343ZM186.755 125.236L193.141 129.757L193.342 127.636L186.956 123.115L186.755 125.236ZM212.288 135.825L212.087 137.946L213.981 139.28L214.182 137.16L212.288 135.825ZM207.403 139.853L213.516 144.187L213.717 142.066L207.604 137.732L207.403 139.853ZM210.109 152.216L212.578 153.964L212.779 151.843L210.31 150.096L210.109 152.216ZM213.156 146.882L209.511 144.307L209.31 146.428L212.955 149.003L213.156 146.882ZM214.503 132.17L204.027 124.755L203.826 126.876L214.302 134.291L214.503 132.17ZM162.219 102.654L171.934 109.524L172.135 107.403L162.419 100.534L162.219 102.654ZM172.338 125.476L177.016 128.784L177.217 126.664L172.539 123.355L172.338 125.476ZM196.919 172.465L204.784 178.038L204.985 175.918L197.12 170.344L196.919 172.465ZM196.07 174.813L189.684 170.292L189.483 172.413L195.869 176.934L196.07 174.813ZM187.801 141.641L193.914 145.975L194.115 143.854L188.002 139.521L187.801 141.641ZM171.812 144.267L180.711 150.562L180.912 148.442L172.013 142.146L171.812 144.267ZM194.096 165.26L200.209 169.593L200.41 167.473L194.297 163.139L194.096 165.26ZM188.532 156.109L194.917 160.63L195.118 158.509L188.733 153.988L188.532 156.109ZM177.173 139.266L183.472 143.721L183.673 141.6L177.373 137.145L177.173 139.266ZM176.642 158.102L184.105 163.384L184.306 161.263L176.843 155.981L176.642 158.102ZM182.157 151.589L187.108 155.084L187.309 152.964L182.358 149.468L182.157 151.589ZM181.078 153.789L173.616 148.507L173.415 150.628L180.878 155.91L181.078 153.789ZM189.875 162.272L192.66 164.246L192.86 162.125L190.076 160.152L189.875 162.272ZM193.101 169.758L195.484 171.439L195.685 169.318L193.302 167.637L193.101 169.758ZM164.152 124.891L173.867 131.761L174.068 129.64L164.353 122.771L164.152 124.891ZM207.247 153.139L199.784 147.857L199.583 149.978L207.046 155.259L207.247 153.139ZM188.047 171.399L188.248 169.278L185.909 167.624L185.708 169.745L188.047 171.399ZM172.18 147.482L170.027 145.949L169.826 148.07L171.98 149.602L172.18 147.482ZM177.656 132.198L175.503 130.666L175.302 132.787L177.455 134.319L177.656 132.198ZM196.365 161.645L199.096 163.579L199.297 161.458L196.566 159.524L196.365 161.645ZM170.576 141.132L165.898 137.824L165.697 139.945L170.376 143.253L170.576 141.132ZM186.555 138.494L179.092 133.212L178.892 135.333L186.355 140.615L186.555 138.494ZM184.472 166.61L175.573 160.315L175.372 162.435L184.271 168.731L184.472 166.61ZM188.639 159.138L182.526 154.804L182.325 156.925L188.439 161.258L188.639 159.138ZM191.855 166.61L185.742 162.277L185.541 164.398L191.654 168.731L191.855 166.61ZM175.407 154.967L173.253 153.435L173.052 155.555L175.206 157.088L175.407 154.967ZM168.187 132.904L175.736 138.252L175.937 136.131L168.388 130.783L168.187 132.904ZM169.248 158.101L173.926 161.409L174.127 159.288L169.448 155.98L169.248 158.101ZM198.336 146.842L195.552 144.868L195.351 146.989L198.135 148.962L198.336 146.842ZM159.513 133.303L156.13 130.903L155.929 133.024L159.312 135.423L159.513 133.303ZM160.827 125.435L156.899 122.66L156.698 124.78L160.626 127.555L160.827 125.435ZM157.428 137.05L155.666 135.798L155.465 137.918L157.227 139.171L157.428 137.05ZM160.748 136.437L164.251 138.918L164.452 136.797L160.949 134.317L160.748 136.437ZM160.655 144.524L155.205 140.669L155.004 142.79L160.454 146.645L160.655 144.524ZM206.231 179.054L209.876 181.628L210.077 179.508L206.432 176.933L206.231 179.054ZM201.657 170.609L207.401 174.676L207.601 172.555L201.858 168.488L201.657 170.609ZM210.947 169.713L200.471 162.297L200.27 164.418L210.746 171.833L210.947 169.713ZM162.905 121.756L157.368 117.835L157.167 119.955L162.704 123.876L162.905 121.756ZM208.532 175.476L210.425 176.811L210.626 174.69L208.733 173.356L208.532 175.476ZM166.953 129.758L162.274 126.45L162.074 128.57L166.752 131.878L166.953 129.758ZM208.482 156.273L212.127 158.848L212.328 156.727L208.683 154.153L208.482 156.273ZM168.013 154.954L164.51 152.474L164.31 154.595L167.812 157.075L168.013 154.954ZM158.663 140.185L168.379 147.055L168.579 144.934L158.864 138.064L158.663 140.185ZM171.806 152.42L162.09 145.55L161.889 147.671L171.605 154.54L171.806 152.42ZM163.074 151.46L154.741 145.564L154.54 147.685L162.873 153.581L163.074 151.46ZM154.793 164.86L153.032 163.607L152.831 165.728L154.593 166.981L154.793 164.86ZM166.147 190.828L170.825 194.136L171.026 192.016L166.348 188.707L166.147 190.828ZM151.44 180.413L159.773 186.308L159.974 184.187L151.641 178.292L151.44 180.413ZM157.554 177.263L152.103 173.409L151.902 175.529L157.353 179.384L157.554 177.263ZM169.939 188.293L172.093 189.826L172.294 187.705L170.14 186.173L169.939 188.293ZM156.483 171.288L152.555 168.513L152.354 170.633L156.282 173.408L156.483 171.288ZM161.209 187.322L164.712 189.803L164.913 187.682L161.41 185.201L161.209 187.322ZM203.131 211.781L206.776 214.356L206.977 212.235L203.332 209.66L203.131 211.781ZM150.009 194.168L157.383 199.407L157.584 197.286L150.21 192.047L150.009 194.168ZM205.897 203.298L207.79 204.632L207.991 202.512L206.097 201.177L205.897 203.298ZM193.819 205.192L201.683 210.766L201.884 208.645L194.02 203.071L193.819 205.192ZM192.384 204.167L192.584 202.046L190.201 200.365L190.001 202.485L192.384 204.167ZM205.072 192.268L208.717 194.843L208.918 192.722L205.273 190.147L205.072 192.268ZM199.836 201.965L188.599 194.003L188.398 196.124L199.635 204.085L199.836 201.965ZM186.382 205.152L192.767 209.673L192.968 207.552L186.582 203.031L186.382 205.152ZM167.942 168.942L163.264 165.634L163.063 167.754L167.741 171.062L167.942 168.942ZM182.607 202.473L184.946 204.127L185.147 202.006L182.808 200.352L182.607 202.473ZM178.276 176.263L169.377 169.967L169.176 172.088L178.075 178.384L178.276 176.263ZM172.273 195.151L181.172 201.447L181.373 199.326L172.474 193.031L172.273 195.151ZM188.754 199.35L182.64 195.016L182.44 197.137L188.553 201.47L188.754 199.35ZM179.329 187.453L173.03 182.998L172.829 185.119L179.128 189.574L179.329 187.453ZM169.545 175.303L167.392 173.771L167.191 175.891L169.344 177.424L169.545 175.303ZM201.213 205.194L207.326 209.527L207.527 207.406L201.414 203.073L201.213 205.194ZM184.662 180.784L179.711 177.288L179.51 179.409L184.461 182.905L184.662 180.784ZM183.146 174.489L175.683 169.207L175.482 171.328L182.945 176.609L183.146 174.489ZM178.444 181.599L170.981 176.317L170.78 178.438L178.243 183.719L178.444 181.599ZM193.731 189.455L196.461 191.389L196.662 189.268L193.932 187.334L193.731 189.455ZM171.595 181.972L164.045 176.625L163.844 178.746L171.394 184.093L171.595 181.972ZM203.837 189.133L196.374 183.851L196.173 185.972L203.636 191.254L203.837 189.133ZM158.112 164.259L161.615 166.739L161.816 164.619L158.313 162.138L158.112 164.259ZM168.705 185.147L158.99 178.277L158.789 180.398L168.504 187.268L168.705 185.147ZM160.742 160.886L170.457 167.756L170.658 165.635L160.943 158.765L160.742 160.886ZM197.775 195.283L191.662 190.949L191.461 193.07L197.575 197.403L197.775 195.283ZM156.029 167.995L165.744 174.865L165.945 172.744L156.23 165.874L156.029 167.995ZM162.609 175.611L157.931 172.303L157.73 174.423L162.408 177.732L162.609 175.611ZM156.878 161.113L153.495 158.713L153.294 160.833L156.677 163.233L156.878 161.113ZM204.966 200.377L199.222 196.309L199.021 198.43L204.765 202.497L204.966 200.377ZM208.313 197.523L197.836 190.107L197.635 192.228L208.112 199.643L208.313 197.523ZM174.247 168.193L172.093 166.661L171.892 168.781L174.046 170.314L174.247 168.193ZM159.495 157.75L153.958 153.829L153.757 155.95L159.294 159.871L159.495 157.75ZM192.484 186.319L186.098 181.798L185.897 183.919L192.283 188.44L192.484 186.319ZM194.727 184.946L194.928 182.825L192.143 180.851L191.942 182.972L194.727 184.946ZM190.225 189.946L187.44 187.973L187.239 190.094L190.024 192.067L190.225 189.946ZM190.707 179.837L184.593 175.504L184.392 177.624L190.506 181.958L190.707 179.837ZM186.005 186.947L179.892 182.614L179.691 184.735L185.804 189.068L186.005 186.947ZM187.151 192.988L180.765 188.467L180.564 190.588L186.95 195.109L187.151 192.988ZM173.54 190.841L181.003 196.123L181.204 194.002L173.741 188.72L173.54 190.841Z" fill="#28498B"/>
<path d="M175.289 205.219C175.107 204.196 174.59 203.28 173.848 202.539L173.45 203.057C174.126 203.768 174.51 204.614 174.639 205.332C174.865 206.625 174.546 207.914 174.148 209.172C173.807 208.365 173.713 207.512 173.86 206.693C174.024 206.442 174.121 206.15 174.094 205.824C174.085 205.673 173.969 205.546 173.808 205.531C173.625 205.502 173.512 205.596 173.452 205.741C173.361 205.963 173.292 206.2 173.236 206.426C172.958 206.781 172.43 207.09 171.901 207.399C171.73 207.498 171.558 207.598 171.396 207.71C170.667 208.173 170.054 208.763 169.595 209.449C169.36 209.103 169.126 208.757 168.9 208.447C168.43 207.778 167.935 207.118 167.43 206.446C166.401 205.054 165.339 203.636 164.455 202.188C164.414 201.514 164.331 200.8 164.205 200.048C164.108 199.484 163.829 197.769 162.209 197.224C162.096 197.19 161.978 197.214 161.89 197.286C161.802 197.359 161.767 197.483 161.79 197.601C162.143 199.265 162.899 200.851 163.82 202.395C163.903 203.975 163.75 205.337 163.354 206.584C162.939 207.898 162.214 209.056 161.264 210.019L161.564 210.648C162.675 209.585 163.497 208.262 163.974 206.781C164.301 205.771 164.475 204.677 164.485 203.463C165.247 204.611 166.07 205.729 166.894 206.836C167.388 207.495 167.883 208.155 168.354 208.823C168.641 209.22 168.926 209.64 169.221 210.084C168.764 210.99 168.538 212.021 168.55 213.121C168.581 215.125 169.36 217.071 170.111 218.946C170.476 219.871 171.086 220.414 171.788 220.48C171.857 220.487 171.938 220.494 172.008 220.489C172.148 220.479 172.26 220.397 172.307 220.275C173.537 216.724 171.837 212.979 169.989 210.064C170.417 209.341 171.008 208.738 171.738 208.263C171.899 208.162 172.059 208.061 172.23 207.973C172.526 207.793 172.833 207.614 173.119 207.409C173.111 208.357 173.38 209.319 173.924 210.191C173.994 210.302 174.117 210.36 174.245 210.349C174.374 210.338 174.476 210.243 174.521 210.132C175.024 208.629 175.591 206.925 175.289 205.219ZM162.619 198.164C163.116 198.558 163.425 199.212 163.58 200.151C163.619 200.352 163.646 200.562 163.674 200.75C163.231 199.91 162.872 199.044 162.619 198.164ZM171.793 219.822C171.234 219.711 170.909 219.102 170.749 218.706C170.017 216.879 169.267 214.993 169.237 213.105C169.224 212.259 169.37 211.452 169.67 210.74C171.32 213.416 172.736 216.73 171.793 219.822Z" fill="#427AE8"/>
<path d="M160.46 204.172L149.892 196.748L149.691 198.869L160.259 206.293L160.46 204.172Z" fill="#427AE8"/>
<path d="M204.985 111.337L175.788 90.5265L175.531 93.2433L204.728 114.042L204.985 111.337Z" fill="#427AE8"/>
<path d="M198.52 112.186L181.297 99.7761L181.04 102.493L198.264 114.892L198.52 112.186Z" fill="#427AE8"/>
<path d="M223.148 114.063L149.451 61.9468C148.745 61.4408 147.762 61.892 147.679 62.7632L134.465 202.259C134.386 203.085 134.762 203.895 135.437 204.375L209.134 256.491C209.84 256.997 210.823 256.545 210.906 255.674L224.12 116.178C224.199 115.353 223.834 114.543 223.148 114.063Z" fill="url(#paint2_linear_814_1245)"/>
<path d="M223.149 114.063L149.452 61.947C148.897 61.5594 148.183 61.7467 147.855 62.2595C148.193 62.1293 148.586 62.1432 148.923 62.3831L222.62 114.499C223.306 114.98 223.671 115.789 223.592 116.614L210.378 256.111C210.359 256.305 210.298 256.462 210.203 256.603C210.577 256.453 210.864 256.122 210.907 255.675L224.121 116.178C224.199 115.353 223.835 114.544 223.149 114.063Z" fill="white"/>
<path d="M182.152 114.88L187.103 118.375L187.304 116.255L182.353 112.759L182.152 114.88ZM195.114 121.789L188.728 117.268L188.528 119.388L194.913 123.909L195.114 121.789ZM191.028 131.594L202.265 139.555L202.466 137.434L191.229 129.473L191.028 131.594ZM194.291 126.43L194.091 128.551L200.204 132.884L200.405 130.764L194.291 126.43ZM207.596 135.846L201.852 131.779L201.652 133.899L207.395 137.967L207.596 135.846ZM162.604 119.657L154.271 113.761L154.07 115.882L162.403 121.778L162.604 119.657ZM159.113 106.757L155.186 103.982L154.985 106.103L158.912 108.878L159.113 106.757ZM160.184 112.733L154.733 108.878L154.533 110.999L159.983 114.854L160.184 112.733ZM157.424 100.33L155.662 99.077L155.461 101.198L157.223 102.451L157.424 100.33ZM159.508 96.5821L156.126 94.1822L155.925 96.3029L159.307 98.7028L159.508 96.5821ZM199.291 124.749L196.561 122.815L196.36 124.936L199.09 126.87L199.291 124.749ZM165.693 103.224L170.371 106.532L170.572 104.411L165.894 101.103L165.693 103.224ZM169.81 111.36L171.963 112.892L172.164 110.772L170.01 109.239L169.81 111.36ZM171.806 107.557L180.706 113.853L180.907 111.732L172.007 105.437L171.806 107.557ZM165.239 111.08L160.561 107.772L160.36 109.893L165.038 113.201L165.239 111.08ZM173.411 113.907L180.873 119.189L181.074 117.068L173.611 111.787L173.411 113.907ZM167.542 123.163L164.039 120.682L163.838 122.803L167.341 125.284L167.542 123.163ZM171.336 120.617L161.62 113.747L161.419 115.868L171.135 122.737L171.336 120.617ZM174.902 130.632L183.801 136.928L184.002 134.807L175.103 128.512L174.902 130.632ZM196.449 140.662L204.314 146.236L204.515 144.115L196.65 138.541L196.449 140.662ZM196.845 146.158L205.124 152.014L205.325 149.893L197.046 144.037L196.845 146.158ZM175.459 120.588L181.758 125.043L181.959 122.923L175.66 118.467L175.459 120.588ZM185.07 132.606L191.183 136.94L191.384 134.819L185.271 130.485L185.07 132.606ZM176.171 126.311L183.634 131.592L183.835 129.471L176.372 124.19L176.171 126.311ZM182.309 120.214L188.422 124.548L188.623 122.427L182.509 118.094L182.309 120.214ZM185.439 135.821L185.238 137.942L187.577 139.596L187.778 137.475L185.439 135.821ZM160.944 97.6075L160.743 99.7282L164.246 102.209L164.446 100.088L160.944 97.6075ZM174.225 117.442L166.675 112.094L166.475 114.215L174.024 119.563L174.225 117.442ZM189.012 140.622L195.398 145.143L195.599 143.022L189.213 138.501L189.012 140.622ZM192.855 125.416L190.07 123.442L189.87 125.563L192.654 127.537L192.855 125.416ZM192.832 135.834L192.631 137.955L195.014 139.636L195.215 137.515L192.832 135.834ZM174.936 123.164L172.783 121.632L172.582 123.753L174.736 125.285L174.936 123.164ZM183.194 126.057L189.58 130.578L189.781 128.458L183.395 123.937L183.194 126.057ZM208.728 136.647L208.527 138.767L210.42 140.102L210.621 137.981L208.728 136.647ZM203.842 140.675L209.955 145.008L210.156 142.887L204.043 138.554L203.842 140.675ZM206.548 153.038L209.018 154.785L209.219 152.664L206.749 150.917L206.548 153.038ZM209.596 147.704L205.951 145.129L205.75 147.25L209.395 149.824L209.596 147.704ZM210.943 132.992L200.467 125.577L200.266 127.697L210.742 135.113L210.943 132.992ZM158.658 103.476L168.373 110.346L168.574 108.225L158.859 101.355L158.658 103.476ZM168.778 126.298L173.456 129.606L173.657 127.485L168.978 124.177L168.778 126.298ZM193.358 173.286L201.223 178.86L201.424 176.739L193.559 171.165L193.358 173.286ZM192.509 175.635L186.123 171.114L185.922 173.235L192.308 177.756L192.509 175.635ZM184.241 142.463L190.354 146.796L190.555 144.676L184.441 140.342L184.241 142.463ZM168.251 145.088L177.15 151.384L177.351 149.263L168.452 142.967L168.251 145.088ZM190.535 166.081L196.648 170.415L196.849 168.294L190.736 163.961L190.535 166.081ZM184.971 156.93L191.357 161.452L191.558 159.331L185.172 154.81L184.971 156.93ZM173.612 140.087L179.911 144.542L180.112 142.422L173.813 137.966L173.612 140.087ZM173.081 158.923L180.544 164.205L180.745 162.084L173.282 156.803L173.081 158.923ZM178.597 152.41L183.548 155.906L183.748 153.785L178.798 150.29L178.597 152.41ZM177.518 154.61L170.055 149.329L169.854 151.449L177.317 156.731L177.518 154.61ZM186.314 163.094L189.099 165.067L189.3 162.947L186.515 160.973L186.314 163.094ZM189.54 170.579L191.923 172.261L192.124 170.14L189.741 168.459L189.54 170.579ZM160.591 125.713L170.306 132.583L170.507 130.462L160.792 123.592L160.591 125.713ZM203.686 153.96L196.223 148.678L196.023 150.799L203.485 156.081L203.686 153.96ZM184.486 172.22L184.687 170.1L182.348 168.446L182.147 170.566L184.486 172.22ZM168.62 148.303L166.467 146.771L166.266 148.892L168.419 150.424L168.62 148.303ZM174.096 133.02L171.942 131.487L171.742 133.608L173.895 135.141L174.096 133.02ZM192.805 162.467L195.535 164.4L195.736 162.28L193.006 160.346L192.805 162.467ZM167.016 141.953L162.338 138.645L162.137 140.766L166.815 144.074L167.016 141.953ZM182.995 139.316L175.532 134.034L175.331 136.155L182.794 141.436L182.995 139.316ZM180.912 167.432L172.013 161.136L171.812 163.257L180.711 169.552L180.912 167.432ZM185.079 159.959L178.966 155.626L178.765 157.746L184.878 162.08L185.079 159.959ZM188.295 167.432L182.181 163.098L181.98 165.219L188.094 169.553L188.295 167.432ZM171.846 155.789L169.693 154.256L169.492 156.377L171.645 157.909L171.846 155.789ZM164.626 133.726L172.176 139.073L172.377 136.952L164.827 131.605L164.626 133.726ZM165.687 158.922L170.365 162.23L170.566 160.109L165.888 156.801L165.687 158.922ZM194.776 147.663L191.991 145.69L191.79 147.81L194.575 149.784L194.776 147.663ZM155.952 134.124L152.569 131.724L152.368 133.845L155.751 136.245L155.952 134.124ZM157.266 126.256L153.338 123.481L153.138 125.602L157.065 128.377L157.266 126.256ZM153.867 137.872L152.105 136.619L151.905 138.74L153.666 139.993L153.867 137.872ZM157.187 137.259L160.69 139.739L160.891 137.619L157.388 135.138L157.187 137.259ZM157.095 145.346L151.644 141.491L151.443 143.612L156.894 147.467L157.095 145.346ZM202.671 179.875L206.316 182.45L206.517 180.329L202.872 177.754L202.671 179.875ZM198.096 171.43L203.84 175.498L204.041 173.377L198.297 169.309L198.096 171.43ZM207.386 170.534L196.91 163.119L196.709 165.239L207.186 172.655L207.386 170.534ZM159.344 122.577L153.807 118.656L153.606 120.777L159.143 124.698L159.344 122.577ZM204.971 176.298L206.865 177.633L207.066 175.512L205.172 174.177L204.971 176.298ZM163.392 130.579L158.714 127.271L158.513 129.392L163.191 132.7L163.392 130.579ZM204.922 157.095L208.567 159.67L208.767 157.549L205.123 154.974L204.922 157.095ZM164.453 155.776L160.95 153.295L160.749 155.416L164.252 157.897L164.453 155.776ZM155.103 141.007L164.818 147.876L165.019 145.756L155.304 138.886L155.103 141.007ZM168.245 153.241L158.53 146.371L158.329 148.492L168.044 155.362L168.245 153.241ZM159.514 152.281L151.18 146.386L150.979 148.507L159.313 154.402L159.514 152.281ZM151.233 165.682L149.471 164.429L149.27 166.55L151.032 167.803L151.233 165.682ZM162.587 191.65L167.265 194.958L167.466 192.837L162.788 189.529L162.587 191.65ZM147.879 181.234L156.212 187.13L156.413 185.009L148.08 179.113L147.879 181.234ZM153.993 178.085L148.543 174.23L148.342 176.351L153.792 180.206L153.993 178.085ZM166.379 189.115L168.532 190.647L168.733 188.527L166.58 186.994L166.379 189.115ZM152.922 172.109L148.995 169.334L148.794 171.455L152.722 174.23L152.922 172.109ZM157.649 188.144L161.152 190.624L161.352 188.503L157.85 186.023L157.649 188.144ZM199.571 212.603L203.215 215.177L203.416 213.057L199.771 210.482L199.571 212.603ZM146.448 194.99L153.822 200.228L154.023 198.107L146.649 192.869L146.448 194.99ZM202.336 204.119L204.229 205.454L204.43 203.333L202.537 201.999L202.336 204.119ZM190.258 206.014L198.123 211.588L198.324 209.467L190.459 203.893L190.258 206.014ZM188.823 204.988L189.024 202.868L186.641 201.186L186.44 203.307L188.823 204.988ZM201.512 193.089L205.157 195.664L205.358 193.544L201.713 190.969L201.512 193.089ZM196.275 202.786L185.038 194.825L184.837 196.946L196.074 204.907L196.275 202.786ZM182.821 205.974L189.207 210.495L189.408 208.374L183.022 203.853L182.821 205.974ZM164.381 169.763L159.703 166.455L159.502 168.576L164.181 171.884L164.381 169.763ZM179.047 203.294L181.386 204.948L181.587 202.827L179.248 201.173L179.047 203.294ZM174.716 177.084L165.817 170.789L165.616 172.909L174.515 179.205L174.716 177.084ZM168.713 195.973L177.612 202.269L177.813 200.148L168.913 193.852L168.713 195.973ZM185.193 200.171L179.08 195.837L178.879 197.958L184.992 202.292L185.193 200.171ZM175.768 188.275L169.469 183.819L169.268 185.94L175.567 190.395L175.768 188.275ZM165.984 176.125L163.831 174.592L163.63 176.713L165.783 178.245L165.984 176.125ZM197.652 206.015L203.766 210.349L203.967 208.228L197.853 203.894L197.652 206.015ZM181.101 181.606L176.151 178.11L175.95 180.231L180.901 183.726L181.101 181.606ZM179.585 175.31L172.122 170.029L171.921 172.149L179.384 177.431L179.585 175.31ZM174.883 182.42L167.421 177.139L167.22 179.259L174.683 184.541L174.883 182.42ZM190.17 190.277L192.901 192.21L193.102 190.09L190.371 188.156L190.17 190.277ZM168.034 182.794L160.485 177.446L160.284 179.567L167.833 184.915L168.034 182.794ZM200.277 189.955L192.814 184.673L192.613 186.794L200.076 192.075L200.277 189.955ZM154.552 165.08L158.055 167.561L158.256 165.44L154.753 162.96L154.552 165.08ZM165.145 185.969L155.429 179.099L155.228 181.22L164.944 188.089L165.145 185.969ZM157.181 161.708L166.897 168.577L167.098 166.457L157.382 159.587L157.181 161.708ZM194.215 196.104L188.102 191.771L187.901 193.891L194.014 198.225L194.215 196.104ZM152.468 168.817L162.184 175.686L162.384 173.566L152.669 166.696L152.468 168.817ZM159.048 176.432L154.37 173.124L154.169 175.245L158.847 178.553L159.048 176.432ZM153.318 161.934L149.935 159.534L149.734 161.655L153.117 164.055L153.318 161.934ZM201.405 201.198L195.662 197.131L195.461 199.251L201.205 203.319L201.405 201.198ZM204.752 198.344L194.276 190.929L194.075 193.049L204.551 200.465L204.752 198.344ZM170.686 169.015L168.533 167.482L168.332 169.603L170.485 171.135L170.686 169.015ZM155.934 158.572L150.397 154.651L150.196 156.772L155.734 160.692L155.934 158.572ZM188.923 187.141L182.538 182.62L182.337 184.74L188.722 189.261L188.923 187.141ZM191.166 185.767L191.367 183.646L188.582 181.673L188.381 183.794L191.166 185.767ZM186.664 190.768L183.88 188.794L183.679 190.915L186.463 192.889L186.664 190.768ZM187.146 180.659L181.033 176.325L180.832 178.446L186.945 182.78L187.146 180.659ZM182.444 187.769L176.331 183.435L176.13 185.556L182.244 189.89L182.444 187.769ZM183.59 193.81L177.205 189.289L177.004 191.409L183.389 195.93L183.59 193.81ZM169.98 191.663L177.443 196.944L177.644 194.823L170.181 189.542L169.98 191.663Z" fill="#28498B"/>
<path d="M171.729 206.041C171.547 205.018 171.03 204.102 170.288 203.361L169.891 203.879C170.566 204.59 170.951 205.436 171.08 206.153C171.306 207.447 170.986 208.735 170.588 209.993C170.247 209.186 170.154 208.333 170.301 207.514C170.464 207.264 170.561 206.972 170.534 206.646C170.525 206.494 170.409 206.368 170.248 206.353C170.065 206.324 169.952 206.417 169.892 206.562C169.801 206.785 169.732 207.021 169.676 207.247C169.399 207.603 168.87 207.912 168.342 208.221C168.17 208.32 167.998 208.419 167.836 208.532C167.108 208.995 166.495 209.585 166.035 210.27C165.801 209.925 165.567 209.579 165.341 209.268C164.87 208.6 164.375 207.94 163.87 207.268C162.841 205.876 161.78 204.458 160.895 203.01C160.855 202.335 160.772 201.622 160.645 200.87C160.548 200.306 160.269 198.591 158.649 198.045C158.537 198.011 158.418 198.035 158.33 198.108C158.242 198.18 158.207 198.304 158.231 198.422C158.584 200.086 159.339 201.672 160.261 203.216C160.343 204.797 160.191 206.159 159.794 207.405C159.38 208.719 158.655 209.877 157.704 210.84L158.005 211.47C159.115 210.406 159.937 209.084 160.414 207.602C160.742 206.592 160.915 205.498 160.926 204.285C161.688 205.432 162.51 206.55 163.334 207.657C163.829 208.317 164.324 208.976 164.794 209.645C165.082 210.042 165.367 210.462 165.661 210.906C165.204 211.811 164.979 212.843 164.991 213.943C165.021 215.946 165.8 217.893 166.551 219.768C166.917 220.693 167.527 221.236 168.229 221.302C168.298 221.308 168.378 221.316 168.448 221.311C168.589 221.301 168.701 221.219 168.747 221.096C169.977 217.546 168.278 213.801 166.429 210.886C166.858 210.163 167.449 209.559 168.179 209.084C168.339 208.984 168.5 208.883 168.671 208.795C168.966 208.615 169.273 208.435 169.56 208.231C169.551 209.178 169.82 210.141 170.364 211.013C170.435 211.124 170.557 211.181 170.686 211.17C170.815 211.159 170.916 211.065 170.962 210.953C171.464 209.451 172.032 207.746 171.729 206.041ZM159.059 198.986C159.556 199.38 159.866 200.033 160.02 200.973C160.06 201.173 160.086 201.384 160.115 201.572C159.672 200.732 159.313 199.866 159.059 198.986ZM168.233 220.643C167.675 220.533 167.349 219.924 167.19 219.527C166.457 217.7 165.707 215.814 165.677 213.926C165.664 213.081 165.81 212.273 166.11 211.561C167.76 214.238 169.176 217.551 168.233 220.643Z" fill="#427AE8"/>
<path d="M156.899 204.994L146.331 197.57L146.13 199.69L156.698 207.114L156.899 204.994Z" fill="#427AE8"/>
<path d="M201.424 112.159L172.228 91.348L171.97 94.0648L201.168 114.864L201.424 112.159Z" fill="#427AE8"/>
<path d="M194.96 113.008L177.736 100.598L177.479 103.314L194.703 115.713L194.96 113.008Z" fill="#427AE8"/>
<path d="M219.589 114.884L145.892 62.7687C145.185 62.2627 144.202 62.7139 144.12 63.5851L130.905 203.081C130.827 203.907 131.203 204.717 131.877 205.197L205.574 257.313C206.281 257.818 207.264 257.367 207.346 256.496L220.561 117C220.639 116.174 220.275 115.365 219.589 114.884Z" fill="url(#paint3_linear_814_1245)"/>
<path d="M219.59 114.885L145.893 62.7689C145.337 62.3813 144.623 62.5686 144.296 63.0814C144.633 62.9512 145.027 62.9651 145.364 63.205L219.061 115.321C219.746 115.802 220.111 116.611 220.033 117.436L206.818 256.932C206.8 257.127 206.738 257.283 206.644 257.425C207.018 257.275 207.305 256.943 207.347 256.496L220.562 117C220.64 116.175 220.275 115.366 219.59 114.885Z" fill="white"/>
<path d="M178.593 115.702L183.543 119.197L183.744 117.077L178.794 113.581L178.593 115.702ZM191.555 122.611L185.169 118.09L184.968 120.21L191.354 124.731L191.555 122.611ZM187.468 132.416L198.705 140.377L198.906 138.256L187.669 130.295L187.468 132.416ZM190.732 127.252L190.531 129.373L196.644 133.706L196.845 131.586L190.732 127.252ZM204.037 136.668L198.293 132.601L198.092 134.721L203.836 138.789L204.037 136.668ZM159.045 120.479L150.711 114.583L150.51 116.704L158.844 122.6L159.045 120.479ZM155.554 107.579L151.626 104.804L151.425 106.925L155.353 109.7L155.554 107.579ZM156.624 113.555L151.174 109.7L150.973 111.821L156.423 115.676L156.624 113.555ZM153.864 101.152L152.102 99.899L151.901 102.02L153.663 103.273L153.864 101.152ZM155.949 97.4041L152.566 95.0042L152.365 97.1249L155.748 99.5248L155.949 97.4041ZM195.732 125.571L193.001 123.637L192.8 125.758L195.531 127.692L195.732 125.571ZM162.134 104.046L166.812 107.354L167.013 105.233L162.335 101.925L162.134 104.046ZM166.25 112.182L168.403 113.714L168.604 111.594L166.451 110.061L166.25 112.182ZM168.247 108.38L177.146 114.675L177.347 112.554L168.448 106.259L168.247 108.38ZM161.68 111.902L157.001 108.594L156.801 110.715L161.479 114.023L161.68 111.902ZM169.851 114.729L177.314 120.011L177.515 117.89L170.052 112.609L169.851 114.729ZM163.983 123.985L160.48 121.504L160.279 123.625L163.782 126.106L163.983 123.985ZM167.776 121.439L158.061 114.569L157.86 116.69L167.575 123.559L167.776 121.439ZM171.343 131.454L180.242 137.75L180.443 135.629L171.544 129.334L171.343 131.454ZM192.889 141.484L200.754 147.058L200.955 144.937L193.09 139.363L192.889 141.484ZM193.286 146.98L201.565 152.836L201.766 150.715L193.487 144.859L193.286 146.98ZM171.9 121.41L178.199 125.865L178.4 123.745L172.1 119.289L171.9 121.41ZM181.51 133.428L187.624 137.762L187.824 135.641L181.711 131.308L181.51 133.428ZM172.611 127.133L180.074 132.414L180.275 130.293L172.812 125.012L172.611 127.133ZM178.749 121.036L184.862 125.37L185.063 123.249L178.95 118.916L178.749 121.036ZM181.879 136.643L181.678 138.764L184.017 140.418L184.218 138.297L181.879 136.643ZM157.384 98.4296L157.183 100.55L160.686 103.031L160.887 100.91L157.384 98.4296ZM170.665 118.264L163.116 112.916L162.915 115.037L170.464 120.385L170.665 118.264ZM185.452 141.444L191.838 145.965L192.039 143.844L185.653 139.323L185.452 141.444ZM189.296 126.238L186.511 124.264L186.31 126.385L189.095 128.359L189.296 126.238ZM189.272 136.656L189.071 138.777L191.454 140.458L191.655 138.338L189.272 136.656ZM171.377 123.986L169.224 122.454L169.023 124.575L171.176 126.107L171.377 123.986ZM179.635 126.879L186.021 131.4L186.222 129.28L179.836 124.759L179.635 126.879ZM205.168 137.469L204.967 139.589L206.861 140.924L207.062 138.803L205.168 137.469ZM200.283 141.497L206.396 145.83L206.597 143.709L200.483 139.376L200.283 141.497ZM202.989 153.86L205.458 155.607L205.659 153.487L203.189 151.739L202.989 153.86ZM206.036 148.526L202.391 145.951L202.19 148.072L205.835 150.646L206.036 148.526ZM207.383 133.814L196.907 126.399L196.706 128.519L207.182 135.935L207.383 133.814ZM155.098 104.298L164.814 111.168L165.015 109.047L155.299 102.177L155.098 104.298ZM165.218 127.12L169.896 130.428L170.097 128.307L165.419 124.999L165.218 127.12ZM189.799 174.108L197.664 179.682L197.864 177.561L190 171.987L189.799 174.108ZM188.949 176.457L182.564 171.936L182.363 174.057L188.749 178.578L188.949 176.457ZM180.681 143.285L186.794 147.618L186.995 145.498L180.882 141.164L180.681 143.285ZM164.692 145.91L173.591 152.206L173.792 150.085L164.893 143.789L164.692 145.91ZM186.976 166.903L193.089 171.237L193.29 169.116L187.177 164.783L186.976 166.903ZM181.412 157.752L187.797 162.274L187.998 160.153L181.612 155.632L181.412 157.752ZM170.052 140.909L176.352 145.364L176.552 143.244L170.253 138.788L170.052 140.909ZM169.522 159.746L176.985 165.027L177.185 162.906L169.723 157.625L169.522 159.746ZM175.037 153.232L179.988 156.728L180.189 154.607L175.238 151.112L175.037 153.232ZM173.958 155.432L166.495 150.151L166.295 152.272L173.757 157.553L173.958 155.432ZM182.755 163.916L185.539 165.889L185.74 163.769L182.956 161.795L182.755 163.916ZM185.981 171.401L188.364 173.083L188.565 170.962L186.182 169.281L185.981 171.401ZM157.032 126.535L166.747 133.405L166.948 131.284L157.232 124.414L157.032 126.535ZM200.127 154.782L192.664 149.5L192.463 151.621L199.926 156.903L200.127 154.782ZM180.927 173.043L181.128 170.922L178.788 169.268L178.588 171.388L180.927 173.043ZM165.06 149.125L162.907 147.593L162.706 149.714L164.859 151.246L165.06 149.125ZM170.536 133.842L168.383 132.309L168.182 134.43L170.335 135.963L170.536 133.842ZM189.245 163.289L191.976 165.222L192.176 163.102L189.446 161.168L189.245 163.289ZM163.456 142.775L158.778 139.467L158.577 141.588L163.255 144.896L163.456 142.775ZM179.435 140.138L171.972 134.856L171.771 136.977L179.234 142.258L179.435 140.138ZM177.352 168.254L168.453 161.958L168.252 164.079L177.151 170.374L177.352 168.254ZM181.519 160.781L175.406 156.448L175.205 158.568L181.318 162.902L181.519 160.781ZM184.735 168.254L178.622 163.92L178.421 166.041L184.534 170.375L184.735 168.254ZM168.286 156.611L166.133 155.078L165.932 157.199L168.085 158.731L168.286 156.611ZM161.067 134.548L168.616 139.895L168.817 137.774L161.268 132.427L161.067 134.548ZM162.127 159.744L166.806 163.052L167.006 160.932L162.328 157.623L162.127 159.744ZM191.216 148.485L188.431 146.512L188.231 148.632L191.015 150.606L191.216 148.485ZM152.392 134.946L149.01 132.546L148.809 134.667L152.192 137.067L152.392 134.946ZM153.707 127.078L149.779 124.303L149.578 126.424L153.506 129.199L153.707 127.078ZM150.308 138.694L148.546 137.441L148.345 139.562L150.107 140.815L150.308 138.694ZM153.628 138.081L157.131 140.561L157.332 138.441L153.829 135.96L153.628 138.081ZM153.535 146.168L148.084 142.313L147.884 144.434L153.334 148.289L153.535 146.168ZM199.111 180.697L202.756 183.272L202.957 181.151L199.312 178.576L199.111 180.697ZM194.537 172.252L200.28 176.32L200.481 174.199L194.738 170.131L194.537 172.252ZM203.827 171.356L193.351 163.941L193.15 166.061L203.626 173.477L203.827 171.356ZM155.785 123.399L150.248 119.478L150.047 121.599L155.584 125.52L155.785 123.399ZM201.412 177.12L203.305 178.455L203.506 176.334L201.613 174.999L201.412 177.12ZM159.832 131.401L155.154 128.093L154.953 130.214L159.632 133.522L159.832 131.401ZM201.362 157.917L205.007 160.492L205.208 158.371L201.563 155.796L201.362 157.917ZM160.893 156.598L157.39 154.117L157.189 156.238L160.692 158.719L160.893 156.598ZM151.543 141.829L161.258 148.698L161.459 146.578L151.744 139.708L151.543 141.829ZM164.685 154.063L154.97 147.193L154.769 149.314L164.485 156.184L164.685 154.063ZM155.954 153.103L147.621 147.208L147.42 149.329L155.753 155.224L155.954 153.103ZM147.673 166.504L145.911 165.251L145.711 167.372L147.472 168.625L147.673 166.504ZM159.027 192.472L163.705 195.78L163.906 193.659L159.228 190.351L159.027 192.472ZM144.32 182.056L152.653 187.952L152.854 185.831L144.52 179.935L144.32 182.056ZM150.434 178.907L144.983 175.052L144.782 177.173L150.233 181.028L150.434 178.907ZM162.819 189.937L164.973 191.469L165.174 189.349L163.02 187.816L162.819 189.937ZM149.363 172.931L145.435 170.156L145.234 172.277L149.162 175.052L149.363 172.931ZM154.089 188.966L157.592 191.446L157.793 189.326L154.29 186.845L154.089 188.966ZM196.011 213.425L199.656 216L199.857 213.879L196.212 211.304L196.011 213.425ZM142.889 195.812L150.263 201.05L150.464 198.93L143.09 193.691L142.889 195.812ZM198.776 204.941L200.67 206.276L200.871 204.155L198.977 202.821L198.776 204.941ZM186.699 206.836L194.563 212.41L194.764 210.289L186.899 204.715L186.699 206.836ZM185.263 205.81L185.464 203.69L183.081 202.008L182.88 204.129L185.263 205.81ZM197.952 193.911L201.597 196.486L201.798 194.366L198.153 191.791L197.952 193.911ZM192.716 203.608L181.478 195.647L181.278 197.768L192.515 205.729L192.716 203.608ZM179.261 206.796L185.647 211.317L185.848 209.196L179.462 204.675L179.261 206.796ZM160.822 170.585L156.144 167.277L155.943 169.398L160.621 172.706L160.822 170.585ZM175.487 204.116L177.826 205.77L178.027 203.649L175.688 201.995L175.487 204.116ZM171.156 177.906L162.257 171.611L162.056 173.731L170.955 180.027L171.156 177.906ZM165.153 196.795L174.052 203.091L174.253 200.97L165.354 194.674L165.153 196.795ZM181.634 200.993L175.52 196.659L175.319 198.78L181.433 203.114L181.634 200.993ZM172.209 189.097L165.91 184.641L165.709 186.762L172.008 191.217L172.209 189.097ZM162.425 176.947L160.272 175.414L160.071 177.535L162.224 179.067L162.425 176.947ZM194.093 206.837L200.206 211.171L200.407 209.05L194.294 204.716L194.093 206.837ZM177.542 182.428L172.591 178.932L172.39 181.053L177.341 184.548L177.542 182.428ZM176.025 176.132L168.563 170.851L168.362 172.971L175.825 178.253L176.025 176.132ZM171.324 183.242L163.861 177.961L163.66 180.081L171.123 185.363L171.324 183.242ZM186.611 191.099L189.341 193.032L189.542 190.912L186.811 188.978L186.611 191.099ZM164.474 183.616L156.925 178.268L156.724 180.389L164.274 185.737L164.474 183.616ZM196.717 190.777L189.254 185.495L189.053 187.616L196.516 192.897L196.717 190.777ZM150.992 165.902L154.495 168.383L154.696 166.262L151.193 163.782L150.992 165.902ZM161.585 186.791L151.87 179.921L151.669 182.042L161.384 188.911L161.585 186.791ZM153.622 162.53L163.337 169.399L163.538 167.279L153.823 160.409L153.622 162.53ZM190.655 196.926L184.542 192.593L184.341 194.713L190.454 199.047L190.655 196.926ZM148.909 169.639L158.624 176.508L158.825 174.388L149.11 167.518L148.909 169.639ZM155.489 177.254L150.811 173.946L150.61 176.067L155.288 179.375L155.489 177.254ZM149.758 162.756L146.375 160.356L146.174 162.477L149.557 164.877L149.758 162.756ZM197.846 202.02L192.102 197.953L191.901 200.073L197.645 204.141L197.846 202.02ZM201.192 199.166L190.716 191.751L190.515 193.871L200.991 201.287L201.192 199.166ZM167.126 169.837L164.973 168.304L164.772 170.425L166.925 171.957L167.126 169.837ZM152.375 159.394L146.838 155.473L146.637 157.594L152.174 161.514L152.375 159.394ZM185.364 187.963L178.978 183.442L178.777 185.562L185.163 190.083L185.364 187.963ZM187.607 186.589L187.807 184.468L185.023 182.495L184.822 184.616L187.607 186.589ZM183.105 191.59L180.32 189.616L180.119 191.737L182.904 193.711L183.105 191.59ZM183.587 181.481L177.473 177.147L177.272 179.268L183.386 183.602L183.587 181.481ZM178.885 188.591L172.772 184.257L172.571 186.378L178.684 190.712L178.885 188.591ZM180.031 194.632L173.645 190.111L173.444 192.231L179.83 196.752L180.031 194.632ZM166.42 192.485L173.883 197.766L174.084 195.645L166.621 190.364L166.42 192.485Z" fill="#28498B"/>
<path d="M168.169 206.863C167.988 205.84 167.471 204.924 166.728 204.183L166.331 204.701C167.007 205.412 167.391 206.258 167.52 206.975C167.746 208.269 167.427 209.557 167.029 210.815C166.687 210.008 166.594 209.155 166.741 208.336C166.904 208.086 167.002 207.794 166.975 207.468C166.966 207.316 166.85 207.19 166.689 207.175C166.506 207.146 166.393 207.239 166.332 207.384C166.242 207.607 166.173 207.843 166.117 208.069C165.839 208.425 165.311 208.734 164.782 209.043C164.61 209.142 164.438 209.242 164.277 209.354C163.548 209.817 162.935 210.407 162.475 211.092C162.241 210.747 162.007 210.401 161.781 210.09C161.31 209.422 160.816 208.762 160.311 208.09C159.282 206.698 158.22 205.28 157.336 203.832C157.295 203.157 157.212 202.444 157.086 201.692C156.988 201.128 156.71 199.413 155.09 198.867C154.977 198.834 154.859 198.857 154.771 198.93C154.682 199.002 154.647 199.126 154.671 199.244C155.024 200.908 155.779 202.494 156.701 204.038C156.784 205.619 156.631 206.981 156.235 208.227C155.82 209.541 155.095 210.699 154.145 211.662L154.445 212.292C155.556 211.228 156.377 209.906 156.854 208.424C157.182 207.414 157.356 206.32 157.366 205.107C158.128 206.254 158.951 207.372 159.774 208.479C160.269 209.139 160.764 209.798 161.235 210.467C161.522 210.864 161.807 211.284 162.102 211.728C161.645 212.633 161.419 213.665 161.431 214.765C161.462 216.768 162.241 218.715 162.992 220.59C163.357 221.515 163.967 222.058 164.669 222.124C164.738 222.13 164.819 222.138 164.889 222.133C165.029 222.123 165.141 222.041 165.188 221.918C166.418 218.368 164.718 214.623 162.87 211.708C163.298 210.985 163.889 210.381 164.619 209.906C164.78 209.806 164.94 209.705 165.111 209.617C165.407 209.437 165.714 209.257 166 209.053C165.992 210 166.26 210.963 166.805 211.835C166.875 211.946 166.998 212.003 167.126 211.992C167.255 211.981 167.357 211.887 167.402 211.775C167.904 210.273 168.472 208.568 168.169 206.863ZM155.5 199.808C155.997 200.202 156.306 200.855 156.461 201.795C156.5 201.995 156.526 202.206 156.555 202.394C156.112 201.554 155.753 200.688 155.5 199.808ZM164.673 221.465C164.115 221.355 163.79 220.746 163.63 220.349C162.898 218.522 162.148 216.636 162.117 214.748C162.105 213.903 162.251 213.095 162.55 212.383C164.201 215.06 165.616 218.373 164.673 221.465Z" fill="#427AE8"/>
<path d="M153.34 205.816L142.771 198.392L142.571 200.512L153.139 207.936L153.34 205.816Z" fill="#427AE8"/>
<path d="M197.865 112.981L168.668 92.17L168.411 94.8868L197.608 115.686L197.865 112.981Z" fill="#427AE8"/>
<path d="M191.4 113.83L174.177 101.42L173.919 104.136L191.144 116.535L191.4 113.83Z" fill="#427AE8"/>
<path d="M216.028 115.706L142.331 63.5904C141.625 63.0845 140.642 63.5357 140.559 64.4069L127.345 203.903C127.266 204.729 127.642 205.539 128.317 206.018L202.013 258.134C202.72 258.64 203.703 258.189 203.786 257.318L217 117.822C217.078 116.996 216.714 116.187 216.028 115.706Z" fill="url(#paint4_linear_814_1245)"/>
<path d="M216.029 115.707L142.332 63.5907C141.777 63.2031 141.063 63.3904 140.735 63.9032C141.073 63.773 141.466 63.7869 141.803 64.0267L215.5 116.143C216.186 116.623 216.55 117.433 216.472 118.258L203.258 257.754C203.239 257.949 203.178 258.105 203.083 258.247C203.457 258.097 203.744 257.765 203.786 257.318L217.001 117.822C217.079 116.997 216.715 116.187 216.029 115.707Z" fill="white"/>
<path d="M175.032 116.523L179.983 120.019L180.184 117.898L175.233 114.403L175.032 116.523ZM187.994 123.432L181.608 118.911L181.407 121.032L187.793 125.553L187.994 123.432ZM183.908 133.237L195.145 141.198L195.346 139.078L184.109 131.117L183.908 133.237ZM187.171 128.074L186.97 130.194L193.084 134.528L193.285 132.407L187.171 128.074ZM200.476 137.49L194.732 133.422L194.531 135.543L200.275 139.611L200.476 137.49ZM155.484 121.301L147.151 115.405L146.95 117.526L155.283 123.421L155.484 121.301ZM151.993 108.401L148.066 105.626L147.865 107.747L151.792 110.522L151.993 108.401ZM153.064 114.377L147.613 110.522L147.412 112.642L152.863 116.497L153.064 114.377ZM150.304 101.973L148.542 100.721L148.341 102.841L150.103 104.094L150.304 101.973ZM152.388 98.2257L149.005 95.8259L148.805 97.9466L152.187 100.346L152.388 98.2257ZM192.171 126.393L189.441 124.459L189.24 126.58L191.97 128.513L192.171 126.393ZM158.573 104.868L163.251 108.176L163.452 106.055L158.774 102.747L158.573 104.868ZM162.689 113.003L164.843 114.536L165.044 112.415L162.89 110.883L162.689 113.003ZM164.686 109.201L173.586 115.497L173.786 113.376L164.887 107.08L164.686 109.201ZM158.119 112.724L153.441 109.416L153.24 111.537L157.918 114.845L158.119 112.724ZM166.29 115.551L173.753 120.833L173.954 118.712L166.491 113.43L166.29 115.551ZM160.422 124.807L156.919 122.326L156.718 124.447L160.221 126.927L160.422 124.807ZM164.215 122.26L154.5 115.391L154.299 117.511L164.015 124.381L164.215 122.26ZM167.782 132.276L176.681 138.572L176.882 136.451L167.983 130.155L167.782 132.276ZM189.329 142.305L197.194 147.879L197.394 145.759L189.53 140.185L189.329 142.305ZM189.725 147.801L198.004 153.657L198.205 151.536L189.926 145.681L189.725 147.801ZM168.339 122.232L174.638 126.687L174.839 124.566L168.54 120.111L168.339 122.232ZM177.95 134.25L184.063 138.583L184.264 136.463L178.151 132.129L177.95 134.25ZM169.051 127.954L176.514 133.236L176.714 131.115L169.252 125.834L169.051 127.954ZM175.188 121.858L181.302 126.192L181.503 124.071L175.389 119.737L175.188 121.858ZM178.318 137.465L178.118 139.586L180.457 141.24L180.658 139.119L178.318 137.465ZM153.823 99.2512L153.623 101.372L157.125 103.852L157.326 101.732L153.823 99.2512ZM167.105 119.086L159.555 113.738L159.354 115.859L166.904 121.206L167.105 119.086ZM181.892 142.265L188.277 146.786L188.478 144.666L182.093 140.145L181.892 142.265ZM185.735 127.06L182.95 125.086L182.749 127.207L185.534 129.18L185.735 127.06ZM185.712 137.478L185.511 139.599L187.894 141.28L188.095 139.159L185.712 137.478ZM167.816 124.808L165.663 123.276L165.462 125.396L167.615 126.929L167.816 124.808ZM176.074 127.701L182.46 132.222L182.661 130.101L176.275 125.58L176.074 127.701ZM201.608 138.29L201.407 140.411L203.3 141.746L203.501 139.625L201.608 138.29ZM196.722 142.318L202.835 146.652L203.036 144.531L196.923 140.197L196.722 142.318ZM199.428 154.682L201.897 156.429L202.098 154.308L199.629 152.561L199.428 154.682ZM202.475 149.347L198.831 146.773L198.63 148.893L202.275 151.468L202.475 149.347ZM203.823 134.636L193.346 127.22L193.146 129.341L203.622 136.756L203.823 134.636ZM151.538 105.12L161.253 111.989L161.454 109.869L151.739 102.999L151.538 105.12ZM161.657 127.941L166.336 131.249L166.536 129.129L161.858 125.821L161.657 127.941ZM186.238 174.93L194.103 180.504L194.304 178.383L186.439 172.809L186.238 174.93ZM185.389 177.279L179.003 172.757L178.802 174.878L185.188 179.399L185.389 177.279ZM177.12 144.107L183.234 148.44L183.435 146.319L177.321 141.986L177.12 144.107ZM161.131 146.732L170.03 153.027L170.231 150.907L161.332 144.611L161.131 146.732ZM183.415 167.725L189.528 172.059L189.729 169.938L183.616 165.604L183.415 167.725ZM177.851 158.574L184.237 163.095L184.438 160.975L178.052 156.453L177.851 158.574ZM166.492 141.731L172.791 146.186L172.992 144.065L166.693 139.61L166.492 141.731ZM165.961 160.567L173.424 165.849L173.625 163.728L166.162 158.446L165.961 160.567ZM171.477 154.054L176.427 157.55L176.628 155.429L171.678 151.933L171.477 154.054ZM170.398 156.254L162.935 150.972L162.734 153.093L170.197 158.375L170.398 156.254ZM179.194 164.738L181.979 166.711L182.18 164.59L179.395 162.617L179.194 164.738ZM182.42 172.223L184.803 173.904L185.004 171.784L182.621 170.102L182.42 172.223ZM153.471 127.357L163.186 134.226L163.387 132.106L153.672 125.236L153.471 127.357ZM196.566 155.604L189.103 150.322L188.902 152.443L196.365 157.724L196.566 155.604ZM177.366 173.864L177.567 171.743L175.228 170.089L175.027 172.21L177.366 173.864ZM161.5 149.947L159.347 148.414L159.146 150.535L161.299 152.068L161.5 149.947ZM166.976 134.664L164.822 133.131L164.621 135.252L166.775 136.784L166.976 134.664ZM185.684 164.11L188.415 166.044L188.616 163.923L185.885 161.99L185.684 164.11ZM159.896 143.597L155.218 140.289L155.017 142.41L159.695 145.718L159.896 143.597ZM175.875 140.959L168.412 135.678L168.211 137.798L175.674 143.08L175.875 140.959ZM173.792 169.075L164.893 162.78L164.692 164.9L173.591 171.196L173.792 169.075ZM177.959 161.603L171.846 157.269L171.645 159.39L177.758 163.724L177.959 161.603ZM181.174 169.076L175.061 164.742L174.86 166.863L180.974 171.196L181.174 169.076ZM164.726 157.432L162.573 155.9L162.372 158.021L164.525 159.553L164.726 157.432ZM157.506 135.369L165.056 140.717L165.257 138.596L157.707 133.248L157.506 135.369ZM158.567 160.566L163.245 163.874L163.446 161.753L158.768 158.445L158.567 160.566ZM187.656 149.307L184.871 147.333L184.67 149.454L187.455 151.428L187.656 149.307ZM148.832 135.768L145.449 133.368L145.248 135.489L148.631 137.889L148.832 135.768ZM150.146 127.9L146.218 125.125L146.017 127.246L149.945 130.02L150.146 127.9ZM146.747 139.516L144.985 138.263L144.784 140.384L146.546 141.636L146.747 139.516ZM150.067 138.903L153.57 141.383L153.771 139.262L150.268 136.782L150.067 138.903ZM149.974 146.99L144.524 143.135L144.323 145.255L149.773 149.11L149.974 146.99ZM195.551 181.519L199.196 184.094L199.396 181.973L195.752 179.398L195.551 181.519ZM190.976 173.074L196.72 177.141L196.921 175.021L191.177 170.953L190.976 173.074ZM200.266 172.178L189.79 164.762L189.589 166.883L200.065 174.299L200.266 172.178ZM152.224 124.221L146.687 120.3L146.486 122.421L152.023 126.341L152.224 124.221ZM197.851 177.942L199.745 179.276L199.946 177.156L198.052 175.821L197.851 177.942ZM156.272 132.223L151.594 128.915L151.393 131.036L156.071 134.344L156.272 132.223ZM197.802 158.738L201.446 161.313L201.647 159.193L198.002 156.618L197.802 158.738ZM157.333 157.42L153.83 154.939L153.629 157.06L157.132 159.54L157.333 157.42ZM147.983 142.65L157.698 149.52L157.899 147.399L148.183 140.53L147.983 142.65ZM161.125 154.885L151.41 148.015L151.209 150.136L160.924 157.006L161.125 154.885ZM152.394 153.925L144.06 148.03L143.859 150.15L152.193 156.046L152.394 153.925ZM144.113 167.325L142.351 166.073L142.15 168.193L143.912 169.446L144.113 167.325ZM155.467 193.293L160.145 196.601L160.346 194.481L155.667 191.173L155.467 193.293ZM140.759 182.878L149.092 188.773L149.293 186.653L140.96 180.757L140.759 182.878ZM146.873 179.729L141.422 175.874L141.222 177.994L146.672 181.849L146.873 179.729ZM159.259 190.759L161.412 192.291L161.613 190.17L159.46 188.638L159.259 190.759ZM145.802 173.753L141.875 170.978L141.674 173.099L145.601 175.873L145.802 173.753ZM150.529 189.787L154.031 192.268L154.232 190.147L150.729 187.667L150.529 189.787ZM192.45 214.246L196.095 216.821L196.296 214.7L192.651 212.126L192.45 214.246ZM139.328 196.633L146.702 201.872L146.903 199.751L139.529 194.513L139.328 196.633ZM195.216 205.763L197.109 207.098L197.31 204.977L195.417 203.642L195.216 205.763ZM183.138 207.657L191.003 213.231L191.204 211.111L183.339 205.537L183.138 207.657ZM181.703 206.632L181.904 204.511L179.521 202.83L179.32 204.951L181.703 206.632ZM194.392 194.733L198.037 197.308L198.238 195.187L194.593 192.612L194.392 194.733ZM189.155 204.43L177.918 196.469L177.717 198.589L188.954 206.55L189.155 204.43ZM175.701 207.617L182.087 212.138L182.288 210.018L175.902 205.497L175.701 207.617ZM157.261 171.407L152.583 168.099L152.382 170.22L157.06 173.528L157.261 171.407ZM171.927 204.938L174.266 206.592L174.467 204.471L172.128 202.817L171.927 204.938ZM167.596 178.728L158.696 172.432L158.496 174.553L167.395 180.849L167.596 178.728ZM161.592 197.617L170.492 203.912L170.692 201.792L161.793 195.496L161.592 197.617ZM178.073 201.815L171.96 197.481L171.759 199.602L177.872 203.935L178.073 201.815ZM168.648 189.918L162.349 185.463L162.148 187.584L168.447 192.039L168.648 189.918ZM158.864 177.768L156.711 176.236L156.51 178.356L158.663 179.889L158.864 177.768ZM190.532 207.659L196.646 211.992L196.846 209.872L190.733 205.538L190.532 207.659ZM173.981 183.249L169.031 179.754L168.83 181.874L173.78 185.37L173.981 183.249ZM172.465 176.954L165.002 171.672L164.801 173.793L172.264 179.075L172.465 176.954ZM167.763 184.064L160.3 178.782L160.1 180.903L167.562 186.185L167.763 184.064ZM183.05 191.92L185.781 193.854L185.981 191.733L183.251 189.799L183.05 191.92ZM160.914 184.438L153.364 179.09L153.164 181.211L160.713 186.558L160.914 184.438ZM193.156 191.598L185.694 186.317L185.493 188.437L192.956 193.719L193.156 191.598ZM147.432 166.724L150.935 169.204L151.135 167.084L147.633 164.603L147.432 166.724ZM158.025 187.612L148.309 180.743L148.108 182.863L157.824 189.733L158.025 187.612ZM150.061 163.351L159.777 170.221L159.977 168.1L150.262 161.231L150.061 163.351ZM187.095 197.748L180.982 193.414L180.781 195.535L186.894 199.869L187.095 197.748ZM145.348 170.46L155.063 177.33L155.264 175.209L145.549 168.34L145.348 170.46ZM151.928 178.076L147.25 174.768L147.049 176.889L151.727 180.197L151.928 178.076ZM146.197 163.578L142.815 161.178L142.614 163.299L145.997 165.698L146.197 163.578ZM194.285 202.842L188.541 198.774L188.341 200.895L194.084 204.963L194.285 202.842ZM197.632 199.988L187.156 192.572L186.955 194.693L197.431 202.108L197.632 199.988ZM163.566 170.658L161.413 169.126L161.212 171.246L163.365 172.779L163.566 170.658ZM148.814 160.215L143.277 156.295L143.076 158.415L148.613 162.336L148.814 160.215ZM181.803 188.784L175.417 184.263L175.217 186.384L181.602 190.905L181.803 188.784ZM184.046 187.411L184.247 185.29L181.462 183.317L181.261 185.437L184.046 187.411ZM179.544 192.412L176.759 190.438L176.559 192.559L179.343 194.532L179.544 192.412ZM180.026 182.303L173.913 177.969L173.712 180.09L179.825 184.423L180.026 182.303ZM175.324 189.413L169.211 185.079L169.01 187.2L175.123 191.533L175.324 189.413ZM176.47 195.453L170.084 190.932L169.884 193.053L176.269 197.574L176.47 195.453ZM162.86 193.306L170.323 198.588L170.524 196.467L163.061 191.185L162.86 193.306Z" fill="#28498B"/>
<path d="M164.609 207.685C164.427 206.661 163.91 205.745 163.168 205.005L162.771 205.522C163.446 206.234 163.83 207.079 163.96 207.797C164.185 209.09 163.866 210.379 163.468 211.637C163.127 210.83 163.034 209.977 163.181 209.158C163.344 208.907 163.441 208.616 163.414 208.289C163.405 208.138 163.289 208.012 163.128 207.996C162.945 207.968 162.832 208.061 162.772 208.206C162.681 208.429 162.612 208.665 162.556 208.891C162.279 209.246 161.75 209.555 161.222 209.864C161.05 209.964 160.878 210.063 160.716 210.175C159.988 210.639 159.374 211.229 158.915 211.914C158.681 211.568 158.446 211.222 158.22 210.912C157.75 210.243 157.255 209.584 156.75 208.912C155.721 207.52 154.66 206.101 153.775 204.653C153.735 203.979 153.651 203.266 153.525 202.514C153.428 201.949 153.149 200.234 151.529 199.689C151.416 199.655 151.298 199.679 151.21 199.751C151.122 199.824 151.087 199.948 151.111 200.066C151.464 201.73 152.219 203.316 153.141 204.86C153.223 206.44 153.071 207.802 152.674 209.049C152.259 210.363 151.534 211.521 150.584 212.484L150.884 213.113C151.995 212.05 152.817 210.728 153.294 209.246C153.622 208.236 153.795 207.142 153.805 205.928C154.567 207.076 155.39 208.194 156.214 209.301C156.709 209.96 157.203 210.62 157.674 211.289C157.961 211.686 158.247 212.106 158.541 212.55C158.084 213.455 157.859 214.486 157.871 215.586C157.901 217.59 158.68 219.537 159.431 221.412C159.796 222.336 160.407 222.88 161.109 222.946C161.178 222.952 161.258 222.96 161.328 222.955C161.468 222.945 161.581 222.863 161.627 222.74C162.857 219.189 161.157 215.444 159.309 212.529C159.738 211.806 160.329 211.203 161.059 210.728C161.219 210.627 161.38 210.527 161.55 210.439C161.846 210.258 162.153 210.079 162.44 209.875C162.431 210.822 162.7 211.784 163.244 212.657C163.315 212.767 163.437 212.825 163.566 212.814C163.695 212.803 163.796 212.708 163.842 212.597C164.344 211.095 164.912 209.39 164.609 207.685ZM151.939 200.63C152.436 201.023 152.746 201.677 152.9 202.617C152.939 202.817 152.966 203.028 152.995 203.215C152.552 202.376 152.193 201.509 151.939 200.63ZM161.113 222.287C160.555 222.176 160.229 221.568 160.069 221.171C159.337 219.344 158.587 217.458 158.557 215.57C158.544 214.724 158.69 213.917 158.99 213.205C160.64 215.881 162.056 219.195 161.113 222.287Z" fill="#427AE8"/>
<path d="M149.779 206.637L139.211 199.213L139.01 201.334L149.578 208.758L149.779 206.637Z" fill="#427AE8"/>
<path d="M194.305 113.802L165.108 92.9919L164.851 95.7087L194.049 116.508L194.305 113.802Z" fill="#427AE8"/>
<path d="M187.84 114.651L170.616 102.241L170.359 104.958L187.583 117.357L187.84 114.651Z" fill="#427AE8"/>
<path d="M111.703 212.772L210.842 282.939C212.909 284.406 215.586 284.692 217.931 283.71L218.656 283.408L217.917 283.616C216.141 284.109 214.431 282.676 214.603 280.853L221.397 209.139C221.653 206.433 220.439 203.81 218.22 202.236L118.658 131.763C116.895 130.521 114.456 131.634 114.253 133.777L107.615 203.852C107.262 207.335 108.832 210.732 111.703 212.772Z" fill="#395897"/>
<path d="M217.906 283.615C216.13 284.107 214.42 282.674 214.593 280.852L221.386 209.138C221.642 206.432 220.428 203.808 218.209 202.235L118.647 131.762C117.483 130.935 116.035 131.157 115.117 132.019C115.907 131.77 116.805 131.843 117.578 132.39L217.14 202.863C219.359 204.436 220.572 207.072 220.317 209.766L213.523 281.48C213.394 282.844 214.319 283.983 215.534 284.271C216.351 284.221 217.157 284.054 217.942 283.723L218.668 283.421L217.906 283.615Z" fill="#10295A"/>
<defs>
<filter id="filter0_f_814_1245" x="0" y="0" width="344" height="344" filterUnits="userSpaceOnUse" color-interpolation-filters="sRGB">
<feFlood flood-opacity="0" result="BackgroundImageFix"/>
<feBlend mode="normal" in="SourceGraphic" in2="BackgroundImageFix" result="shape"/>
<feGaussianBlur stdDeviation="41" result="effect1_foregroundBlur_814_1245"/>
</filter>
<radialGradient id="paint0_radial_814_1245" cx="0" cy="0" r="1" gradientUnits="userSpaceOnUse" gradientTransform="translate(90 90) rotate(45) scale(127.279 703.822)">
<stop stop-color="#427AE8"/>
<stop offset="1" stop-opacity="0"/>
</radialGradient>
<linearGradient id="paint1_linear_814_1245" x1="156.923" y1="81.9849" x2="346.845" y2="269.361" gradientUnits="userSpaceOnUse">
<stop stop-color="#FBFCFF"/>
<stop offset="1" stop-color="#5D8BE4"/>
</linearGradient>
<linearGradient id="paint2_linear_814_1245" x1="153.362" y1="82.8066" x2="343.284" y2="270.183" gradientUnits="userSpaceOnUse">
<stop stop-color="#FBFCFF"/>
<stop offset="1" stop-color="#5D8BE4"/>
</linearGradient>
<linearGradient id="paint3_linear_814_1245" x1="149.803" y1="83.6285" x2="339.725" y2="271.005" gradientUnits="userSpaceOnUse">
<stop stop-color="#FBFCFF"/>
<stop offset="1" stop-color="#5D8BE4"/>
</linearGradient>
<linearGradient id="paint4_linear_814_1245" x1="146.242" y1="84.4502" x2="336.164" y2="271.827" gradientUnits="userSpaceOnUse">
<stop stop-color="#FBFCFF"/>
<stop offset="1" stop-color="#5D8BE4"/>
</linearGradient>
</defs>
</svg>
