<svg width="288" height="70" viewBox="0 0 288 70" fill="none" xmlns="http://www.w3.org/2000/svg">
<path d="M83.3102 1.51244C84.68 1.51244 86.0636 1.52032 87.461 1.53412C88.8584 1.54792 90.242 1.5696 91.6118 1.59916C92.9816 1.62675 94.2942 1.69771 95.5497 1.81202L95.3368 4.72308H84.2504C83.2531 4.72308 82.5258 4.94383 82.0686 5.38531C81.6113 5.82877 81.3827 6.55013 81.3827 7.54742V31.0862H77.6182V6.82015C77.6182 5.13698 78.1306 3.83025 79.1575 2.90392C80.1863 1.97561 81.5699 1.51244 83.3102 1.51244ZM83.5507 36.6718C85.0663 36.6718 86.5899 36.6718 88.1193 36.6718C89.6507 36.6718 91.1644 36.6955 92.6643 36.7408C94.1661 36.7861 95.6128 36.8531 97.0062 36.9438L96.8249 40.0815H84.2326C83.2945 40.0815 82.6046 40.316 82.1651 40.7851C81.7256 41.2562 81.5068 42.0209 81.5068 43.0813V61.7183C81.5068 62.7787 81.7256 63.5513 82.1651 64.0362C82.6046 64.521 83.2945 64.7634 84.2326 64.7634H96.8249L97.0062 67.8538C95.6128 67.9445 94.1661 68.0056 92.6643 68.0371C91.1644 68.0667 89.6507 68.0904 88.1193 68.1041C86.5899 68.1199 85.0663 68.1278 83.5507 68.1278C81.7039 68.1278 80.2415 67.6351 79.1654 66.6496C78.0893 65.6661 77.5354 64.3397 77.5059 62.6723V42.1273C77.5354 40.4304 78.0893 39.096 79.1654 38.1264C80.2415 37.1567 81.7039 36.6718 83.5507 36.6718ZM78.3238 49.8987H95.0511V53.1271H78.3238V49.8987ZM126.188 36.7171L116.688 66.9452C116.568 67.2488 116.371 67.5129 116.097 67.7415C115.825 67.9682 115.507 68.0825 115.143 68.0825H111.096C110.704 68.0825 110.369 67.9682 110.097 67.7415C109.825 67.5129 109.644 67.2488 109.551 66.9452L100.051 36.7171H104.188L111.597 61.5823C111.749 62.1579 111.908 62.7255 112.074 63.2872C112.241 63.8469 112.385 64.4146 112.508 64.9901H113.733C113.885 64.4146 114.037 63.8391 114.189 63.2635C114.341 62.688 114.506 62.1125 114.687 61.537L122.053 36.7171H126.188ZM136.689 36.6718C138.204 36.6718 139.728 36.6718 141.257 36.6718C142.789 36.6718 144.303 36.6955 145.802 36.7408C147.302 36.7861 148.751 36.8531 150.144 36.9438L149.963 40.0815H137.371C136.431 40.0815 135.743 40.316 135.303 40.7851C134.864 41.2562 134.643 42.0209 134.643 43.0813V61.7183C134.643 62.7787 134.864 63.5513 135.303 64.0362C135.743 64.521 136.431 64.7634 137.371 64.7634H149.963L150.144 67.8538C148.751 67.9445 147.302 68.0056 145.802 68.0371C144.303 68.0667 142.789 68.0904 141.257 68.1041C139.728 68.1199 138.204 68.1278 136.689 68.1278C134.84 68.1278 133.378 67.6351 132.304 66.6496C131.227 65.6661 130.674 64.3397 130.644 62.6723V42.1273C130.674 40.4304 131.227 39.096 132.304 38.1264C133.378 37.1567 134.84 36.6718 136.689 36.6718ZM131.462 49.8987H148.189V53.1271H131.462V49.8987ZM167.189 36.3092C169.613 36.3092 171.568 36.5733 173.052 37.1034C174.539 37.6336 175.621 38.5501 176.303 39.8549C176.984 41.1576 177.325 42.9906 177.325 45.3537C177.325 47.0507 177.13 48.4678 176.736 49.605C176.342 50.7403 175.727 51.6193 174.893 52.2402C174.062 52.861 172.948 53.2631 171.553 53.4444V53.673C172.069 53.7933 172.575 54.0436 173.076 54.422C173.577 54.8004 174.038 55.301 174.462 55.9218C174.887 56.5427 175.205 57.2936 175.418 58.1726L178.463 68.0825H174.19L171.417 58.2633C171.022 57.0808 170.492 56.2411 169.826 55.7405C169.16 55.2399 168.295 54.9916 167.234 54.9916C165.386 54.9916 163.781 54.9837 162.417 54.9679C161.053 54.9522 159.916 54.9305 159.008 54.8989C158.099 54.8694 157.372 54.8536 156.826 54.8536L156.962 51.5365H167.098C168.643 51.505 169.864 51.3237 170.758 50.9906C171.651 50.6575 172.296 50.0583 172.69 49.1951C173.084 48.3318 173.281 47.1276 173.281 45.5824C173.281 44.0352 173.084 42.8467 172.69 42.013C172.296 41.1793 171.651 40.5959 170.758 40.2628C169.864 39.9297 168.643 39.7622 167.098 39.7622C164.615 39.7622 162.471 39.778 160.667 39.8075C158.864 39.8391 157.644 39.8549 157.007 39.8549L156.371 36.7171C157.522 36.5969 158.598 36.5062 159.599 36.4451C160.598 36.384 161.696 36.3466 162.894 36.3308C164.091 36.3151 165.524 36.3092 167.189 36.3092ZM160.326 36.7171V68.0825H156.371V36.7171H160.326ZM205.372 36.7171L194.782 57.4454H191.191L180.554 36.7171H184.827L191.418 49.944C191.692 50.5215 191.94 51.1108 192.168 51.7179C192.395 52.3229 192.614 52.9142 192.827 53.4897H193.144C193.357 52.9142 193.584 52.3229 193.826 51.7179C194.068 51.1108 194.311 50.5353 194.553 49.9913L201.146 36.7171H205.372ZM194.963 54.6269V68.0825H190.962V54.6269H194.963ZM221.054 36.3092C223.297 36.3092 225.199 36.5811 226.76 37.1271C228.321 37.673 229.577 38.5659 230.533 39.8075C231.487 41.0512 232.184 42.7028 232.624 44.7625C233.063 46.8241 233.282 49.3685 233.282 52.3998C233.282 55.4291 233.063 57.9756 232.624 60.0352C232.184 62.0968 231.487 63.7484 230.533 64.9901C229.577 66.2337 228.321 67.1285 226.76 67.6725C225.199 68.2185 223.297 68.4904 221.054 68.4904C218.902 68.4904 216.911 68.453 215.079 68.3781C213.244 68.3012 211.509 68.2027 209.873 68.0825L211.6 64.8088C212.873 64.8383 214.29 64.8777 215.849 64.9231C217.41 64.9684 219.147 64.9901 221.054 64.9901C223.055 64.9901 224.645 64.6038 225.828 63.8312C227.011 63.0586 227.85 61.7558 228.351 59.9228C228.851 58.0899 229.1 55.5809 229.1 52.3998C229.1 49.2187 228.851 46.7097 228.351 44.8768C227.85 43.0438 227.011 41.7331 225.828 40.9448C224.645 40.1564 223.055 39.7622 221.054 39.7622C219.176 39.7622 217.487 39.778 215.987 39.8075C214.487 39.8391 213.025 39.8686 211.6 39.9002L209.873 36.7171C211.509 36.5969 213.244 36.4984 215.079 36.4215C216.911 36.3466 218.902 36.3092 221.054 36.3092ZM213.872 36.7171V68.0825H209.873V36.7171H213.872ZM252.146 36.7171C252.51 36.7171 252.828 36.8157 253.102 37.0128C253.374 37.2099 253.557 37.4759 253.646 37.809L263.737 68.0825H259.602L251.464 42.354C251.344 41.9302 251.215 41.4986 251.079 41.0591C250.941 40.6196 250.813 40.2017 250.691 39.8075H249.42C249.298 40.2017 249.178 40.6196 249.055 41.0591C248.935 41.4986 248.797 41.9302 248.647 42.354L240.509 68.0825H236.372L246.464 37.809C246.556 37.4759 246.738 37.2099 247.01 37.0128C247.283 36.8157 247.601 36.7171 247.965 36.7171H252.146ZM257.964 54.8083V58.2633H242.055V54.8083H257.964ZM287.057 36.7171L276.465 57.4454H272.874L262.237 36.7171H266.51L273.103 49.944C273.375 50.5215 273.625 51.1108 273.852 51.7179C274.078 52.3229 274.299 52.9142 274.512 53.4897H274.829C275.042 52.9142 275.269 52.3229 275.511 51.7179C275.753 51.1108 275.996 50.5353 276.238 49.9913L282.829 36.7171H287.057ZM276.646 54.6269V68.0825H272.647V54.6269H276.646ZM78.3455 14.3944H93.7089V17.4336H78.3455V14.3944ZM110.958 1.17147C113.241 1.17147 115.08 1.41981 116.479 1.91845C117.876 2.41907 118.897 3.28233 119.54 4.50825C120.18 5.73614 120.502 7.46267 120.502 9.68785C120.502 11.2843 120.316 12.6186 119.946 13.6888C119.575 14.759 118.996 15.5868 118.211 16.1722C117.427 16.7556 116.378 17.134 115.066 17.3055V17.5203C115.551 17.6327 116.03 17.8692 116.501 18.2259C116.97 18.5826 117.405 19.0537 117.805 19.6391C118.206 20.2225 118.505 20.93 118.704 21.7578L121.572 31.0862H117.549L114.938 21.8426C114.567 20.729 114.067 19.9367 113.44 19.4676C112.813 18.9965 111.999 18.76 111 18.76C109.259 18.76 107.748 18.7541 106.465 18.7403C105.18 18.7245 104.109 18.7029 103.254 18.6753C102.399 18.6457 101.713 18.6319 101.2 18.6319L101.328 15.508H110.872C112.326 15.4804 113.475 15.3089 114.317 14.9936C115.158 14.6802 115.765 14.1165 116.136 13.3045C116.507 12.4905 116.692 11.3572 116.692 9.90071C116.692 8.44616 116.507 7.32668 116.136 6.54225C115.765 5.75782 115.158 5.20793 114.317 4.89455C113.475 4.58117 112.326 4.4235 110.872 4.4235C108.532 4.4235 106.514 4.4373 104.817 4.46686C103.118 4.49445 101.971 4.50825 101.37 4.50825L100.771 1.5558C101.857 1.44149 102.87 1.35674 103.81 1.29958C104.752 1.24242 105.787 1.20695 106.914 1.19118C108.039 1.17738 109.388 1.17147 110.958 1.17147ZM104.496 1.5558V31.0862H100.771V1.5558H104.496ZM137.793 1C139.931 1 141.75 1.25622 143.248 1.77063C144.746 2.28307 145.944 3.13254 146.843 4.31707C147.742 5.49963 148.398 7.07637 148.812 9.04532C149.226 11.0143 149.433 13.4385 149.433 16.322C149.433 19.2035 149.226 21.6277 148.812 23.5967C148.398 25.5656 147.742 27.1424 146.843 28.3269C145.944 29.5095 144.746 30.3589 143.248 30.8733C141.75 31.3858 139.931 31.644 137.793 31.644C135.652 31.644 133.833 31.3858 132.335 30.8733C130.837 30.3589 129.633 29.5095 128.718 28.3269C127.806 27.1424 127.142 25.5656 126.728 23.5967C126.316 21.6277 126.109 19.2035 126.109 16.322C126.109 13.4385 126.316 11.0143 126.728 9.04532C127.142 7.07637 127.806 5.49963 128.718 4.31707C129.633 3.13254 130.837 2.28307 132.335 1.77063C133.833 1.25622 135.652 1 137.793 1ZM137.793 4.38014C135.851 4.38014 134.318 4.75067 133.19 5.49371C132.065 6.23478 131.265 7.46858 130.794 9.19511C130.323 10.9216 130.088 13.2966 130.088 16.322C130.088 19.3178 130.323 21.6849 130.794 23.4252C131.265 25.1655 132.065 26.4072 133.19 27.1503C134.318 27.8913 135.851 28.2619 137.793 28.2619C139.732 28.2619 141.265 27.8913 142.393 27.1503C143.52 26.4072 144.318 25.1655 144.789 23.4252C145.26 21.6849 145.495 19.3178 145.495 16.322C145.495 13.2966 145.26 10.9216 144.789 9.19511C144.318 7.46858 143.52 6.23478 142.393 5.49371C141.265 4.75067 139.732 4.38014 137.793 4.38014ZM178.536 1.5558V29.5883C178.536 30.5876 178.051 31.0862 177.081 31.0862H173.401C172.972 31.0862 172.631 30.9857 172.372 30.7866C172.116 30.5876 171.903 30.288 171.732 29.8879L161.759 8.96057C161.503 8.389 161.203 7.74648 160.86 7.03301C160.517 6.3215 160.261 5.66518 160.09 5.06602H159.406C159.463 5.69278 159.506 6.3353 159.534 6.99162C159.563 7.64794 159.577 8.30425 159.577 8.96057V31.0862H155.811V3.05371C155.811 2.05445 156.309 1.5558 157.309 1.5558H160.86C161.288 1.5558 161.631 1.65632 161.887 1.85538C162.145 2.05445 162.358 2.35403 162.53 2.75412L172.201 23.169C172.516 23.7681 172.851 24.4461 173.208 25.201C173.565 25.9578 173.9 26.7068 174.213 27.4479H174.941C174.913 26.6792 174.883 25.9224 174.856 25.1813C174.826 24.4383 174.812 23.6972 174.812 22.9542V1.5558H178.536ZM196.554 1.5558V31.0862H192.787V1.5558H196.554ZM206.099 1.5558V4.89455H183.287V1.5558H206.099ZM216.285 1.51244C217.712 1.51244 219.145 1.51244 220.585 1.51244C222.026 1.51244 223.453 1.53412 224.866 1.57748C226.277 1.62084 227.641 1.68391 228.952 1.77063L228.782 4.72308H216.927C216.042 4.72308 215.394 4.94383 214.978 5.38531C214.566 5.82877 214.359 6.55013 214.359 7.54742V25.0946C214.359 26.0938 214.566 26.8211 214.978 27.2784C215.394 27.7337 216.042 27.9623 216.927 27.9623H228.782L228.952 30.8733C227.641 30.9581 226.277 31.0152 224.866 31.0428C223.453 31.0724 222.026 31.0941 220.585 31.1079C219.145 31.1217 217.712 31.1296 216.285 31.1296C214.544 31.1296 213.167 30.6664 212.154 29.7381C211.143 28.8117 210.62 27.5622 210.593 25.9933V6.64868C210.62 5.05025 211.143 3.79477 212.154 2.88224C213.167 1.9697 214.544 1.51244 216.285 1.51244ZM211.363 13.9667H227.113V17.0059H211.363V13.9667ZM257.542 1.5558V29.5883C257.542 30.5876 257.057 31.0862 256.088 31.0862H252.406C251.978 31.0862 251.635 30.9857 251.379 30.7866C251.123 30.5876 250.908 30.288 250.737 29.8879L240.766 8.96057C240.509 8.389 240.21 7.74648 239.867 7.03301C239.524 6.3215 239.268 5.66518 239.096 5.06602H238.412C238.469 5.69278 238.511 6.3353 238.54 6.99162C238.568 7.64794 238.584 8.30425 238.584 8.96057V31.0862H234.817V3.05371C234.817 2.05445 235.316 1.5558 236.313 1.5558H239.867C240.295 1.5558 240.637 1.65632 240.894 1.85538C241.15 2.05445 241.365 2.35403 241.536 2.75412L251.208 23.169C251.521 23.7681 251.858 24.4461 252.215 25.201C252.571 25.9578 252.907 26.7068 253.22 27.4479H253.947C253.92 26.6792 253.89 25.9224 253.862 25.1813C253.833 24.4383 253.819 23.6972 253.819 22.9542V1.5558H257.542ZM275.517 1.17147C277.63 1.17147 279.419 1.42769 280.89 1.94013C282.358 2.45454 283.543 3.29613 284.441 4.46686C285.34 5.63562 285.996 7.19068 286.41 9.13204C286.824 11.0714 287.031 13.4681 287.031 16.322C287.031 19.1739 286.824 21.5706 286.41 23.5119C285.996 25.4513 285.34 27.0064 284.441 28.1771C283.543 29.3459 282.358 30.1875 280.89 30.7019C279.419 31.2143 277.63 31.4725 275.517 31.4725C273.493 31.4725 271.617 31.4351 269.89 31.3641C268.163 31.2931 266.53 31.2005 264.988 31.0862L266.614 28.0056C267.815 28.0332 269.147 28.0687 270.617 28.1121C272.088 28.1554 273.72 28.1771 275.517 28.1771C277.401 28.1771 278.899 27.8125 280.011 27.0852C281.124 26.3579 281.917 25.1301 282.386 23.4035C282.857 21.677 283.093 19.3178 283.093 16.322C283.093 13.3262 282.857 10.965 282.386 9.23847C281.917 7.51194 281.124 6.27814 280.011 5.53707C278.899 4.79403 277.401 4.4235 275.517 4.4235C273.749 4.4235 272.159 4.4373 270.745 4.46686C269.334 4.49445 267.957 4.52402 266.614 4.55161L264.988 1.5558C266.53 1.44149 268.163 1.34885 269.89 1.2779C271.617 1.20695 273.493 1.17147 275.517 1.17147ZM268.755 1.5558V31.0862H264.988V1.5558H268.755Z" fill="white"/>
<path d="M48.5366 19.0056L18.7658 48.2522L21.46 50.9898L51.2289 21.7452L48.5366 19.0056ZM6.72737 3.85119H63.2673C64.0616 3.85119 64.781 4.17245 65.2974 4.69081L65.3053 4.69869C65.8236 5.21507 66.1449 5.93446 66.1449 6.72874V63.2687C66.1449 64.0571 65.8197 64.7765 65.2974 65.2968V65.3047C64.781 65.823 64.0616 66.1443 63.2673 66.1443H6.72737C5.939 66.1443 5.21961 65.8191 4.69929 65.2968C4.17699 64.7765 3.85178 64.0571 3.85178 63.2687V6.72874C3.85178 5.93446 4.17305 5.21507 4.69141 4.69869H4.69929C5.21961 4.17639 5.939 3.85119 6.72737 3.85119ZM63.2673 0H6.72737C4.87667 0 3.1935 0.756836 1.97546 1.97487L1.97941 1.97881C0.757434 3.20079 0.000595093 4.88199 0.000595093 6.72874V63.2687C0.000595093 65.1194 0.757431 66.8026 1.97546 68.0206C3.1935 69.2387 4.87667 69.9955 6.72737 69.9955H63.2673C65.1141 69.9955 66.7953 69.2387 68.0173 68.0167L68.0212 68.0206C69.2393 66.8026 69.9961 65.1194 69.9961 63.2687V6.72874C69.9961 4.88396 69.2393 3.20473 68.0212 1.98275L68.0133 1.97487C66.7914 0.756836 65.1121 0 63.2673 0Z" fill="#427AE8"/>
<path d="M53.1449 26.5462V51.6696C53.1449 51.9317 53.0385 52.1702 52.869 52.3436C52.6916 52.5131 52.4551 52.6196 52.1949 52.6196H27.0715V56.4727H52.1949C53.5174 56.4727 54.7197 55.9327 55.5889 55.0635V55.0556C56.458 54.1865 56.9961 52.9881 56.9961 51.6696V26.5462H53.1449ZM17.3765 42.9246V17.8012C17.3765 17.541 17.483 17.3045 17.6564 17.1311C17.8259 16.9576 18.0644 16.8512 18.3265 16.8512H43.4499V13H18.3265C17.008 13 15.8096 13.5381 14.9405 14.4072H14.9326C14.0634 15.2764 13.5234 16.4787 13.5234 17.8012V42.9246H17.3765Z" fill="white"/>
</svg>
