<svg width="426" height="106" viewBox="0 0 426 106" fill="none" xmlns="http://www.w3.org/2000/svg">
<path d="M81.6087 1.54665L81.163 1.31997L81.163 1.31998L81.6087 1.54665ZM83.3913 1.54665L83.837 1.31998L83.837 1.31998L83.3913 1.54665ZM72.5649 19.3277L72.1192 19.101L72.5649 19.3277ZM82.0543 1.77333C82.2397 1.40889 82.7603 1.40889 82.9457 1.77333L83.837 1.31998C83.2809 0.226678 81.7191 0.226672 81.163 1.31997L82.0543 1.77333ZM73.0106 19.5543L82.0543 1.77332L81.163 1.31998L72.1192 19.101L73.0106 19.5543ZM11 25.2942H63.6516V24.2942H11V25.2942ZM1.5 34.7942C1.5 29.5475 5.7533 25.2942 11 25.2942V24.2942C5.20101 24.2942 0.5 28.9952 0.5 34.7942H1.5ZM1.5 94.7942V34.7942H0.5V94.7942H1.5ZM11 104.294C5.75329 104.294 1.5 100.041 1.5 94.7942H0.5C0.5 100.593 5.20101 105.294 11 105.294V104.294ZM415 104.294H11V105.294H415V104.294ZM424.5 94.7942C424.5 100.041 420.247 104.294 415 104.294V105.294C420.799 105.294 425.5 100.593 425.5 94.7942H424.5ZM424.5 34.7942V94.7942H425.5V34.7942H424.5ZM415 25.2942C420.247 25.2942 424.5 29.5475 424.5 34.7942H425.5C425.5 28.9952 420.799 24.2942 415 24.2942V25.2942ZM101.348 25.2942H415V24.2942H101.348V25.2942ZM82.9457 1.77333L91.9894 19.5543L92.8807 19.101L83.837 1.31998L82.9457 1.77333ZM101.348 24.2942C97.7736 24.2942 94.5014 22.2874 92.8807 19.101L91.9894 19.5543C93.7807 23.0761 97.3973 25.2942 101.348 25.2942V24.2942ZM72.1192 19.101C70.4986 22.2874 67.2264 24.2942 63.6516 24.2942V25.2942C67.6027 25.2942 71.2193 23.0761 73.0106 19.5543L72.1192 19.101Z" fill="#427AE8"/>
</svg>
