<svg width="42" height="39" viewBox="0 0 42 39" fill="none" xmlns="http://www.w3.org/2000/svg">
<path d="M39.9003 6.59466H30.8007V3.79478C30.7983 1.86268 29.2329 0.297284 27.3008 0.294922H14.7013C12.7693 0.297284 11.2039 1.86268 11.2015 3.79478V6.59466H2.10187C0.942189 6.59466 0.00195312 7.5349 0.00195312 8.69458V24.2758C0.00403192 24.7091 0.139526 25.1312 0.390009 25.4848C0.640491 25.8384 0.993804 26.1063 1.4019 26.252V35.9935C1.4019 37.1531 2.34213 38.0934 3.50181 38.0934H38.5004C39.66 38.0934 40.6003 37.1531 40.6003 35.9935V26.2527C41.0084 26.1068 41.3618 25.8388 41.6122 25.4851C41.8627 25.1314 41.9982 24.7092 42.0002 24.2758V8.69458C42.0002 7.5349 41.06 6.59466 39.9003 6.59466ZM12.6014 3.79478C12.6014 2.6351 13.5417 1.69486 14.7013 1.69486H27.3008C28.4605 1.69486 29.4007 2.6351 29.4007 3.79478V6.59466H28.0008C24.5804 6.59466 19.6886 6.59466 14.0014 6.59466H12.6014V3.79478ZM39.2003 35.9935C39.2003 36.1791 39.1266 36.3571 38.9953 36.4884C38.8641 36.6197 38.686 36.6934 38.5004 36.6934H3.50181C3.31616 36.6934 3.13812 36.6197 3.00685 36.4884C2.87558 36.3571 2.80184 36.1791 2.80184 35.9935V26.4926L18.2012 28.6165V30.3937C18.2012 31.5534 19.1414 32.4936 20.3011 32.4936H21.7011C22.8607 32.4936 23.801 31.5534 23.801 30.3937V28.6164L39.2003 26.4926V35.9935ZM22.401 30.3937C22.401 30.5793 22.3273 30.7574 22.196 30.8886C22.0647 31.0199 21.8867 31.0937 21.7011 31.0937H20.3011C20.1155 31.0937 19.9374 31.0199 19.8062 30.8886C19.6749 30.7574 19.6011 30.5793 19.6011 30.3937V26.1939C19.6011 26.0082 19.6749 25.8302 19.8062 25.6989C19.9374 25.5676 20.1155 25.4939 20.3011 25.4939H21.7011C21.8867 25.4939 22.0647 25.5676 22.196 25.6989C22.3273 25.8302 22.401 26.0082 22.401 26.1939V30.3937ZM40.6003 24.2758C40.6005 24.4445 40.5397 24.6077 40.4291 24.7352C40.3185 24.8627 40.1655 24.946 39.9984 24.9696L39.8042 24.9963L23.801 27.203V26.1939C23.801 25.0342 22.8607 24.0939 21.7011 24.0939H20.3011C19.1414 24.0939 18.2012 25.0342 18.2012 26.1939V27.2031L2.00448 24.9696C1.83724 24.9461 1.68414 24.8629 1.5734 24.7354C1.46266 24.6079 1.40175 24.4446 1.4019 24.2758V8.69458C1.4019 8.50893 1.47564 8.33089 1.60691 8.19962C1.73818 8.06835 1.91622 7.9946 2.10187 7.9946H39.9003C40.086 7.9946 40.264 8.06835 40.3953 8.19962C40.5265 8.33089 40.6003 8.50893 40.6003 8.69458V24.2758Z" fill="#427AE8"/>
</svg>
