<svg width="50" height="50" viewBox="0 0 50 50" fill="none" xmlns="http://www.w3.org/2000/svg">
<circle cx="25" cy="25" r="24" stroke="#427AE8" stroke-width="2"/>
<path d="M37.934 19.6455C37.873 18.2638 37.6496 17.3139 37.3294 16.4907C36.9992 15.617 36.4912 14.8347 35.8257 14.1844C35.1754 13.524 34.3879 13.0108 33.5243 12.6858C32.6965 12.3658 31.7515 12.1422 30.3697 12.0814C28.9776 12.0152 28.5357 12 25.0051 12C21.4744 12 21.0325 12.0152 19.6455 12.0762C18.2638 12.1372 17.3139 12.3608 16.491 12.6806C15.617 13.0108 14.8347 13.5188 14.1844 14.1844C13.524 14.8347 13.0111 15.6221 12.6858 16.4857C12.3658 17.3139 12.1423 18.2587 12.0814 19.6404C12.0153 21.0325 12 21.4744 12 25.0051C12 28.5357 12.0153 28.9777 12.0762 30.3646C12.1372 31.7463 12.3608 32.6962 12.6809 33.5194C13.0111 34.3931 13.524 35.1754 14.1844 35.8257C14.8347 36.4861 15.6222 36.9993 16.4858 37.3243C17.3138 37.6443 18.2586 37.8679 19.6406 37.9287C21.0273 37.9899 21.4695 38.0049 25.0001 38.0049C28.5308 38.0049 28.9727 37.9899 30.3596 37.9287C31.7414 37.8678 32.6913 37.6444 33.5142 37.3243C34.3785 36.9901 35.1635 36.479 35.8187 35.8238C36.474 35.1686 36.9851 34.3837 37.3194 33.5194C37.6392 32.6913 37.8629 31.7463 37.9238 30.3646C37.9848 28.9777 38 28.5357 38 25.0051C38 21.4744 37.9948 21.0324 37.934 19.6455ZM35.5921 30.263C35.5362 31.533 35.3228 32.2188 35.145 32.676C34.708 33.8089 33.8089 34.708 32.676 35.145C32.2188 35.3228 31.5281 35.5362 30.263 35.5919C28.8913 35.653 28.48 35.6681 25.0102 35.6681C21.5405 35.6681 21.124 35.653 19.7573 35.5919C18.4872 35.5362 17.8014 35.3228 17.3442 35.145C16.7805 34.9366 16.2673 34.6064 15.8508 34.1746C15.419 33.753 15.0888 33.245 14.8804 32.6812C14.7026 32.224 14.4892 31.533 14.4335 30.2681C14.3724 28.8965 14.3573 28.4849 14.3573 25.0152C14.3573 21.5454 14.3724 21.1289 14.4335 19.7624C14.4892 18.4924 14.7026 17.8066 14.8804 17.3494C15.0888 16.7854 15.419 16.2724 15.8559 15.8557C16.2774 15.4239 16.7854 15.0937 17.3494 14.8855C17.8066 14.7077 18.4976 14.4944 19.7624 14.4384C21.1341 14.3775 21.5457 14.3622 25.0152 14.3622C28.4901 14.3622 28.9014 14.3775 30.2681 14.4384C31.5382 14.4944 32.224 14.7077 32.6812 14.8855C33.2449 15.0937 33.7581 15.4239 34.1746 15.8557C34.6064 16.2774 34.9366 16.7854 35.145 17.3494C35.3228 17.8066 35.5362 18.4973 35.5921 19.7624C35.653 21.1341 35.6683 21.5454 35.6683 25.0152C35.6683 28.4849 35.6531 28.8913 35.5921 30.263Z" fill="#427AE8"/>
<path d="M25.0046 18.3246C21.3165 18.3246 18.3242 21.3167 18.3242 25.005C18.3242 28.6932 21.3165 31.6853 25.0046 31.6853C28.6927 31.6853 31.6849 28.6932 31.6849 25.005C31.6849 21.3167 28.6927 18.3246 25.0046 18.3246ZM25.0046 29.3383C22.6119 29.3383 20.6711 27.3978 20.6711 25.005C20.6711 22.6121 22.6119 20.6716 25.0045 20.6716C27.3973 20.6716 29.3379 22.6121 29.3379 25.005C29.3379 27.3978 27.3973 29.3383 25.0046 29.3383ZM33.5087 18.0605C33.5087 18.9217 32.8104 19.6201 31.9489 19.6201C31.0877 19.6201 30.3894 18.9217 30.3894 18.0605C30.3894 17.1991 31.0877 16.501 31.949 16.501C32.8104 16.501 33.5087 17.199 33.5087 18.0605Z" fill="#427AE8"/>
</svg>
