<svg width="50" height="50" viewBox="0 0 50 50" fill="none" xmlns="http://www.w3.org/2000/svg">
<path fill-rule="evenodd" clip-rule="evenodd" d="M48 25C48 37.7025 37.7025 48 25 48C12.2975 48 2 37.7025 2 25C2 12.2975 12.2975 2 25 2C37.7025 2 48 12.2975 48 25ZM50 25C50 38.8071 38.8071 50 25 50C11.1929 50 0 38.8071 0 25C0 11.1929 11.1929 0 25 0C38.8071 0 50 11.1929 50 25ZM38.9644 15.2968L39 15.1108V14.9213C39 14.0459 38.6774 13.0921 37.7895 12.4918C37.0382 11.9838 36.2268 11.9775 35.785 12.0122C35.2962 12.0506 34.8614 12.1733 34.587 12.2639C34.4409 12.3122 34.3181 12.3588 34.2282 12.3949C34.183 12.4131 34.1451 12.429 34.1158 12.4417L34.1047 12.4465L8.40099 22.9098C8.38009 22.9177 8.35515 22.9274 8.32672 22.9389C8.26405 22.9642 8.18236 22.999 8.08793 23.0434C7.90562 23.1291 7.64449 23.2654 7.37212 23.459C6.95876 23.7527 5.83179 24.6782 6.01963 26.2425L8.10093 25.54C8.10063 25.5405 8.10032 25.5411 8.10001 25.5416L6.01979 26.2439C6.16464 27.448 6.95926 28.1729 7.4027 28.4985C7.6503 28.6803 7.88365 28.8092 8.05295 28.8928C8.13966 28.9356 8.21505 28.9693 8.27429 28.9944C8.30405 29.0069 8.33013 29.0175 8.35198 29.0261L8.38163 29.0376L8.39405 29.0423L8.39963 29.0443L8.40227 29.0453L8.40355 29.0458C8.40417 29.046 8.4048 29.0463 9.09576 27.1694L8.4048 29.0463L8.43033 29.0557L8.4561 29.0644L15.3603 31.395L15.9626 31.5982L15.8919 31.6642L17.7975 33.0981L28.8051 41.3811L28.9816 41.5139L29.1828 41.605C29.9112 41.9348 30.6651 42.0704 31.4084 41.9651C32.1486 41.8602 32.7294 41.5376 33.1495 41.1889C33.558 40.8498 33.828 40.4767 33.9921 40.2081C34.0768 40.0695 34.141 39.946 34.187 39.8495C34.2102 39.801 34.2293 39.7582 34.2446 39.7226C34.2522 39.7048 34.2589 39.6886 34.2647 39.6743L34.2727 39.6543L34.2762 39.6453L34.2779 39.6411L34.2787 39.639C34.2791 39.638 34.2794 39.637 32.4132 38.9179L34.2794 39.637L34.344 39.4696L34.3776 39.2934L38.9644 15.2968ZM36.8233 15.8455L39 15.1108L36.8234 15.8454L37 14.9213C37 13.3238 34.8833 14.2889 34.8833 14.2889L9.12805 24.7732C9.12805 24.7732 8.37768 25.0395 8.10093 25.54L36.8234 15.8454L36.8233 15.8455ZM36.8233 15.8455L8.10001 25.5416C8.02463 25.6786 7.98476 25.8331 8.00542 26.0045C8.10114 26.8032 9.09576 27.1694 9.09576 27.1694L16 29.5L24.9391 23.3206L30.8717 19.2195L31.7872 18.5866L31.7877 18.5863L31.789 18.5854C32.6602 18.0364 33.1252 18.4684 32.3758 19.1943C32.3576 19.2119 32.3237 19.2438 32.2754 19.289L32.2483 19.3142C32.0994 19.4531 31.8395 19.6934 31.4931 20.0127C30.3637 21.054 28.3144 22.9363 26.19 24.8872L25.7155 25.323L25.7121 25.3261C23.7688 27.1106 21.8158 28.9042 20.4937 30.121C19.775 30.7825 19.2427 31.2736 19 31.5L20.6236 32.7217L30.0077 39.7831C31.772 40.5818 32.4132 38.9179 32.4132 38.9179L36.8233 15.8455Z" fill="#427AE8"/>
</svg>
