<svg width="404" height="441" viewBox="0 0 404 441" fill="none" xmlns="http://www.w3.org/2000/svg">
<path d="M295.083 251.472L295.084 251.472C299.858 248.721 304.255 243.59 307.464 237.454C310.669 231.327 312.634 224.299 312.634 217.846V15.8049C312.634 9.3275 310.664 4.84906 307.747 2.64397C304.893 0.48624 300.835 0.291682 296.083 3.0288C296.083 3.02894 296.083 3.02908 296.082 3.02923L38.551 151.811L38.5499 151.812C33.7758 154.562 29.3785 159.693 26.1697 165.829C22.9654 171.956 21.0002 178.984 21.0002 185.438V387.479C21.0002 393.956 22.9698 398.435 25.8866 400.64C28.7409 402.797 32.7998 402.992 37.5515 400.254L295.083 251.472Z" stroke="#427AE8" stroke-width="2"/>
<path d="M89.1152 425.837L346.648 277.054C356.626 271.305 364.698 255.846 364.698 242.562V40.5209C364.698 27.2362 356.626 21.13 346.648 26.8788L89.1152 175.662C79.1368 181.41 71.0647 196.869 71.0647 210.154V412.195C71.0647 425.479 79.1368 431.586 89.1152 425.837Z" fill="url(#paint0_linear_814_2)"/>
<path d="M86.7903 415.442L341.583 268.267C349.595 263.174 354.569 252.987 354.569 242.562V39.5382C354.569 37.066 351.889 35.5469 349.744 36.7681C349.506 36.9171 349.297 37.0362 349.178 37.0958L94.1773 184.419C84.6159 189.929 81.1904 199.699 81.1904 210.125V412.672C81.1904 415.323 84.05 416.991 86.3435 415.68C86.552 415.591 86.7009 415.501 86.7903 415.442Z" fill="#274174"/>
<path d="M94.1773 184.449L349.178 37.1256C349.297 37.066 349.506 36.9468 349.744 36.7979C351.889 35.5469 354.569 37.0958 354.569 39.5681V242.592C354.569 253.017 349.595 263.204 341.583 268.297L86.7903 415.471C86.7009 415.531 86.5519 415.62 86.3732 415.71C84.0797 417.02 81.2202 415.352 81.2202 412.701V210.154C81.1905 199.729 84.6159 189.959 94.1773 184.449ZM83.2159 412.701C83.2159 413.595 83.9606 414.131 84.6457 414.131C84.8839 414.131 85.1222 414.072 85.3605 413.952L340.57 266.54C347.808 261.923 352.544 252.511 352.544 242.592V39.5681C352.544 38.8532 351.918 38.4064 351.352 38.4064C351.144 38.4064 350.965 38.466 350.757 38.5851L95.19 186.236C85.301 191.955 83.2159 202.41 83.2159 210.184V412.701Z" fill="#163572"/>
<path d="M83.9912 172.951L341.524 24.1686C345.456 21.9049 349.119 21.4581 352.098 22.6197C352.485 22.7687 357.519 25.4494 357.877 25.6281H357.906C354.838 24.1388 350.936 24.4069 346.677 26.8792L89.1443 175.662C79.1659 181.411 71.0938 196.87 71.0938 210.154V412.195C71.0938 420.506 74.2511 425.986 79.0467 427.565C78.6595 427.595 78.1829 427.446 77.468 427.029C77.2297 426.91 71.7789 423.812 71.5704 423.663C68.1449 421.25 66.0002 416.335 66.0002 409.485V207.444C65.9407 194.129 74.0128 178.7 83.9912 172.951Z" fill="url(#paint1_linear_814_2)"/>
<path d="M83.9912 172.951L341.524 24.1686C345.456 21.9049 349.119 21.4581 352.098 22.6197C352.485 22.7687 357.519 25.4494 357.877 25.6281H357.906C354.838 24.1388 350.936 24.4069 346.677 26.8792L89.1443 175.662L83.9912 172.951Z" fill="url(#paint2_linear_814_2)"/>
<path d="M88.2506 175.215L345.783 26.4325C349.864 24.0794 353.617 23.722 356.655 25.0326C354.064 24.6156 351.115 25.2411 347.958 27.0581L90.4251 175.841C80.4466 181.59 72.3746 197.049 72.3746 210.333V412.374C72.3746 420.208 75.2043 425.54 79.5531 427.416C73.983 426.522 70.2001 420.804 70.2001 411.719V209.678C70.2001 196.423 78.2722 180.994 88.2506 175.215Z" fill="white"/>
<path d="M341 60.7572C341 63.3831 338.763 66.7384 336 68.2597C333.237 69.781 331 68.8849 331 66.2382C331 63.5915 333.237 60.2571 336 58.7358C338.763 57.2144 341 58.1314 341 60.7572Z" fill="white"/>
<path d="M329 67.7503C329 70.3784 326.763 73.7365 324 75.2591C321.237 76.7817 319 75.8848 319 73.2359C319 70.587 321.237 67.2497 324 65.7271C326.741 64.2254 329 65.1222 329 67.7503Z" fill="white"/>
<path d="M316 74.7503C316 77.3784 313.987 80.7365 311.5 82.2591C309.013 83.7817 307 82.8848 307 80.2359C307 77.6078 309.013 74.2497 311.5 72.7271C313.967 71.2254 316 72.1222 316 74.7503Z" fill="white"/>
<path d="M192.363 206.553C192.363 206.553 186.442 201.332 185.474 208.068C184.506 214.804 190.166 242.385 195.863 233.537C201.56 224.689 192.363 206.553 192.363 206.553Z" fill="#FEC9C9"/>
<path d="M259.953 163.315C259.953 163.315 265.371 150.836 266.681 156.12C267.99 161.404 264.07 195.102 258.083 193.726C252.118 192.349 259.953 163.315 259.953 163.315Z" fill="#FEC9C9"/>
<path d="M249.34 237.067L206.257 264.623C206.257 264.623 183.287 285.855 162.695 308.452C150.205 322.178 142.307 340.526 142.719 355.045L142.719 380.5L316.5 280L315.655 244.438C315.243 229.919 306.624 222.114 293.793 224.593C272.675 228.672 249.34 237.067 249.34 237.067Z" fill="#10295A"/>
<path d="M249.362 237.043C249.362 237.043 244.158 268.64 228.587 278.61C213.017 288.581 206.235 264.624 206.235 264.624L209.239 220.241L243.989 198.015L249.362 237.043Z" fill="url(#paint3_linear_814_2)"/>
<path d="M261.725 164.22C262.319 185.101 244.917 230.688 227.541 241.801C210.166 252.914 190.842 230.815 190.249 209.934C189.284 175.988 204.988 155.28 224.725 142.645C244.463 130.032 260.761 130.274 261.725 164.22Z" fill="url(#paint4_linear_814_2)"/>
<path d="M263.578 160.939C263.689 160.23 263.83 159.044 263.961 157.494C265.138 144.271 265.355 104.175 224.398 130.375C184.729 155.742 185.777 192.642 187.575 205.121C187.899 208.068 188.448 209.689 188.448 209.689L190.204 207.615C190.204 207.615 193.52 210.432 195.121 210.591C196.722 210.75 196.729 197.129 198.456 187.097C200.161 177.089 205.974 176.173 205.974 176.173C205.974 176.173 213.305 175.578 225.411 167.594C237.553 160.086 244.655 151.425 244.655 151.425C244.655 151.425 250.31 144.988 252.514 152.498C254.717 160.008 255.504 173.106 257.04 170.971C258.575 168.812 261.726 164.266 261.726 164.266L263.447 161.738C263.467 161.669 263.504 161.418 263.578 160.939Z" fill="#10295A"/>
<path d="M194.295 236.969C188.396 241.799 182.67 241.143 181.504 235.491L178.916 222.898C177.749 217.247 181.598 208.769 187.496 203.94C189.184 202.55 190.83 202.754 191.16 204.359L196.743 231.533C197.073 233.161 195.983 235.58 194.295 236.969Z" fill="#427AE8"/>
<path d="M259.332 194.713C265.289 191.952 270.775 184.133 271.585 177.242L273.378 161.865C274.189 154.974 270.004 151.614 264.046 154.353C262.341 155.129 260.765 157.379 260.536 159.342L256.669 192.561C256.441 194.545 257.627 195.512 259.332 194.713Z" fill="#427AE8"/>
<path d="M268.488 155.227L263.963 157.607C265.21 139.13 261.698 127.905 253.591 124.247C241.984 119.028 224.552 131.211 224.552 131.211C224.552 131.211 206.698 141.656 195.839 161.225C188.225 174.949 185.486 190.148 187.72 206.412L183.223 209.792C180.82 192.146 183.93 175.389 192.501 159.955C204.796 137.821 224.415 126.417 224.415 126.417C224.415 126.417 243.692 112.954 256.783 118.835C265.886 122.92 269.843 135.178 268.488 155.227Z" fill="#427AE8"/>
<path d="M213.192 257.08C197.482 262.165 191.157 236.558 190.907 235.474L193.128 233.591C193.179 233.84 199.405 259.041 213.771 254.38L213.192 257.08Z" fill="#1E3A70"/>
<path d="M226.612 247.603C226.688 250.284 223.506 254.513 219.49 257.083C215.474 259.653 212.169 259.565 212.093 256.884C212.017 254.203 215.199 249.974 219.215 247.404C223.21 244.857 226.537 244.945 226.612 247.603Z" fill="#10295A"/>
<path d="M321.47 183.637V252L316 248.796V180.289L321.47 183.637Z" fill="url(#paint5_linear_814_2)"/>
<path d="M321.457 183.637V252L403.747 204.721V136.214L321.457 183.637Z" fill="url(#paint6_linear_814_2)"/>
<path d="M403.747 136.214L321.457 183.637L316.002 180.288L398.335 132.923L403.747 136.214Z" fill="url(#paint7_linear_814_2)"/>
<path opacity="0.7" d="M403.747 136.214L321.457 183.637L316.002 180.288L321.472 182.872L403.747 136.214Z" fill="white"/>
<path d="M324.661 190.275L361.505 169.002V174.169L324.661 195.441V190.275Z" fill="#427AE8"/>
<path d="M334.69 227.437V225.056L381.392 198.299V200.68L334.69 227.437Z" fill="#8FB0F1"/>
<path d="M375.258 186.999L398.118 173.809V176.19L375.258 189.38V186.999Z" fill="#8FB0F1"/>
<path d="M359.802 205.818V208.199L342.267 218.114V215.732L359.802 205.818Z" fill="#8FB0F1"/>
<path d="M361.274 185.181L398.118 163.908V166.289L361.274 187.562V185.181Z" fill="#8FB0F1"/>
<path d="M384.61 176.652L398.118 168.858V171.24L384.61 179.033V176.652Z" fill="#8FB0F1"/>
<path d="M388.044 191.892L362.139 206.843V204.462L388.044 189.51V191.892Z" fill="#8FB0F1"/>
<path d="M382.271 178.008V180.389L337.807 205.847V203.466L382.271 178.008Z" fill="#8FB0F1"/>
<path d="M372.92 188.356V190.723L354.736 201.229V198.848L372.92 188.356Z" fill="#8FB0F1"/>
<path d="M390.397 188.154L398.118 183.694V186.075L390.397 190.535V188.154Z" fill="#8FB0F1"/>
<path d="M350.566 223.367L324.661 238.318V235.937L350.566 220.986V223.367Z" fill="#8FB0F1"/>
<path d="M352.92 219.629L360.641 215.184V217.551L352.92 222.01V219.629Z" fill="#8FB0F1"/>
<path d="M358.922 188.919L325.123 208.228V205.847L358.922 186.537V188.919Z" fill="#8FB0F1"/>
<path d="M335.469 207.204L325.121 213.164V210.797L335.469 204.822V207.204Z" fill="#8FB0F1"/>
<path d="M398.118 161.339L325.122 203.278V200.897L398.118 158.973V161.339Z" fill="#8FB0F1"/>
<path d="M352.398 202.586L325.122 218.114V215.733L352.398 200.204V202.586Z" fill="#8FB0F1"/>
<path d="M383.744 196.943L398.118 188.645V191.026L383.744 199.324V196.943Z" fill="#8FB0F1"/>
<path d="M332.353 228.779L325.122 232.95V230.568L332.353 226.398V228.779Z" fill="#8FB0F1"/>
<path d="M339.929 219.471L325.122 228.014V225.633L339.929 217.089V219.471Z" fill="#8FB0F1"/>
<path d="M398.118 181.125L325.122 223.064V220.683L398.118 178.744V181.125Z" fill="#8FB0F1"/>
<path d="M322.878 118.281V157.254L317.003 154.015V114.741L322.878 118.281Z" fill="url(#paint8_linear_814_2)"/>
<path d="M322.831 118.281V157.254L404.001 109.724V70.4351L322.831 118.281Z" fill="url(#paint9_linear_814_2)"/>
<path d="M404.001 70.4348L322.831 118.281L317.001 114.741L398.246 67L404.001 70.4348Z" fill="url(#paint10_linear_814_2)"/>
<path opacity="0.7" d="M404.001 70.4351L322.831 118.281L317.001 114.741L322.771 117.423L404.001 70.4351Z" fill="white"/>
<path opacity="0.5" d="M394.855 83.5713V87.2923L362.195 106.169V102.448L394.855 83.5713Z" fill="#427AE8"/>
<path opacity="0.5" d="M362.197 118.562L376.689 110.156V113.877L362.197 122.284V118.562Z" fill="#427AE8"/>
<path opacity="0.5" d="M394.855 95.0208L362.195 113.897V110.176L394.855 91.2998V95.0208Z" fill="#427AE8"/>
<path d="M333.015 119.31L355.206 106.505C356.562 105.722 357.677 106.354 357.677 107.906V122.926C357.677 124.493 356.577 126.391 355.206 127.174L353.82 127.973V135.927L346.89 131.98L333.03 139.979C331.675 140.763 330.56 140.13 330.56 138.578V123.559C330.56 121.992 331.66 120.094 333.015 119.31ZM348.969 121.947C349.692 122.353 350.867 121.675 351.591 120.44C352.314 119.19 352.314 117.849 351.591 117.442C350.867 117.035 349.692 117.713 348.969 118.949C348.246 120.184 348.246 121.525 348.969 121.947ZM342.958 125.412C343.681 125.818 344.856 125.14 345.58 123.905C346.303 122.655 346.303 121.314 345.58 120.907C344.856 120.5 343.681 121.178 342.958 122.414C342.235 123.664 342.235 125.005 342.958 125.412ZM336.947 128.877C337.671 129.283 338.846 128.605 339.569 127.37C340.292 126.12 340.292 124.779 339.569 124.372C338.846 123.965 337.671 124.643 336.947 125.879C336.224 127.129 336.224 128.47 336.947 128.877Z" fill="#427AE8"/>
<path d="M168.005 208.111C167.997 208.005 167.98 207.914 167.956 207.824C167.964 207.799 167.956 207.783 167.948 207.767C167.939 207.66 167.907 207.569 167.874 207.487C167.833 207.34 167.767 207.208 167.685 207.085C167.668 207.019 167.619 206.97 167.578 206.921C167.545 206.88 167.529 206.839 167.488 206.806C167.422 206.724 167.365 206.658 167.283 206.601C167.283 206.601 167.274 206.592 167.258 206.576C167.176 206.51 167.086 206.461 166.987 206.42C166.42 206.149 165.69 206.223 164.877 206.691L7.14424 297.45C5.42003 298.452 4.00781 300.882 4.00781 304.38V438.844C4.00781 440.502 5.79771 441.537 7.22634 440.708L164.885 349.94C166.609 348.947 168.022 346.516 168.022 344.505V208.505C168.022 208.366 168.013 208.235 168.005 208.111Z" fill="#1E3A70"/>
<path d="M5.13159 440.741L4.96737 440.65L1.66674 438.737C0.771789 438.228 0.172416 437.325 0.0328366 436.307C0.0164156 436.151 0 436.003 0 435.847V306.613L4.00673 308.961V438.844C4.00673 439.14 4.07242 439.394 4.15453 439.616C4.45832 440.404 5.13159 440.741 5.13159 440.741Z" fill="#23488D"/>
<g opacity="0.5">
<mask id="mask0_814_2" style="mask-type:alpha" maskUnits="userSpaceOnUse" x="4" y="206" width="165" height="235">
<path d="M167.997 207.848C167.989 207.741 167.973 207.651 167.948 207.561C167.956 207.536 167.948 207.52 167.94 207.503C167.932 207.397 167.899 207.306 167.866 207.224C167.825 207.076 167.759 206.945 167.677 206.822C167.661 206.756 167.611 206.707 167.57 206.658C167.538 206.617 167.521 206.576 167.48 206.543C167.414 206.461 167.357 206.395 167.275 206.337C167.275 206.337 167.267 206.329 167.25 206.313C167.168 206.247 167.078 206.198 166.979 206.157C166.413 205.886 165.682 205.96 164.869 206.428L7.13643 297.187C5.41222 298.189 4 300.619 4 304.117V438.581C4 440.239 5.7899 441.274 7.21853 440.444L164.877 349.677C166.602 348.684 168.014 346.253 168.014 344.242V208.242C168.014 208.103 168.006 207.971 167.997 207.848Z" fill="#1E3A70"/>
</mask>
<g mask="url(#mask0_814_2)">
<path d="M295.075 251.209L295.076 251.208C299.85 248.458 304.248 243.327 307.456 237.191C310.661 231.064 312.626 224.036 312.626 217.582V15.5417C312.626 9.06432 310.656 4.58587 307.74 2.38078C304.885 0.223056 300.827 0.028498 296.075 2.76561C296.075 2.76576 296.075 2.7659 296.075 2.76604L38.5432 151.548L38.5421 151.549C33.768 154.299 29.3707 159.43 26.1619 165.566C22.9576 171.693 20.9924 178.721 20.9924 185.175V387.216C20.9924 393.693 22.962 398.171 25.8788 400.376C28.7331 402.534 32.792 402.729 37.5437 399.991L295.075 251.209Z" stroke="#427AE8" stroke-width="2"/>
<path d="M89.1074 425.574L346.64 276.791C356.618 271.042 364.69 255.583 364.69 242.298V40.2578C364.69 26.9731 356.618 20.8669 346.64 26.6156L89.1074 175.398C79.1289 181.147 71.0569 196.606 71.0569 209.891V411.932C71.0569 425.216 79.1289 431.322 89.1074 425.574Z" fill="url(#paint11_linear_814_2)"/>
<path d="M86.7825 415.179L341.575 268.004C349.587 262.911 354.562 252.724 354.562 242.299V39.2751C354.562 36.8028 351.881 35.2837 349.736 36.505C349.498 36.6539 349.289 36.773 349.17 36.8326L94.1695 184.156C84.6081 189.666 81.1826 199.436 81.1826 209.861V412.408C81.1826 415.059 84.0421 416.727 86.3357 415.417C86.5442 415.327 86.6931 415.238 86.7825 415.179Z" fill="#274174"/>
<path d="M94.1695 184.186L349.17 36.8624C349.289 36.8028 349.498 36.6837 349.736 36.5347C351.881 35.2837 354.562 36.8326 354.562 39.3049V242.328C354.562 252.754 349.587 262.941 341.575 268.034L86.7825 415.208C86.6931 415.268 86.5441 415.357 86.3654 415.447C84.0719 416.757 81.2124 415.089 81.2124 412.438V209.891C81.1826 199.466 84.6081 189.696 94.1695 184.186ZM83.2081 412.438C83.2081 413.332 83.9528 413.868 84.6378 413.868C84.8761 413.868 85.1144 413.808 85.3527 413.689L340.562 266.277C347.8 261.66 352.536 252.247 352.536 242.328V39.3049C352.536 38.59 351.911 38.1432 351.345 38.1432C351.136 38.1432 350.957 38.2028 350.749 38.3219L95.1822 185.973C85.2932 191.692 83.2081 202.147 83.2081 209.921V412.438Z" fill="#163572"/>
<path d="M83.9834 172.688L341.516 23.9055C345.448 21.6417 349.112 21.1949 352.09 22.3566C352.477 22.5055 357.511 25.1862 357.869 25.365H357.898C354.83 23.8756 350.928 24.1437 346.669 26.616L89.1365 175.399C79.158 181.147 71.086 196.607 71.086 209.891V411.932C71.086 420.242 74.2433 425.723 79.0389 427.302C78.6516 427.332 78.1751 427.183 77.4602 426.766C77.2219 426.646 71.7711 423.549 71.5626 423.4C68.1371 420.987 65.9924 416.072 65.9924 409.221V207.181C65.9329 193.866 74.005 178.437 83.9834 172.688Z" fill="url(#paint12_linear_814_2)"/>
<path d="M88.2428 174.952L345.775 26.1693C349.856 23.8162 353.609 23.4588 356.647 24.7694C354.056 24.3524 351.107 24.9779 347.95 26.7949L90.4173 175.578C80.4388 181.326 72.3667 196.785 72.3667 210.07V412.111C72.3667 419.945 75.1965 425.276 79.5453 427.153C73.9752 426.259 70.1923 420.54 70.1923 411.456V209.415C70.1923 196.16 78.2644 180.731 88.2428 174.952Z" fill="white"/>
<path d="M249.332 236.804L206.248 264.36C206.248 264.36 183.278 285.592 162.686 308.189C150.196 321.915 142.298 340.263 142.711 354.782L142.71 380.237L316.491 279.737L315.647 244.175C315.234 229.656 306.615 221.851 293.784 224.33C272.666 228.409 249.332 236.804 249.332 236.804Z" fill="#10295A"/>
</g>
</g>
<path d="M166.994 206.428C166.427 206.158 165.696 206.231 164.884 206.699L7.14277 297.45C5.41856 298.452 4.00634 300.882 4.00634 302.886V308.962L0.0078125 306.613V300.603C0.0078125 298.608 1.4036 296.178 3.13603 295.184L160.885 204.433C161.78 203.908 162.585 203.9 163.159 204.244C163.718 204.581 166.32 206.075 166.994 206.428Z" fill="#BA68C8"/>
<path d="M168.012 208.481C167.996 206.502 166.6 205.698 164.884 206.699L7.14327 297.45C5.41084 298.452 4.00684 300.882 4.00684 302.877V308.961L168.012 214.598V208.481Z" fill="url(#paint13_linear_814_2)"/>
<path d="M164.884 206.699L7.1429 297.45C6.289 297.951 5.50079 298.797 4.93426 299.774L0.952148 297.467C1.51046 296.498 2.28226 295.66 3.13615 295.176L160.877 204.425C161.772 203.9 162.577 203.891 163.151 204.236C163.71 204.581 166.312 206.059 166.977 206.412C166.427 206.157 165.688 206.231 164.884 206.699Z" fill="#466AAE"/>
<path d="M0 306.63V300.612C0 299.593 0.369465 298.477 0.952413 297.475L4.94273 299.774C4.35979 300.759 4.00673 301.876 4.00673 302.886V308.97L0 306.63Z" fill="#23488D"/>
<path d="M155.663 214.918C155.006 215.296 154.473 216.429 154.473 217.439C154.473 218.449 155.006 218.966 155.663 218.588C156.32 218.21 156.854 217.077 156.854 216.068C156.854 215.049 156.32 214.54 155.663 214.918Z" fill="white"/>
<path d="M159.949 212.439C159.292 212.816 158.759 213.949 158.759 214.959C158.759 215.969 159.292 216.486 159.949 216.109C160.606 215.731 161.14 214.598 161.14 213.588C161.14 212.57 160.606 212.061 159.949 212.439Z" fill="white"/>
<path d="M164.235 209.959C163.579 210.337 163.045 211.47 163.045 212.48C163.045 213.49 163.579 214.007 164.235 213.629C164.892 213.251 165.426 212.118 165.426 211.109C165.426 210.09 164.892 209.581 164.235 209.959Z" fill="white"/>
<path d="M168.022 344.513V328.921L4.00781 423.614V438.844C4.00781 440.503 5.79771 441.537 7.22634 440.708L164.885 349.94C166.609 348.947 168.022 346.525 168.022 344.513Z" fill="url(#paint14_linear_814_2)"/>
<path d="M24.2637 424.443V418.416C24.2637 417.981 24.5428 417.521 24.8056 417.521L30.1096 417.472C30.4626 417.472 30.4626 418.236 30.1096 418.638L24.8056 424.714C24.5428 425.009 24.2637 424.87 24.2637 424.443Z" fill="white"/>
<path d="M36.6191 417.308V411.281C36.6191 410.846 36.8983 410.386 37.161 410.386L42.4651 410.337C42.8181 410.337 42.8181 411.101 42.4651 411.503L37.161 417.579C36.8983 417.874 36.6191 417.735 36.6191 417.308Z" fill="white"/>
<path d="M43.1308 414.163C42.9092 414.295 42.7285 414.155 42.7285 413.86V407.677C42.7285 407.381 42.9092 407.028 43.1308 406.905C43.3525 406.774 43.5331 406.913 43.5331 407.209V413.392C43.5414 413.687 43.3607 414.032 43.1308 414.163Z" fill="white"/>
<path d="M18.015 428.048V422.021C18.015 421.586 17.7358 421.454 17.4731 421.75L12.1691 427.826C11.816 428.228 11.816 428.992 12.1691 428.992L17.4731 428.943C17.7358 428.943 18.015 428.475 18.015 428.048Z" fill="white"/>
<path d="M11.497 432.432C11.7187 432.301 11.8994 431.956 11.8994 431.66V425.478C11.8994 425.182 11.7187 425.042 11.497 425.174C11.2754 425.305 11.0947 425.65 11.0947 425.946V432.128C11.0947 432.424 11.2754 432.555 11.497 432.432Z" fill="white"/>
<path d="M139.104 358.57C139.022 358.57 138.94 358.545 138.874 358.504C138.727 358.422 138.645 358.266 138.645 358.102V351.23C138.645 351.065 138.735 350.909 138.874 350.827L147.996 345.564C148.144 345.482 148.317 345.482 148.464 345.564C148.612 345.646 148.694 345.802 148.694 345.967V352.839C148.694 353.003 148.604 353.159 148.464 353.241L139.342 358.504C139.269 358.545 139.186 358.57 139.104 358.57ZM139.572 351.5V357.297L147.758 352.568V346.771L139.572 351.5Z" fill="white"/>
<path d="M155.156 344.965C154.901 344.965 154.688 344.751 154.688 344.497V341.738C154.688 341.574 154.778 341.418 154.917 341.336L157.126 340.063C157.348 339.932 157.635 340.014 157.766 340.236C157.898 340.457 157.816 340.745 157.594 340.876L155.624 342.017V344.505C155.624 344.751 155.41 344.965 155.156 344.965Z" fill="white"/>
<path d="M161.167 341.492C160.912 341.492 160.699 341.278 160.699 341.024V339.078L159.188 339.948C158.966 340.08 158.679 339.998 158.547 339.776C158.416 339.554 158.498 339.267 158.72 339.135L160.928 337.863C161.076 337.781 161.249 337.781 161.396 337.863C161.544 337.945 161.626 338.101 161.626 338.265V341.024C161.635 341.287 161.421 341.492 161.167 341.492Z" fill="white"/>
<path d="M158.957 347.978C158.793 347.978 158.637 347.896 158.555 347.748C158.424 347.527 158.506 347.239 158.728 347.108L160.698 345.967V343.479C160.698 343.224 160.912 343.011 161.166 343.011C161.421 343.011 161.634 343.224 161.634 343.479V346.237C161.634 346.402 161.544 346.558 161.404 346.64L159.196 347.912C159.113 347.962 159.04 347.978 158.957 347.978Z" fill="white"/>
<path d="M155.156 350.17C155.074 350.17 154.992 350.146 154.926 350.105C154.778 350.023 154.696 349.867 154.696 349.702V346.944C154.696 346.689 154.91 346.476 155.164 346.476C155.419 346.476 155.632 346.689 155.632 346.944V348.889L157.143 348.019C157.365 347.888 157.652 347.97 157.783 348.192C157.915 348.413 157.833 348.701 157.611 348.832L155.402 350.105C155.312 350.154 155.238 350.17 155.156 350.17Z" fill="white"/>
<path d="M126.33 362.848L127.217 362.462C127.274 362.437 127.323 362.47 127.34 362.527C127.397 362.749 127.471 362.946 127.562 363.119C127.586 363.16 127.562 363.291 127.512 363.398L127.011 364.523C126.962 364.638 126.946 364.753 126.979 364.777L127.693 365.319C127.726 365.344 127.808 365.278 127.865 365.179L128.489 364.153C128.555 364.046 128.637 363.973 128.678 363.981C128.851 364.005 129.031 364.005 129.22 363.973C129.269 363.964 129.319 364.014 129.319 364.079L129.417 365.212C129.425 365.278 129.475 365.311 129.532 365.278L130.509 364.72C130.567 364.687 130.616 364.588 130.624 364.506L130.723 363.299C130.731 363.217 130.788 363.094 130.854 363.028C131.018 362.864 131.174 362.692 131.322 362.503C131.388 362.421 131.47 362.355 131.511 362.38L132.233 362.733C132.274 362.749 132.348 362.675 132.406 362.569L133.03 361.37C133.087 361.255 133.112 361.14 133.079 361.107L132.504 360.483C132.471 360.45 132.48 360.335 132.521 360.22C132.595 359.974 132.66 359.728 132.718 359.481C132.734 359.383 132.8 359.268 132.866 359.227L133.736 358.603C133.793 358.562 133.843 358.463 133.843 358.381V357.084C133.843 357.01 133.802 356.961 133.744 356.985L132.857 357.371C132.8 357.396 132.751 357.363 132.734 357.306C132.677 357.084 132.603 356.887 132.513 356.714C132.488 356.673 132.512 356.542 132.562 356.435L133.063 355.31C133.112 355.195 133.128 355.081 133.095 355.056L132.381 354.514C132.348 354.489 132.266 354.555 132.209 354.654L131.585 355.68C131.519 355.787 131.437 355.861 131.396 355.852C131.223 355.828 131.043 355.828 130.854 355.86C130.805 355.869 130.755 355.819 130.755 355.754L130.657 354.621C130.649 354.555 130.599 354.522 130.542 354.555L129.565 355.113C129.507 355.146 129.458 355.245 129.45 355.327L129.351 356.534C129.343 356.616 129.286 356.739 129.22 356.805C129.056 356.969 128.9 357.141 128.752 357.33C128.686 357.412 128.604 357.478 128.563 357.453L127.841 357.1C127.8 357.084 127.726 357.158 127.668 357.265L127.044 358.463C126.987 358.578 126.962 358.693 126.995 358.726L127.57 359.35C127.603 359.383 127.594 359.498 127.553 359.613C127.479 359.859 127.414 360.105 127.356 360.352C127.34 360.45 127.274 360.565 127.209 360.606L126.338 361.23C126.281 361.271 126.231 361.37 126.231 361.452V362.749C126.231 362.831 126.272 362.872 126.33 362.848ZM128.391 360.853C128.391 359.646 129.13 358.233 130.033 357.708C130.944 357.182 131.675 357.741 131.675 358.948C131.675 360.155 130.936 361.567 130.033 362.092C129.122 362.618 128.391 362.068 128.391 360.853Z" fill="white"/>
<path d="M71.5315 363.537C68.1241 363.537 64.9713 362.732 62.1715 361.115C55.4717 357.248 51.7852 349.242 51.7852 338.585C51.7852 317.377 66.7448 291.506 85.1282 280.914C94.3732 275.594 103.158 274.789 109.858 278.665C116.558 282.532 120.245 290.537 120.245 301.194C120.245 322.402 105.285 348.274 86.9016 358.865C81.5155 361.969 76.2772 363.537 71.5315 363.537ZM86.9016 283.985C69.4953 294.01 55.3321 318.51 55.3321 338.585C55.3321 347.921 58.3946 354.834 63.945 358.044C69.5035 361.263 77.0244 360.458 85.1282 355.786C102.534 345.761 116.698 321.269 116.698 301.186C116.698 291.851 113.635 284.938 108.085 281.727C102.526 278.517 95.0054 279.313 86.9016 283.985Z" fill="white"/>
<path d="M70.7188 309.586V347.568C70.7188 349.563 71.7779 349.957 73.0834 348.446L107.51 308.699C108.816 307.188 108.257 305.965 106.262 305.965H74.3314C72.3362 305.973 70.7188 307.591 70.7188 309.586Z" fill="white"/>
<defs>
<linearGradient id="paint0_linear_814_2" x1="461.021" y1="-4.84763" x2="-181.503" y2="-12.8678" gradientUnits="userSpaceOnUse">
<stop stop-color="#EFFCFB"/>
<stop offset="1" stop-color="#5D8BE4"/>
</linearGradient>
<linearGradient id="paint1_linear_814_2" x1="453.662" y1="-7.7312" x2="-185.084" y2="-15.6126" gradientUnits="userSpaceOnUse">
<stop stop-color="#EFFCFB"/>
<stop offset="1" stop-color="#5D8BE4"/>
</linearGradient>
<linearGradient id="paint2_linear_814_2" x1="447.76" y1="10.7354" x2="-151.149" y2="-7.56698" gradientUnits="userSpaceOnUse">
<stop stop-color="#EFFCFB"/>
<stop offset="1" stop-color="#5D8BE4"/>
</linearGradient>
<linearGradient id="paint3_linear_814_2" x1="207.13" y1="164.601" x2="86.8225" y2="266.553" gradientUnits="userSpaceOnUse">
<stop stop-color="#FBFCFF"/>
<stop offset="1" stop-color="#5D8BE4"/>
</linearGradient>
<linearGradient id="paint4_linear_814_2" x1="226" y1="156" x2="90.0536" y2="371.032" gradientUnits="userSpaceOnUse">
<stop stop-color="#FBFCFF"/>
<stop offset="1" stop-color="#5D8BE4"/>
</linearGradient>
<linearGradient id="paint5_linear_814_2" x1="321.682" y1="104.384" x2="320.728" y2="275.7" gradientUnits="userSpaceOnUse">
<stop stop-color="#F4F8FF"/>
<stop offset="1" stop-color="#5D8BE4"/>
</linearGradient>
<linearGradient id="paint6_linear_814_2" x1="396.746" y1="87.7807" x2="573.876" y2="276.677" gradientUnits="userSpaceOnUse">
<stop stop-color="#FBFCFF"/>
<stop offset="1" stop-color="#5D8BE4"/>
</linearGradient>
<linearGradient id="paint7_linear_814_2" x1="407.145" y1="79.2451" x2="407.115" y2="200.401" gradientUnits="userSpaceOnUse">
<stop stop-color="#F4F8FF"/>
<stop offset="1" stop-color="#5D8BE4"/>
</linearGradient>
<linearGradient id="paint8_linear_814_2" x1="323.105" y1="69.7419" x2="322.794" y2="171.306" gradientUnits="userSpaceOnUse">
<stop stop-color="#F4F8FF"/>
<stop offset="1" stop-color="#5D8BE4"/>
</linearGradient>
<linearGradient id="paint9_linear_814_2" x1="397.095" y1="34.1187" x2="522.908" y2="210.619" gradientUnits="userSpaceOnUse">
<stop stop-color="#FBFCFF"/>
<stop offset="1" stop-color="#5D8BE4"/>
</linearGradient>
<linearGradient id="paint10_linear_814_2" x1="407.37" y1="12.7208" x2="407.34" y2="135.233" gradientUnits="userSpaceOnUse">
<stop stop-color="#F4F8FF"/>
<stop offset="1" stop-color="#5D8BE4"/>
</linearGradient>
<linearGradient id="paint11_linear_814_2" x1="461.013" y1="-5.11081" x2="-181.511" y2="-13.1309" gradientUnits="userSpaceOnUse">
<stop stop-color="#EFFCFB"/>
<stop offset="1" stop-color="#5D8BE4"/>
</linearGradient>
<linearGradient id="paint12_linear_814_2" x1="453.654" y1="-7.99438" x2="-185.092" y2="-15.8758" gradientUnits="userSpaceOnUse">
<stop stop-color="#EFFCFB"/>
<stop offset="1" stop-color="#5D8BE4"/>
</linearGradient>
<linearGradient id="paint13_linear_814_2" x1="-2.34452" y1="97.5706" x2="-2.27932" y2="342.908" gradientUnits="userSpaceOnUse">
<stop stop-color="#F4F8FF"/>
<stop offset="1" stop-color="#5D8BE4"/>
</linearGradient>
<linearGradient id="paint14_linear_814_2" x1="-2.34386" y1="210.29" x2="-2.26621" y2="478.049" gradientUnits="userSpaceOnUse">
<stop stop-color="#F4F8FF"/>
<stop offset="1" stop-color="#5D8BE4"/>
</linearGradient>
</defs>
</svg>
