<svg width="344" height="344" viewBox="0 0 344 344" fill="none" xmlns="http://www.w3.org/2000/svg">
<g opacity="0.5">
<g filter="url(#filter0_f_814_1332)">
<circle cx="90" cy="90" r="90" transform="matrix(0 -1 -1 0 262 262)" fill="url(#paint0_radial_814_1332)" fill-opacity="0.4"/>
</g>
</g>
<path d="M184.365 79.7681L197.982 79.9868C211.938 80.2091 225.738 89.6533 236.031 108.226L222.413 108.007C212.12 89.4347 198.321 79.9904 184.365 79.7681Z" fill="#203C73"/>
<path d="M194.951 266.368L181.333 266.15C195.114 266.373 209.036 257.614 219.887 239.794C241.739 203.916 242.867 144.915 222.403 108.004L236.02 108.223C256.485 145.134 255.356 204.134 233.505 240.012C222.653 257.832 208.731 266.591 194.951 266.368Z" fill="#203C73"/>
<path d="M222.413 108.007C242.878 144.918 241.749 203.919 219.898 239.796C198.05 275.666 163.748 274.83 143.287 237.91C122.822 201 123.951 141.999 145.802 106.121C167.659 70.2554 201.961 71.0912 222.413 108.007Z" fill="#334F8A"/>
<path d="M214.764 120.578C231.264 150.343 230.355 197.921 212.737 226.853C195.119 255.785 167.458 255.103 150.958 225.338C134.458 195.573 135.367 147.995 152.985 119.063C170.603 90.1311 198.264 90.8125 214.764 120.578Z" fill="url(#paint1_linear_814_1332)"/>
<path d="M206.351 134.388C218.502 156.308 217.828 191.341 204.857 212.643C191.885 233.945 171.513 233.444 159.371 211.527C147.221 189.607 147.894 154.575 160.862 133.282C173.838 111.971 194.197 112.477 206.351 134.388Z" fill="#334F8A"/>
<path d="M198.527 147.236C206.632 161.855 206.185 185.221 197.529 199.426C188.873 213.631 175.293 213.294 167.197 198.679C159.091 184.06 159.538 160.694 168.194 146.489C176.841 132.281 190.421 132.618 198.527 147.236Z" fill="url(#paint2_linear_814_1332)"/>
<path d="M191.543 158.702C196.033 166.809 195.787 179.76 190.988 187.637C186.19 195.513 178.665 195.329 174.176 187.222C169.686 179.116 169.932 166.164 174.731 158.288C179.52 150.408 187.045 150.592 191.543 158.702Z" fill="#334F8A"/>
<path d="M127.07 144.268C115.863 133.442 105.476 120.957 94.297 116.123C83.1176 111.29 81.8744 118.328 84.9255 126.047L127.07 144.268Z" fill="#10295A"/>
<path d="M179.137 165.736L151.084 151.824C151.314 151.917 151.501 152.116 151.618 152.409L179.101 165.824L179.137 165.736Z" fill="white"/>
<path d="M179.097 165.833L151.613 152.419C151.676 152.567 151.72 152.739 151.743 152.933L179.043 165.965L179.097 165.833Z" fill="white"/>
<path d="M178.712 166.775L179.046 165.956L151.747 152.924C151.835 153.719 151.559 154.674 151.067 155.399L178.712 166.775Z" fill="white"/>
<path d="M178.712 166.775L151.063 155.408C150.852 155.723 150.596 155.998 150.325 156.207C149.868 156.545 149.428 156.613 149.084 156.474L178.489 167.321L178.712 166.775Z" fill="white"/>
<path d="M151.744 152.933C151.876 154.074 151.237 155.539 150.314 156.212C149.4 156.888 148.544 156.511 148.421 155.373C148.294 154.245 148.924 152.776 149.847 152.103C150.765 151.418 151.612 151.792 151.744 152.933Z" fill="#23232A"/>
<path d="M142.268 146.799L161.025 154.844C161.525 155.057 161.889 155.604 161.983 156.432L143.226 148.387C143.132 147.559 142.777 147.015 142.268 146.799Z" fill="#FFC400"/>
<path d="M142.268 146.799L161.025 154.844C161.357 154.989 161.623 155.271 161.801 155.692L143.044 147.647C142.875 147.229 142.6 146.944 142.268 146.799Z" fill="#427AE8"/>
<path d="M143.045 147.647L161.802 155.692C161.891 155.902 161.954 156.153 161.989 156.445L143.232 148.4C143.197 148.108 143.134 147.858 143.045 147.647Z" fill="#427AE8"/>
<path d="M142.241 151.99L160.998 160.035C160.688 160.494 160.317 160.898 159.917 161.198C159.253 161.689 158.611 161.798 158.111 161.585L139.354 153.54C139.854 153.753 140.496 153.644 141.16 153.153C141.56 152.853 141.931 152.449 142.241 151.99Z" fill="#427AE8"/>
<path d="M143.227 148.387C143.42 150.035 142.487 152.171 141.155 153.14C139.819 154.118 138.587 153.578 138.394 151.93C138.201 150.282 139.13 148.155 140.47 147.169C141.802 146.2 143.043 146.743 143.227 148.387Z" fill="#8EB5FF"/>
<path d="M127.336 144.273C111.742 143.521 95.4995 144.486 84.3201 139.653C73.1406 134.819 77.4451 129.113 85.1917 126.052L127.336 144.273Z" fill="#10295A"/>
<path d="M85.1367 125.784L141.62 147.378C142.005 147.544 142.278 147.962 142.358 148.6L85.1367 125.784Z" fill="#FE8EA7"/>
<path d="M85.1357 125.784L141.619 147.378C141.872 147.491 142.082 147.709 142.209 148.027L85.1357 125.784Z" fill="#10295A"/>
<path d="M85.1371 125.784L142.214 148.018C142.282 148.179 142.336 148.376 142.353 148.587L85.1371 125.784Z" fill="#10295A"/>
<path d="M139.394 152.531L85.136 125.784L142.352 148.587C142.497 149.847 141.79 151.479 140.766 152.224C140.269 152.608 139.78 152.697 139.394 152.531Z" fill="#FF698D"/>
<path d="M85.136 125.784L142.352 148.587C142.455 149.471 142.139 150.523 141.591 151.337L85.136 125.784Z" fill="#10295A"/>
<path d="M85.1357 125.784L141.596 151.349C141.358 151.705 141.078 152.012 140.771 152.236C140.269 152.608 139.779 152.697 139.394 152.531L85.1357 125.784Z" fill="#10295A"/>
<path d="M127.633 142.813C122.264 134.514 119.672 125.39 108.489 120.565C97.31 115.732 88.3266 120.765 85.1367 125.784L127.633 142.813Z" fill="#203C73"/>
<path d="M126.642 145.09C116.89 146.857 109.079 150.302 97.8998 145.469C86.7204 140.635 83.6367 131.733 85.1387 125.979L126.642 145.09Z" fill="#203C73"/>
<path d="M131.288 180.716C116.07 177.275 100.675 171.996 88.6039 173.666C76.5332 175.336 79.1455 181.985 85.7813 187L131.288 180.716Z" fill="#10295A"/>
<path d="M181.765 172.516L155.743 174.735C155.993 174.703 156.251 174.777 156.496 174.958L181.707 172.657L181.765 172.516Z" fill="white"/>
<path d="M181.712 172.648L156.501 174.949C156.628 175.042 156.762 175.168 156.881 175.329L181.629 172.851L181.712 172.648Z" fill="white"/>
<path d="M181.63 172.851L156.882 175.329C157.377 175.96 157.636 176.916 157.593 177.802L181.11 174.128L181.63 172.851Z" fill="white"/>
<path d="M181.113 174.119L157.597 177.793C157.584 178.178 157.51 178.538 157.377 178.863C157.165 179.383 156.828 179.678 156.456 179.732L180.747 175.017L181.113 174.119Z" fill="white"/>
<path d="M156.881 175.329C157.585 176.23 157.803 177.816 157.376 178.864C156.945 179.921 156.021 180.039 155.321 179.13C154.617 178.229 154.399 176.643 154.827 175.595C155.254 174.547 156.178 174.429 156.881 175.329Z" fill="#23232A"/>
<path d="M145.586 174.994L165.812 172.142C166.358 172.066 166.953 172.348 167.467 173.007L147.242 175.859C146.724 175.209 146.129 174.926 145.586 174.994Z" fill="#FFC400"/>
<path d="M145.588 174.994L165.813 172.142C166.173 172.093 166.553 172.195 166.917 172.466L146.691 175.318C146.324 175.056 145.948 174.945 145.588 174.994Z" fill="#427AE8"/>
<path d="M146.692 175.317L166.917 172.465C167.108 172.604 167.293 172.781 167.469 173.007L147.244 175.859C147.068 175.633 146.883 175.456 146.692 175.317Z" fill="#427AE8"/>
<path d="M166.842 179.413L146.617 182.265C147.154 182.185 147.643 181.768 147.956 181.002C148.586 179.482 148.269 177.178 147.238 175.868L167.463 173.016C168.485 174.323 168.802 176.626 168.181 178.15C167.86 178.912 167.375 179.342 166.842 179.413Z" fill="#FFC400"/>
<path d="M147.243 175.859L167.468 173.007C168.177 173.92 168.556 175.315 168.497 176.594L148.272 179.446C148.318 178.172 147.952 176.772 147.243 175.859Z" fill="#427AE8"/>
<path d="M148.272 179.446L168.497 176.594C168.476 177.15 168.372 177.682 168.182 178.149C167.873 178.906 167.38 179.333 166.843 179.413L146.618 182.265C147.155 182.185 147.644 181.767 147.957 181.001C148.147 180.535 148.251 180.002 148.272 179.446Z" fill="#427AE8"/>
<path d="M147.242 175.859C148.265 177.166 148.581 179.469 147.96 180.993C147.326 182.521 145.997 182.701 144.966 181.391C143.943 180.085 143.626 177.781 144.251 176.249C144.878 174.738 146.22 174.553 147.242 175.859Z" fill="#8EB5FF"/>
<path d="M131.506 180.58C117.797 188.01 104.427 197.259 92.3562 198.928C80.289 200.589 80.9834 193.483 86.0034 186.856L131.506 180.58Z" fill="#10295A"/>
<path d="M85.8175 186.657L145.327 175.833C145.742 175.775 146.2 175.991 146.59 176.498L85.8175 186.657Z" fill="#FE8EA7"/>
<path d="M85.8165 186.657L145.326 175.833C145.601 175.791 145.886 175.875 146.172 176.083L85.8165 186.657Z" fill="#10295A"/>
<path d="M85.8164 186.657L146.175 176.075C146.316 176.183 146.459 176.313 146.593 176.49L85.8164 186.657Z" fill="#10295A"/>
<path d="M146.125 181.378L85.8215 186.648L146.598 176.481C147.382 177.486 147.626 179.236 147.149 180.408C146.908 180.998 146.539 181.32 146.125 181.378Z" fill="#FF698D"/>
<path d="M85.8186 186.657L146.595 176.489C147.142 177.193 147.43 178.254 147.382 179.229L85.8186 186.657Z" fill="#10295A"/>
<path d="M85.8176 186.657L147.39 179.233C147.372 179.657 147.297 180.067 147.145 180.416C146.908 180.997 146.539 181.32 146.124 181.378L85.8176 186.657Z" fill="#10295A"/>
<path d="M131.008 179.178C122.086 174.868 115.116 168.425 103.046 170.094C90.9748 171.764 85.9262 180.709 85.8175 186.657L131.008 179.178Z" fill="#203C73"/>
<path d="M131.342 181.642C123.929 188.203 119.066 195.202 106.999 196.863C94.9321 198.524 87.6497 192.518 85.9251 186.823L131.342 181.642Z" fill="#203C73"/>
<path d="M143.227 148.388L161.984 156.433C162.112 157.582 161.702 158.966 160.989 160.032L142.232 151.987C142.954 150.924 143.364 149.541 143.227 148.388Z" fill="#427AE8"/>
<defs>
<filter id="filter0_f_814_1332" x="0" y="0" width="344" height="344" filterUnits="userSpaceOnUse" color-interpolation-filters="sRGB">
<feFlood flood-opacity="0" result="BackgroundImageFix"/>
<feBlend mode="normal" in="SourceGraphic" in2="BackgroundImageFix" result="shape"/>
<feGaussianBlur stdDeviation="41" result="effect1_foregroundBlur_814_1332"/>
</filter>
<radialGradient id="paint0_radial_814_1332" cx="0" cy="0" r="1" gradientUnits="userSpaceOnUse" gradientTransform="translate(90 90) rotate(45) scale(127.279 703.822)">
<stop stop-color="#427AE8"/>
<stop offset="1" stop-opacity="0"/>
</radialGradient>
<linearGradient id="paint1_linear_814_1332" x1="167.106" y1="105.96" x2="235.685" y2="350.908" gradientUnits="userSpaceOnUse">
<stop stop-color="#FBFCFF"/>
<stop offset="1" stop-color="#5D8BE4"/>
</linearGradient>
<linearGradient id="paint2_linear_814_1332" x1="175.125" y1="140.058" x2="208.804" y2="260.342" gradientUnits="userSpaceOnUse">
<stop stop-color="#FBFCFF"/>
<stop offset="1" stop-color="#5D8BE4"/>
</linearGradient>
</defs>
</svg>
