<svg width="796" height="736" viewBox="0 0 796 736" fill="none" xmlns="http://www.w3.org/2000/svg">
<path d="M491.831 0L470.73 19.7L498.341 28.1238L491.831 0ZM26.1711 535.204C27.6429 534.416 29.1112 533.629 30.576 532.843L28.2111 528.437C26.748 529.223 25.2814 530.009 23.8113 530.796L26.1711 535.204ZM39.3235 528.133C42.2291 526.564 45.121 524.997 47.9991 523.433L45.611 519.04C42.7372 520.602 39.8494 522.167 36.9476 523.734L39.3235 528.133ZM56.7504 518.658C59.6534 517.068 62.5421 515.48 65.4167 513.893L63 509.516C60.1306 511.1 57.2469 512.685 54.3487 514.272L56.7504 518.658ZM74.1079 509.073C77.0082 507.458 79.8938 505.843 82.765 504.228L80.314 499.87C77.449 501.481 74.5693 503.093 71.6748 504.705L74.1079 509.073ZM91.3864 499.354C94.2801 497.71 97.1589 496.065 100.023 494.419L97.5314 490.084C94.6747 491.726 91.8029 493.367 88.916 495.007L91.3864 499.354ZM108.574 489.475C111.457 487.798 114.325 486.12 117.177 484.439L114.639 480.131C111.795 481.807 108.935 483.481 106.06 485.153L108.574 489.475ZM125.69 479.389C128.547 477.682 131.388 475.973 134.214 474.26L131.622 469.984C128.806 471.691 125.974 473.395 123.126 475.097L125.69 479.389ZM142.678 469.09C145.506 467.349 148.319 465.604 151.116 463.854L148.463 459.616C145.677 461.359 142.875 463.098 140.057 464.832L142.678 469.09ZM159.517 458.553C162.314 456.772 165.096 454.986 167.862 453.193L165.142 448.997C162.388 450.782 159.618 452.561 156.832 454.335L159.517 458.553ZM176.185 447.748C178.949 445.922 181.698 444.089 184.43 442.248L181.637 438.101C178.917 439.933 176.181 441.758 173.429 443.576L176.185 447.748ZM192.66 436.647C195.389 434.77 198.101 432.885 200.797 430.991L197.922 426.9C195.24 428.784 192.542 430.66 189.827 432.527L192.66 436.647ZM208.917 425.222C211.607 423.289 214.281 421.346 216.939 419.392L213.978 415.363C211.335 417.307 208.675 419.239 205.999 421.162L208.917 425.222ZM224.927 413.449C227.575 411.455 230.207 409.449 232.822 407.431L229.767 403.472C227.168 405.479 224.552 407.473 221.919 409.455L224.927 413.449ZM240.662 401.304C243.262 399.246 245.845 397.174 248.413 395.088L245.26 391.207C242.709 393.28 240.142 395.338 237.558 397.383L240.662 401.304ZM256.091 388.766C258.637 386.641 261.167 384.501 263.681 382.346L260.426 378.55C257.929 380.691 255.417 382.817 252.887 384.927L256.091 388.766ZM271.184 375.82C273.671 373.627 276.142 371.417 278.597 369.189L275.237 365.486C272.8 367.698 270.346 369.892 267.877 372.07L271.184 375.82ZM285.912 362.454C288.334 360.191 290.74 357.91 293.131 355.61L289.664 352.007C287.292 354.29 284.903 356.554 282.499 358.8L285.912 362.454ZM300.245 348.661C302.598 346.329 304.935 343.976 307.256 341.604L303.682 338.107C301.379 340.461 299.06 342.796 296.725 345.11L300.245 348.661ZM314.159 334.44C316.437 332.039 318.7 329.617 320.948 327.173L317.268 323.788C315.038 326.213 312.792 328.616 310.532 330.999L314.159 334.44ZM327.629 319.795C329.829 317.327 332.015 314.837 334.185 312.324L330.402 309.055C328.248 311.549 326.08 314.019 323.897 316.468L327.629 319.795ZM340.639 304.734C342.757 302.202 344.862 299.648 346.952 297.069L343.068 293.92C340.994 296.479 338.906 299.013 336.804 301.525L340.639 304.734ZM353.173 289.27C355.208 286.679 357.229 284.063 359.236 281.423L355.256 278.397C353.264 281.016 351.259 283.611 349.24 286.183L353.173 289.27ZM365.218 273.429C367.169 270.78 369.107 268.105 371.032 265.406L366.962 262.503C365.051 265.181 363.128 267.835 361.192 270.465L365.218 273.429ZM376.762 257.242C378.634 254.532 380.493 251.797 382.34 249.037L378.184 246.256C376.351 248.996 374.506 251.711 372.648 254.4L376.762 257.242ZM387.816 240.72C389.61 237.951 391.392 235.157 393.163 232.336L388.928 229.678C387.17 232.478 385.401 235.252 383.62 238.001L387.816 240.72ZM398.384 223.888C400.104 221.059 401.813 218.205 403.511 215.325L399.204 212.786C397.518 215.646 395.82 218.481 394.112 221.289L398.384 223.888ZM408.479 206.764C410.124 203.885 411.758 200.98 413.381 198.048L409.007 195.626C407.395 198.538 405.771 201.424 404.137 204.284L408.479 206.764ZM418.115 189.368C419.678 186.459 421.23 183.524 422.772 180.563L418.338 178.254C416.805 181.196 415.263 184.112 413.71 187.003L418.115 189.368ZM427.311 171.716C428.793 168.784 430.265 165.826 431.728 162.843L427.239 160.642C425.785 163.607 424.321 166.547 422.849 169.461L427.311 171.716ZM436.087 153.819C437.49 150.87 438.884 147.897 440.27 144.899L435.731 142.802C434.353 145.783 432.967 148.739 431.572 151.67L436.087 153.819ZM444.4 135.829C445.749 132.824 447.089 129.793 448.421 126.738L443.838 124.74C442.513 127.779 441.18 130.793 439.838 133.782L444.4 135.829ZM452.329 117.645C453.623 114.589 454.91 111.509 456.188 108.403L451.564 106.5C450.292 109.59 449.013 112.654 447.725 115.694L452.329 117.645ZM459.898 99.264C461.122 96.2077 462.338 93.1275 463.547 90.0229L458.887 88.2089C457.684 91.2987 456.474 94.3643 455.256 97.4057L459.898 99.264ZM467.132 80.6847C468.288 77.6333 469.436 74.5589 470.578 71.4612L465.887 69.7319C464.75 72.8159 463.607 75.8765 462.456 78.9139L467.132 80.6847ZM473.984 62.0975C475.098 58.9913 476.206 55.8621 477.307 52.7094L472.587 51.0606C471.49 54.2001 470.387 57.3162 469.277 60.409L473.984 62.0975ZM480.522 43.3841C481.587 40.2531 482.647 37.0994 483.7 33.9227L478.954 32.3495C477.905 35.5138 476.85 38.655 475.789 41.7734L480.522 43.3841ZM486.789 24.4828C487.794 21.37 488.794 18.2355 489.788 15.0791L485.019 13.5771C484.028 16.722 483.032 19.8449 482.031 22.9459L486.789 24.4828Z" fill="white"/>
<mask id="mask0_814_1785" style="mask-type:alpha" maskUnits="userSpaceOnUse" x="0" y="275" width="796" height="461">
<path d="M0 605.804C87.6588 656.648 136.806 685.155 224.464 736L796 405.792L571.536 275.595L0 605.804Z" fill="#D9D9D9"/>
</mask>
<g mask="url(#mask0_814_1785)">
<path d="M398.369 172.735L-241.446 541.837L-240.183 544.027L399.632 174.925L398.369 172.735Z" fill="#253E53"/>
<path d="M462.308 209.574L-177.452 578.844L-176.189 581.034L463.571 211.764L462.308 209.574Z" fill="#253E53"/>
<path d="M526.176 246.473L-113.51 615.743L-112.246 617.933L527.44 248.663L526.176 246.473Z" fill="#253E53"/>
<path d="M590.277 283.447L-49.4834 652.718L-48.2201 654.908L591.54 285.637L590.277 283.447Z" fill="#253E53"/>
<path d="M654.08 320.334L14.3936 689.604L15.6568 691.794L655.343 322.524L654.08 320.334Z" fill="#253E53"/>
<path d="M718.244 357.32L78.4512 726.609L79.7145 728.8L719.507 359.51L718.244 357.32Z" fill="#253E53"/>
<path d="M782.08 394.29L142.32 763.486L143.583 765.677L783.343 396.48L782.08 394.29Z" fill="#253E53"/>
<path d="M846.13 431.198L206.37 800.469L207.633 802.659L847.393 433.388L846.13 431.198Z" fill="#253E53"/>
<path d="M910.042 468.165L270.282 837.361L271.545 839.551L911.305 470.355L910.042 468.165Z" fill="#253E53"/>
<path d="M974.065 505.091L334.305 874.361L335.568 876.552L975.328 507.281L974.065 505.091Z" fill="#253E53"/>
<path d="M1037.97 542.059L398.207 911.256L399.47 913.446L1039.23 544.25L1037.97 542.059Z" fill="#253E53"/>
<path d="M399.502 172.557L398.238 174.747L1037.88 544.184L1039.15 541.995L399.502 172.557Z" fill="#253E53"/>
<path d="M335.533 209.52L334.27 211.709L973.915 581.147L975.178 578.957L335.533 209.52Z" fill="#253E53"/>
<path d="M271.577 246.439L270.313 248.628L909.959 618.066L911.222 615.876L271.577 246.439Z" fill="#253E53"/>
<path d="M207.607 283.396L206.343 285.586L845.988 655.023L847.251 652.833L207.607 283.396Z" fill="#253E53"/>
<path d="M143.656 320.32L142.393 322.509L782.038 691.946L783.301 689.757L143.656 320.32Z" fill="#253E53"/>
<path d="M79.6876 357.279L78.4238 359.468L718.069 728.905L719.333 726.716L79.6876 357.279Z" fill="#253E53"/>
<path d="M15.7316 394.202L14.4678 396.392L654.113 765.829L655.377 763.64L15.7316 394.202Z" fill="#253E53"/>
<path d="M-48.2391 431.166L-49.5029 433.355L590.142 802.792L591.406 800.603L-48.2391 431.166Z" fill="#253E53"/>
<path d="M-112.226 468.066L-113.49 470.256L526.155 839.693L527.419 837.503L-112.226 468.066Z" fill="#253E53"/>
<path d="M-176.192 505.023L-177.456 507.213L462.189 876.65L463.453 874.46L-176.192 505.023Z" fill="#253E53"/>
<path d="M-240.151 541.95L-241.415 544.139L398.285 913.481L399.549 911.292L-240.151 541.95Z" fill="#253E53"/>
<path d="M478.062 274.208L446.365 292.5L447.628 294.69L479.325 276.398L478.062 274.208Z" fill="#45657E"/>
<path d="M447.645 274.243L446.381 276.433L478.071 294.736L479.334 292.546L447.645 274.243Z" fill="#45657E"/>
<path d="M542.038 311.15L510.338 329.437L511.601 331.627L543.301 313.34L542.038 311.15Z" fill="#45657E"/>
<path d="M511.618 311.175L510.354 313.364L542.046 331.666L543.31 329.477L511.618 311.175Z" fill="#45657E"/>
<path d="M606.015 348.083L574.317 366.375L575.58 368.566L607.278 350.274L606.015 348.083Z" fill="#45657E"/>
<path d="M575.528 348.102L574.265 350.292L605.954 368.595L607.218 366.405L575.528 348.102Z" fill="#45657E"/>
<path d="M669.93 385.025L638.233 403.316L639.497 405.505L671.193 387.214L669.93 385.025Z" fill="#45657E"/>
<path d="M639.566 385.065L638.302 387.254L669.994 405.556L671.259 403.367L639.566 385.065Z" fill="#45657E"/>
<path d="M733.946 421.978L702.249 440.27L703.512 442.46L735.209 424.168L733.946 421.978Z" fill="#45657E"/>
<path d="M703.476 422.033L702.212 424.223L733.902 442.526L735.166 440.336L703.476 422.033Z" fill="#45657E"/>
<path d="M797.899 458.938L766.199 477.226L767.463 479.416L799.163 461.128L797.899 458.938Z" fill="#45657E"/>
<path d="M767.448 458.96L766.184 461.15L797.876 479.448L799.14 477.258L767.448 458.96Z" fill="#45657E"/>
<path d="M350.104 274.192L318.408 292.483L319.672 294.673L351.368 276.382L350.104 274.192Z" fill="#45657E"/>
<path d="M319.717 274.234L318.453 276.424L350.146 294.722L351.41 292.533L319.717 274.234Z" fill="#45657E"/>
<path d="M414.115 311.148L382.415 329.435L383.678 331.625L415.378 313.338L414.115 311.148Z" fill="#45657E"/>
<path d="M383.642 311.186L382.378 313.376L414.068 331.679L415.332 329.489L383.642 311.186Z" fill="#45657E"/>
<path d="M478.062 348.1L446.365 366.392L447.628 368.582L479.325 350.29L478.062 348.1Z" fill="#45657E"/>
<path d="M447.613 348.117L446.35 350.306L478.039 368.609L479.303 366.42L447.613 348.117Z" fill="#45657E"/>
<path d="M542.046 385.042L510.346 403.33L511.609 405.52L543.309 387.232L542.046 385.042Z" fill="#45657E"/>
<path d="M511.573 385.089L510.309 387.279L542.001 405.577L543.265 403.387L511.573 385.089Z" fill="#45657E"/>
<path d="M606.022 421.975L574.325 440.267L575.588 442.457L607.285 424.165L606.022 421.975Z" fill="#45657E"/>
<path d="M575.536 421.986L574.272 424.176L605.962 442.479L607.226 440.289L575.536 421.986Z" fill="#45657E"/>
<path d="M669.976 458.936L638.276 477.223L639.54 479.413L671.24 461.126L669.976 458.936Z" fill="#45657E"/>
<path d="M639.525 458.957L638.261 461.146L669.953 479.444L671.217 477.255L639.525 458.957Z" fill="#45657E"/>
<path d="M733.956 495.87L702.259 514.162L703.522 516.352L735.219 498.06L733.956 495.87Z" fill="#45657E"/>
<path d="M703.478 495.919L702.214 498.108L733.904 516.411L735.168 514.222L703.478 495.919Z" fill="#45657E"/>
<path d="M797.931 532.801L766.234 551.096L767.498 553.286L799.195 534.991L797.931 532.801Z" fill="#45657E"/>
<path d="M767.461 532.86L766.197 535.049L797.89 553.348L799.154 551.158L767.461 532.86Z" fill="#45657E"/>
<path d="M286.186 311.142L254.489 329.434L255.752 331.624L287.449 313.332L286.186 311.142Z" fill="#45657E"/>
<path d="M255.708 311.172L254.444 313.362L286.134 331.664L287.398 329.475L255.708 311.172Z" fill="#45657E"/>
<path d="M350.137 348.103L318.438 366.39L319.701 368.58L351.401 350.293L350.137 348.103Z" fill="#45657E"/>
<path d="M319.686 348.111L318.422 350.3L350.114 368.598L351.379 366.409L319.686 348.111Z" fill="#45657E"/>
<path d="M414.12 385.04L382.42 403.327L383.683 405.517L415.383 387.23L414.12 385.04Z" fill="#45657E"/>
<path d="M383.639 385.079L382.375 387.269L414.068 405.567L415.332 403.378L383.639 385.079Z" fill="#45657E"/>
<path d="M478.065 421.991L446.368 440.283L447.631 442.474L479.328 424.182L478.065 421.991Z" fill="#45657E"/>
<path d="M447.616 422.007L446.353 424.197L478.042 442.5L479.306 440.31L447.616 422.007Z" fill="#45657E"/>
<path d="M542.047 458.934L510.347 477.221L511.61 479.411L543.31 461.124L542.047 458.934Z" fill="#45657E"/>
<path d="M511.574 458.982L510.31 461.171L542.002 479.469L543.266 477.28L511.574 458.982Z" fill="#45657E"/>
<path d="M606.021 495.867L574.324 514.159L575.587 516.349L607.284 498.057L606.021 495.867Z" fill="#45657E"/>
<path d="M575.535 495.876L574.271 498.065L605.961 516.368L607.225 514.179L575.535 495.876Z" fill="#45657E"/>
<path d="M670.047 532.827L638.347 551.118L639.61 553.308L671.31 535.017L670.047 532.827Z" fill="#45657E"/>
<path d="M639.523 532.849L638.259 535.039L669.951 553.337L671.216 551.148L639.523 532.849Z" fill="#45657E"/>
<path d="M733.929 569.728L702.231 588.02L703.495 590.211L735.192 571.918L733.929 569.728Z" fill="#45657E"/>
<path d="M703.474 569.809L702.21 571.999L733.9 590.301L735.164 588.112L703.474 569.809Z" fill="#45657E"/>
<path d="M797.911 606.66L766.215 624.954L767.479 627.144L799.175 608.85L797.911 606.66Z" fill="#45657E"/>
<path d="M767.458 606.765L766.193 608.954L797.886 627.253L799.15 625.063L767.458 606.765Z" fill="#45657E"/>
<path d="M222.213 348.1L190.513 366.387L191.776 368.577L223.476 350.29L222.213 348.1Z" fill="#45657E"/>
<path d="M191.732 348.11L190.468 350.299L222.16 368.598L223.424 366.408L191.732 348.11Z" fill="#45657E"/>
<path d="M286.188 385.033L254.491 403.325L255.754 405.515L287.451 387.223L286.188 385.033Z" fill="#45657E"/>
<path d="M255.761 385.062L254.497 387.252L286.187 405.559L287.451 403.369L255.761 385.062Z" fill="#45657E"/>
<path d="M350.137 421.994L318.438 440.281L319.701 442.471L351.401 424.184L350.137 421.994Z" fill="#45657E"/>
<path d="M319.686 422.004L318.422 424.193L350.114 442.491L351.379 440.302L319.686 422.004Z" fill="#45657E"/>
<path d="M414.119 458.931L382.419 477.218L383.682 479.408L415.382 461.121L414.119 458.931Z" fill="#45657E"/>
<path d="M383.699 458.961L382.435 461.15L414.127 479.452L415.392 477.263L383.699 458.961Z" fill="#45657E"/>
<path d="M478.02 495.858L446.326 514.153L447.589 516.343L479.283 498.048L478.02 495.858Z" fill="#45657E"/>
<path d="M447.611 495.906L446.348 498.095L478.038 516.398L479.301 514.209L447.611 495.906Z" fill="#45657E"/>
<path d="M541.348 531.664L509.665 549.978L512.213 554.389L543.896 536.075L541.348 531.664Z" fill="#B3BBC1"/>
<path d="M512.3 531.723L509.753 536.135L541.443 554.441L543.99 550.029L512.3 531.723Z" fill="#B3BBC1"/>
<path d="M605.964 569.698L574.271 587.994L575.534 590.184L607.227 571.888L605.964 569.698Z" fill="#45657E"/>
<path d="M575.54 569.772L574.276 571.962L605.966 590.265L607.23 588.075L575.54 569.772Z" fill="#45657E"/>
<path d="M669.965 606.687L638.265 624.974L639.528 627.164L671.228 608.877L669.965 606.687Z" fill="#45657E"/>
<path d="M639.601 606.732L638.337 608.921L670.03 627.223L671.294 625.034L639.601 606.732Z" fill="#45657E"/>
<path d="M733.938 643.62L702.241 661.912L703.504 664.102L735.201 645.81L733.938 643.62Z" fill="#45657E"/>
<path d="M703.484 643.701L702.22 645.891L733.91 664.194L735.173 662.004L703.484 643.701Z" fill="#45657E"/>
<path d="M158.236 385.004L126.543 403.3L127.806 405.49L159.5 387.194L158.236 385.004Z" fill="#45657E"/>
<path d="M127.785 385.059L126.521 387.249L158.211 405.552L159.475 403.362L127.785 385.059Z" fill="#45657E"/>
<path d="M222.211 421.992L190.511 440.28L191.774 442.469L223.474 424.182L222.211 421.992Z" fill="#45657E"/>
<path d="M191.753 421.968L190.489 424.158L222.179 442.461L223.443 440.271L191.753 421.968Z" fill="#45657E"/>
<path d="M286.194 458.924L254.497 477.216L255.76 479.407L287.457 461.115L286.194 458.924Z" fill="#45657E"/>
<path d="M255.716 458.954L254.452 461.144L286.142 479.447L287.406 477.257L255.716 458.954Z" fill="#45657E"/>
<path d="M350.145 495.886L318.445 514.173L319.709 516.363L351.409 498.076L350.145 495.886Z" fill="#45657E"/>
<path d="M319.688 495.896L318.424 498.085L350.116 516.384L351.381 514.194L319.688 495.896Z" fill="#45657E"/>
<path d="M414.103 532.79L382.403 551.077L383.667 553.267L415.367 534.98L414.103 532.79Z" fill="#45657E"/>
<path d="M383.646 532.856L382.382 535.045L414.074 553.343L415.339 551.154L383.646 532.856Z" fill="#45657E"/>
<path d="M478.083 569.724L446.386 588.016L447.649 590.206L479.346 571.914L478.083 569.724Z" fill="#45657E"/>
<path d="M447.618 569.798L446.354 571.988L478.044 590.291L479.308 588.101L447.618 569.798Z" fill="#45657E"/>
<path d="M542.034 606.685L510.334 624.972L511.597 627.162L543.297 608.875L542.034 606.685Z" fill="#45657E"/>
<path d="M511.598 606.726L510.334 608.915L542.027 627.213L543.291 625.024L511.598 606.726Z" fill="#45657E"/>
<path d="M605.968 643.592L574.271 661.883L575.535 664.073L607.231 645.782L605.968 643.592Z" fill="#45657E"/>
<path d="M575.541 643.663L574.277 645.853L605.967 664.156L607.231 661.966L575.541 643.663Z" fill="#45657E"/>
<path d="M669.967 680.578L638.267 698.866L639.53 701.056L671.23 682.768L669.967 680.578Z" fill="#45657E"/>
<path d="M639.525 680.597L638.261 682.786L669.953 701.084L671.217 698.895L639.525 680.597Z" fill="#45657E"/>
<path d="M94.2917 421.989L62.5918 440.276L63.8552 442.466L95.5551 424.179L94.2917 421.989Z" fill="#45657E"/>
<path d="M63.8562 422.011L62.5918 424.201L94.2844 442.503L95.5487 440.313L63.8562 422.011Z" fill="#45657E"/>
<path d="M158.269 458.921L126.572 477.213L127.835 479.403L159.532 461.111L158.269 458.921Z" fill="#45657E"/>
<path d="M127.783 458.951L126.52 461.141L158.209 479.444L159.473 477.254L127.783 458.951Z" fill="#45657E"/>
<path d="M222.199 495.85L190.499 514.137L191.762 516.327L223.462 498.04L222.199 495.85Z" fill="#45657E"/>
<path d="M191.763 495.857L190.499 498.046L222.192 516.345L223.456 514.155L191.763 495.857Z" fill="#45657E"/>
<path d="M285.596 531.689L253.91 550.003L256.458 554.415L288.144 536.101L285.596 531.689Z" fill="#B3BBC1"/>
<path d="M256.353 531.713L253.807 536.125L285.497 554.428L288.043 550.016L256.353 531.713Z" fill="#B3BBC1"/>
<path d="M350.13 569.744L318.43 588.031L319.693 590.221L351.393 571.934L350.13 569.744Z" fill="#45657E"/>
<path d="M319.694 569.787L318.43 571.976L350.122 590.274L351.386 588.085L319.694 569.787Z" fill="#45657E"/>
<path d="M414.107 606.682L382.407 624.969L383.671 627.159L415.37 608.872L414.107 606.682Z" fill="#45657E"/>
<path d="M383.65 606.748L382.386 608.938L414.076 627.241L415.339 625.051L383.65 606.748Z" fill="#45657E"/>
<path d="M478.092 643.615L446.395 661.907L447.658 664.097L479.355 645.805L478.092 643.615Z" fill="#45657E"/>
<path d="M447.627 643.689L446.363 645.879L478.053 664.182L479.317 661.992L447.627 643.689Z" fill="#45657E"/>
<path d="M541.467 679.468L509.78 697.782L512.328 702.193L544.014 683.879L541.467 679.468Z" fill="#B3BBC1"/>
<path d="M512.239 679.513L509.692 683.925L541.382 702.228L543.929 697.816L512.239 679.513Z" fill="#B3BBC1"/>
<path d="M606.021 717.508L574.324 735.8L575.587 737.991L607.284 719.699L606.021 717.508Z" fill="#45657E"/>
<path d="M575.557 717.552L574.293 719.742L605.985 738.04L607.25 735.851L575.557 717.552Z" fill="#45657E"/>
<path d="M30.3105 458.938L-1.38672 477.23L-0.123689 479.42L31.5735 461.128L30.3105 458.938Z" fill="#45657E"/>
<path d="M-0.144415 458.942L-1.4082 461.131L30.2816 479.434L31.5454 477.245L-0.144415 458.942Z" fill="#45657E"/>
<path d="M94.2673 495.848L62.5674 514.135L63.8307 516.325L95.5307 498.038L94.2673 495.848Z" fill="#45657E"/>
<path d="M63.81 495.903L62.5459 498.093L94.2385 516.391L95.5026 514.202L63.81 495.903Z" fill="#45657E"/>
<path d="M158.253 532.781L126.556 551.073L127.819 553.263L159.516 534.971L158.253 532.781Z" fill="#45657E"/>
<path d="M127.788 532.844L126.524 535.033L158.214 553.336L159.478 551.147L127.788 532.844Z" fill="#45657E"/>
<path d="M222.202 569.742L190.502 588.029L191.765 590.219L223.465 571.932L222.202 569.742Z" fill="#45657E"/>
<path d="M191.766 569.742L190.502 571.932L222.194 590.23L223.459 588.04L191.766 569.742Z" fill="#45657E"/>
<path d="M286.18 606.675L254.482 624.967L255.745 627.157L287.443 608.865L286.18 606.675Z" fill="#45657E"/>
<path d="M255.778 606.709L254.514 608.899L286.204 627.205L287.468 625.016L255.778 606.709Z" fill="#45657E"/>
<path d="M350.125 643.636L318.425 661.924L319.688 664.114L351.388 645.826L350.125 643.636Z" fill="#45657E"/>
<path d="M319.689 643.679L318.425 645.868L350.117 664.167L351.382 661.977L319.689 643.679Z" fill="#45657E"/>
<path d="M414.114 680.573L382.414 698.861L383.677 701.051L415.377 682.763L414.114 680.573Z" fill="#45657E"/>
<path d="M383.723 680.631L382.459 682.82L414.152 701.122L415.416 698.933L383.723 680.631Z" fill="#45657E"/>
<path d="M478.095 717.507L446.397 735.799L447.661 737.989L479.358 719.697L478.095 717.507Z" fill="#45657E"/>
<path d="M447.63 717.581L446.366 719.771L478.056 738.074L479.32 735.884L447.63 717.581Z" fill="#45657E"/>
<path d="M30.2978 532.797L-1.39941 551.089L-0.136413 553.279L31.5608 534.987L30.2978 532.797Z" fill="#45657E"/>
<path d="M-0.135626 532.832L-1.39941 535.022L30.2905 553.325L31.5543 551.135L-0.135626 532.832Z" fill="#45657E"/>
<path d="M94.2839 569.739L62.584 588.027L63.8474 590.217L95.5473 571.929L94.2839 569.739Z" fill="#45657E"/>
<path d="M63.8168 569.795L62.5527 571.985L94.2453 590.283L95.5094 588.094L63.8168 569.795Z" fill="#45657E"/>
<path d="M158.258 606.671L126.561 624.963L127.824 627.153L159.521 608.861L158.258 606.671Z" fill="#45657E"/>
<path d="M127.793 606.734L126.529 608.924L158.219 627.227L159.483 625.037L127.793 606.734Z" fill="#45657E"/>
<path d="M222.199 643.633L190.499 661.92L191.762 664.11L223.462 645.823L222.199 643.633Z" fill="#45657E"/>
<path d="M191.763 643.632L190.499 645.822L222.192 664.12L223.456 661.93L191.763 643.632Z" fill="#45657E"/>
<path d="M286.192 680.566L254.495 698.858L255.758 701.048L287.455 682.756L286.192 680.566Z" fill="#45657E"/>
<path d="M255.728 680.604L254.464 682.793L286.154 701.096L287.417 698.907L255.728 680.604Z" fill="#45657E"/>
<path d="M350.172 717.504L318.475 735.796L319.738 737.986L351.435 719.694L350.172 717.504Z" fill="#45657E"/>
<path d="M319.702 717.564L318.438 719.754L350.13 738.052L351.394 735.862L319.702 717.564Z" fill="#45657E"/>
<path d="M-0.135626 606.719L-1.39941 608.908L30.2905 627.211L31.5543 625.022L-0.135626 606.719Z" fill="#45657E"/>
<path d="M63.8933 643.674L62.6289 645.864L94.3215 664.166L95.5859 661.976L63.8933 643.674Z" fill="#45657E"/>
<path d="M127.797 680.627L126.533 682.816L158.223 701.119L159.487 698.93L127.797 680.627Z" fill="#45657E"/>
<path d="M191.834 717.568L190.569 719.757L222.262 738.059L223.526 735.87L191.834 717.568Z" fill="#45657E"/>
</g>
<path opacity="0.5" d="M591.682 102V361.449L651.438 395.98V136.493L591.682 102Z" fill="url(#paint0_linear_814_1785)"/>
<path opacity="0.5" d="M591.681 102V361.449L531.925 395.98V136.493L591.681 102Z" fill="url(#paint1_linear_814_1785)"/>
<path d="M591.681 171.023L531.925 136.493L591.681 102L651.438 136.493L591.681 171.023Z" fill="url(#paint2_linear_814_1785)"/>
<path d="M591.681 169.4L533.321 135.7L531.925 136.493L591.681 171.023L651.438 136.493L650.042 135.7L591.681 169.4Z" fill="white"/>
<path opacity="0.6" d="M591.681 430.472L531.925 395.98L591.681 361.449L651.438 395.98L591.681 430.472Z" fill="#FAD86A"/>
<path d="M531.925 136.493V395.98L591.681 430.473V171.023L531.925 136.493Z" fill="url(#paint3_linear_814_1785)"/>
<path d="M651.438 136.493V395.98L591.682 430.473V171.023L651.438 136.493Z" fill="url(#paint4_linear_814_1785)"/>
<path opacity="0.5" d="M403.055 290.69V471.909L462.811 506.439V325.221L403.055 290.69Z" fill="url(#paint5_linear_814_1785)"/>
<path opacity="0.5" d="M403.054 290.69V471.909L343.298 506.439V325.221L403.054 290.69Z" fill="url(#paint6_linear_814_1785)"/>
<path d="M403.054 359.713L343.298 325.221L403.054 290.69L462.811 325.221L403.054 359.713Z" fill="url(#paint7_linear_814_1785)"/>
<path d="M403.054 358.091L344.694 324.391L343.298 325.221L403.054 359.714L462.811 325.221L461.415 324.391L403.054 358.091Z" fill="white"/>
<path opacity="0.6" d="M403.054 540.932L343.298 506.439L403.054 471.909L462.811 506.439L403.054 540.932Z" fill="#FAD86A"/>
<path d="M343.298 325.221V506.439L403.054 540.932V359.714L343.298 325.221Z" fill="url(#paint8_linear_814_1785)"/>
<path d="M462.811 325.221V506.439L403.055 540.932V359.714L462.811 325.221Z" fill="url(#paint9_linear_814_1785)"/>
<path opacity="0.5" d="M206.886 479.381V583.349L266.642 617.88V513.911L206.886 479.381Z" fill="url(#paint10_linear_814_1785)"/>
<path opacity="0.5" d="M206.885 479.381V583.349L147.129 617.88V513.911L206.885 479.381Z" fill="url(#paint11_linear_814_1785)"/>
<path d="M206.885 548.404L147.129 513.911L206.885 479.381L266.642 513.911L206.885 548.404Z" fill="url(#paint12_linear_814_1785)"/>
<path d="M206.885 546.781L148.525 513.081L147.129 513.911L206.885 548.404L266.642 513.911L265.246 513.081L206.885 546.781Z" fill="white"/>
<path opacity="0.6" d="M206.885 652.373L147.129 617.88L206.885 583.35L266.642 617.88L206.885 652.373Z" fill="#FAD86A"/>
<path d="M147.129 513.911V617.88L206.885 652.372V548.404L147.129 513.911Z" fill="url(#paint13_linear_814_1785)"/>
<path d="M266.642 513.911V617.88L206.886 652.372V548.404L266.642 513.911Z" fill="url(#paint14_linear_814_1785)"/>
<path d="M266.908 481.871V387.5H146.949V481.871C146.949 482.602 147.279 483.297 148.011 483.699L201.473 514.519C204.915 516.494 209.162 516.494 212.604 514.519L265.883 483.699C266.578 483.297 266.908 482.602 266.908 481.871Z" fill="#274888"/>
<path d="M462.841 289.371V195H342.882V289.371C342.882 290.102 343.211 290.797 343.944 291.199L397.405 322.019C400.847 323.994 405.095 323.994 408.537 322.019L461.815 291.199C462.511 290.797 462.841 290.102 462.841 289.371Z" fill="#274888"/>
<path d="M651.776 102.371V8H531.817V102.371C531.817 103.102 532.147 103.797 532.879 104.199L586.341 135.019C589.783 136.994 594.03 136.994 597.472 135.019L650.751 104.199C651.447 103.797 651.776 103.102 651.776 102.371Z" fill="#274888"/>
<path d="M356.275 222.182H360.27L367.216 239.142H367.472L374.418 222.182H378.413V244H375.281V228.212H375.078L368.644 243.968H366.044L359.609 228.201H359.407V244H356.275V222.182ZM382.943 244V227.636H386.128V244H382.943ZM384.552 225.112C383.998 225.112 383.522 224.927 383.124 224.558C382.734 224.181 382.538 223.734 382.538 223.215C382.538 222.69 382.734 222.242 383.124 221.873C383.522 221.496 383.998 221.308 384.552 221.308C385.106 221.308 385.578 221.496 385.969 221.873C386.366 222.242 386.565 222.69 386.565 223.215C386.565 223.734 386.366 224.181 385.969 224.558C385.578 224.927 385.106 225.112 384.552 225.112ZM396.54 244.32C395.218 244.32 394.04 243.982 393.003 243.308C391.973 242.626 391.163 241.656 390.574 240.399C389.991 239.135 389.7 237.619 389.7 235.85C389.7 234.082 389.995 232.569 390.584 231.312C391.181 230.055 391.998 229.092 393.035 228.425C394.071 227.757 395.247 227.423 396.561 227.423C397.576 227.423 398.393 227.594 399.011 227.935C399.636 228.268 400.119 228.659 400.46 229.107C400.808 229.554 401.078 229.948 401.27 230.289H401.461V222.182H404.647V244H401.536V241.454H401.27C401.078 241.802 400.801 242.2 400.439 242.647C400.084 243.094 399.593 243.485 398.968 243.819C398.343 244.153 397.534 244.32 396.54 244.32ZM397.243 241.603C398.159 241.603 398.933 241.362 399.565 240.879C400.204 240.388 400.687 239.71 401.014 238.844C401.348 237.977 401.515 236.969 401.515 235.818C401.515 234.682 401.351 233.687 401.025 232.835C400.698 231.983 400.218 231.319 399.586 230.843C398.954 230.367 398.173 230.129 397.243 230.129C396.284 230.129 395.485 230.378 394.846 230.875C394.206 231.372 393.723 232.05 393.397 232.91C393.077 233.769 392.917 234.739 392.917 235.818C392.917 236.912 393.081 237.896 393.407 238.769C393.734 239.643 394.217 240.335 394.856 240.847C395.503 241.351 396.298 241.603 397.243 241.603ZM415.319 244.32C413.998 244.32 412.819 243.982 411.782 243.308C410.752 242.626 409.942 241.656 409.353 240.399C408.771 239.135 408.479 237.619 408.479 235.85C408.479 234.082 408.774 232.569 409.364 231.312C409.96 230.055 410.777 229.092 411.814 228.425C412.851 227.757 414.026 227.423 415.34 227.423C416.356 227.423 417.172 227.594 417.79 227.935C418.415 228.268 418.898 228.659 419.239 229.107C419.587 229.554 419.857 229.948 420.049 230.289H420.241V222.182H423.426V244H420.315V241.454H420.049C419.857 241.802 419.58 242.2 419.218 242.647C418.863 243.094 418.373 243.485 417.748 243.819C417.123 244.153 416.313 244.32 415.319 244.32ZM416.022 241.603C416.938 241.603 417.712 241.362 418.344 240.879C418.984 240.388 419.467 239.71 419.793 238.844C420.127 237.977 420.294 236.969 420.294 235.818C420.294 234.682 420.131 233.687 419.804 232.835C419.477 231.983 418.998 231.319 418.366 230.843C417.734 230.367 416.952 230.129 416.022 230.129C415.063 230.129 414.264 230.378 413.625 230.875C412.986 231.372 412.503 232.05 412.176 232.91C411.856 233.769 411.697 234.739 411.697 235.818C411.697 236.912 411.86 237.896 412.187 238.769C412.513 239.643 412.996 240.335 413.636 240.847C414.282 241.351 415.077 241.603 416.022 241.603ZM431.158 222.182V244H427.972V222.182H431.158ZM442.496 244.33C440.883 244.33 439.495 243.986 438.33 243.297C437.172 242.601 436.278 241.624 435.646 240.367C435.021 239.103 434.708 237.622 434.708 235.925C434.708 234.249 435.021 232.771 435.646 231.493C436.278 230.214 437.158 229.217 438.288 228.499C439.424 227.782 440.752 227.423 442.272 227.423C443.195 227.423 444.09 227.576 444.957 227.881C445.823 228.187 446.601 228.666 447.29 229.32C447.979 229.973 448.522 230.822 448.92 231.866C449.317 232.903 449.516 234.163 449.516 235.648V236.777H436.508V234.391H446.395C446.395 233.553 446.224 232.81 445.883 232.164C445.543 231.511 445.063 230.996 444.445 230.619C443.834 230.243 443.117 230.055 442.293 230.055C441.398 230.055 440.617 230.275 439.949 230.715C439.289 231.148 438.778 231.717 438.415 232.42C438.06 233.116 437.883 233.872 437.883 234.689V236.553C437.883 237.647 438.074 238.577 438.458 239.344C438.849 240.112 439.392 240.697 440.088 241.102C440.784 241.5 441.597 241.699 442.528 241.699C443.131 241.699 443.682 241.614 444.179 241.443C444.676 241.266 445.106 241.003 445.468 240.655C445.83 240.307 446.107 239.877 446.299 239.366L449.314 239.909C449.072 240.797 448.639 241.575 448.014 242.242C447.396 242.903 446.619 243.418 445.681 243.787C444.751 244.149 443.689 244.33 442.496 244.33Z" fill="white"/>
<path d="M172.821 415.182H176.103V430.651C176.103 432.05 175.826 433.246 175.272 434.241C174.725 435.235 173.954 435.995 172.96 436.521C171.966 437.039 170.801 437.298 169.466 437.298C168.237 437.298 167.133 437.075 166.152 436.627C165.179 436.18 164.409 435.53 163.841 434.678C163.28 433.818 162.999 432.774 162.999 431.545H166.27C166.27 432.149 166.408 432.671 166.685 433.112C166.969 433.552 167.356 433.896 167.846 434.145C168.343 434.386 168.912 434.507 169.551 434.507C170.247 434.507 170.836 434.362 171.319 434.07C171.809 433.772 172.182 433.335 172.438 432.76C172.694 432.185 172.821 431.482 172.821 430.651V415.182ZM191.004 430.214V420.636H194.2V437H191.068V434.166H190.898C190.521 435.04 189.918 435.768 189.087 436.35C188.263 436.925 187.236 437.213 186.008 437.213C184.957 437.213 184.026 436.982 183.217 436.521C182.414 436.052 181.782 435.359 181.32 434.443C180.866 433.527 180.638 432.394 180.638 431.045V420.636H183.824V430.661C183.824 431.776 184.133 432.664 184.751 433.325C185.369 433.985 186.171 434.315 187.158 434.315C187.755 434.315 188.348 434.166 188.937 433.868C189.534 433.57 190.028 433.119 190.418 432.515C190.816 431.911 191.011 431.144 191.004 430.214ZM201.666 427.284V437H198.48V420.636H201.538V423.3H201.74C202.117 422.433 202.706 421.737 203.509 421.212C204.318 420.686 205.337 420.423 206.566 420.423C207.681 420.423 208.658 420.658 209.496 421.126C210.334 421.588 210.984 422.277 211.445 423.193C211.907 424.109 212.138 425.242 212.138 426.592V437H208.953V426.975C208.953 425.789 208.644 424.862 208.026 424.195C207.408 423.52 206.559 423.183 205.479 423.183C204.741 423.183 204.084 423.342 203.509 423.662C202.94 423.982 202.489 424.45 202.156 425.068C201.829 425.679 201.666 426.418 201.666 427.284ZM216.41 437V420.636H219.595V437H216.41ZM218.019 418.112C217.465 418.112 216.989 417.927 216.591 417.558C216.2 417.181 216.005 416.734 216.005 416.215C216.005 415.69 216.2 415.242 216.591 414.873C216.989 414.496 217.465 414.308 218.019 414.308C218.573 414.308 219.045 414.496 219.435 414.873C219.833 415.242 220.032 415.69 220.032 416.215C220.032 416.734 219.833 417.181 219.435 417.558C219.045 417.927 218.573 418.112 218.019 418.112ZM230.773 437.33C229.239 437.33 227.9 436.979 226.757 436.276C225.614 435.572 224.726 434.589 224.094 433.325C223.462 432.06 223.146 430.583 223.146 428.893C223.146 427.195 223.462 425.711 224.094 424.44C224.726 423.168 225.614 422.181 226.757 421.478C227.9 420.775 229.239 420.423 230.773 420.423C232.307 420.423 233.646 420.775 234.79 421.478C235.933 422.181 236.821 423.168 237.453 424.44C238.085 425.711 238.401 427.195 238.401 428.893C238.401 430.583 238.085 432.06 237.453 433.325C236.821 434.589 235.933 435.572 234.79 436.276C233.646 436.979 232.307 437.33 230.773 437.33ZM230.784 434.656C231.778 434.656 232.602 434.393 233.256 433.868C233.909 433.342 234.392 432.643 234.704 431.769C235.024 430.896 235.184 429.933 235.184 428.882C235.184 427.838 235.024 426.879 234.704 426.006C234.392 425.125 233.909 424.418 233.256 423.886C232.602 423.353 231.778 423.087 230.784 423.087C229.783 423.087 228.952 423.353 228.291 423.886C227.638 424.418 227.151 425.125 226.832 426.006C226.519 426.879 226.363 427.838 226.363 428.882C226.363 429.933 226.519 430.896 226.832 431.769C227.151 432.643 227.638 433.342 228.291 433.868C228.952 434.393 229.783 434.656 230.784 434.656ZM241.957 437V420.636H245.036V423.236H245.206C245.504 422.355 246.03 421.663 246.783 421.158C247.543 420.647 248.402 420.391 249.361 420.391C249.56 420.391 249.794 420.398 250.064 420.413C250.341 420.427 250.558 420.445 250.714 420.466V423.513C250.586 423.477 250.359 423.438 250.032 423.396C249.705 423.346 249.379 423.321 249.052 423.321C248.299 423.321 247.628 423.481 247.038 423.8C246.456 424.113 245.994 424.55 245.653 425.111C245.313 425.665 245.142 426.297 245.142 427.007V437H241.957Z" fill="white"/>
<path d="M360.986 260.455V275H359.658V261.847H359.573L356.163 264.112V262.734L359.601 260.455H360.986ZM369.899 275.199C368.971 275.199 368.145 275.024 367.421 274.673C366.696 274.323 366.128 273.845 365.716 273.239C365.304 272.628 365.098 271.939 365.098 271.172C365.098 270.571 365.224 270.009 365.475 269.489C365.725 268.963 366.071 268.523 366.511 268.168C366.952 267.808 367.447 267.573 367.996 267.464V267.386C367.281 267.178 366.706 266.768 366.27 266.158C365.834 265.542 365.619 264.844 365.624 264.062C365.619 263.338 365.804 262.689 366.178 262.116C366.552 261.544 367.061 261.091 367.705 260.76C368.353 260.424 369.085 260.256 369.899 260.256C370.709 260.256 371.436 260.424 372.08 260.76C372.724 261.091 373.233 261.544 373.607 262.116C373.985 262.689 374.177 263.338 374.182 264.062C374.177 264.839 373.957 265.537 373.521 266.158C373.086 266.773 372.513 267.183 371.803 267.386V267.464C372.352 267.569 372.844 267.801 373.28 268.161C373.716 268.52 374.061 268.963 374.317 269.489C374.573 270.009 374.7 270.571 374.7 271.172C374.7 271.939 374.492 272.628 374.075 273.239C373.663 273.845 373.095 274.323 372.371 274.673C371.651 275.024 370.827 275.199 369.899 275.199ZM369.899 274.006C370.591 274.006 371.197 273.883 371.717 273.636C372.243 273.385 372.653 273.042 372.946 272.607C373.244 272.171 373.394 271.671 373.394 271.108C373.394 270.526 373.24 270.007 372.932 269.553C372.624 269.093 372.207 268.731 371.682 268.466C371.156 268.196 370.562 268.061 369.899 268.061C369.236 268.061 368.64 268.196 368.109 268.466C367.584 268.731 367.167 269.093 366.859 269.553C366.556 270.007 366.405 270.526 366.405 271.108C366.405 271.671 366.549 272.171 366.838 272.607C367.132 273.042 367.541 273.385 368.067 273.636C368.597 273.883 369.208 274.006 369.899 274.006ZM369.899 266.925C370.467 266.925 370.976 266.804 371.426 266.562C371.876 266.321 372.231 265.992 372.492 265.575C372.757 265.154 372.892 264.676 372.896 264.141C372.892 263.61 372.759 263.142 372.499 262.734C372.238 262.322 371.883 262.003 371.433 261.776C370.988 261.544 370.477 261.428 369.899 261.428C369.322 261.428 368.805 261.544 368.351 261.776C367.901 262.003 367.546 262.322 367.286 262.734C367.03 263.142 366.904 263.61 366.909 264.141C366.904 264.676 367.032 265.154 367.293 265.575C367.558 265.992 367.915 266.321 368.365 266.562C368.82 266.804 369.331 266.925 369.899 266.925ZM382.167 275.199C381.144 275.199 380.27 274.905 379.546 274.318C378.826 273.726 378.272 272.872 377.884 271.754C377.5 270.637 377.309 269.295 377.309 267.727C377.309 266.165 377.5 264.827 377.884 263.714C378.272 262.597 378.829 261.742 379.553 261.151C380.282 260.554 381.153 260.256 382.167 260.256C383.18 260.256 384.049 260.554 384.773 261.151C385.502 261.742 386.059 262.597 386.442 263.714C386.83 264.827 387.025 266.165 387.025 267.727C387.025 269.295 386.83 270.637 386.442 271.754C386.059 272.872 385.505 273.726 384.78 274.318C384.061 274.905 383.189 275.199 382.167 275.199ZM382.167 274.006C383.289 274.006 384.165 273.459 384.794 272.365C385.424 271.267 385.739 269.721 385.739 267.727C385.739 266.402 385.595 265.27 385.306 264.332C385.022 263.39 384.612 262.67 384.077 262.173C383.547 261.676 382.91 261.428 382.167 261.428C381.054 261.428 380.18 261.982 379.546 263.089C378.911 264.193 378.594 265.739 378.594 267.727C378.594 269.053 378.736 270.185 379.02 271.122C379.309 272.06 379.719 272.775 380.249 273.267C380.784 273.759 381.423 274.006 382.167 274.006ZM400.057 275.199C399.035 275.199 398.161 274.905 397.437 274.318C396.717 273.726 396.163 272.872 395.775 271.754C395.391 270.637 395.199 269.295 395.199 267.727C395.199 266.165 395.391 264.827 395.775 263.714C396.163 262.597 396.719 261.742 397.444 261.151C398.173 260.554 399.044 260.256 400.057 260.256C401.071 260.256 401.939 260.554 402.664 261.151C403.393 261.742 403.949 262.597 404.333 263.714C404.721 264.827 404.915 266.165 404.915 267.727C404.915 269.295 404.721 270.637 404.333 271.754C403.949 272.872 403.395 273.726 402.671 274.318C401.951 274.905 401.08 275.199 400.057 275.199ZM400.057 274.006C401.179 274.006 402.055 273.459 402.685 272.365C403.315 271.267 403.63 269.721 403.63 267.727C403.63 266.402 403.485 265.27 403.196 264.332C402.912 263.39 402.503 262.67 401.968 262.173C401.437 261.676 400.801 261.428 400.057 261.428C398.945 261.428 398.071 261.982 397.437 263.089C396.802 264.193 396.485 265.739 396.485 267.727C396.485 269.053 396.627 270.185 396.911 271.122C397.2 272.06 397.609 272.775 398.14 273.267C398.675 273.759 399.314 274.006 400.057 274.006ZM412.323 275.199C411.3 275.199 410.427 274.905 409.702 274.318C408.982 273.726 408.428 272.872 408.04 271.754C407.657 270.637 407.465 269.295 407.465 267.727C407.465 266.165 407.657 264.827 408.04 263.714C408.428 262.597 408.985 261.742 409.709 261.151C410.438 260.554 411.31 260.256 412.323 260.256C413.336 260.256 414.205 260.554 414.929 261.151C415.659 261.742 416.215 262.597 416.598 263.714C416.987 264.827 417.181 266.165 417.181 267.727C417.181 269.295 416.987 270.637 416.598 271.754C416.215 272.872 415.661 273.726 414.937 274.318C414.217 274.905 413.346 275.199 412.323 275.199ZM412.323 274.006C413.445 274.006 414.321 273.459 414.951 272.365C415.58 271.267 415.895 269.721 415.895 267.727C415.895 266.402 415.751 265.27 415.462 264.332C415.178 263.39 414.768 262.67 414.233 262.173C413.703 261.676 413.066 261.428 412.323 261.428C411.21 261.428 410.337 261.982 409.702 263.089C409.068 264.193 408.75 265.739 408.75 267.727C408.75 269.053 408.892 270.185 409.177 271.122C409.465 272.06 409.875 272.775 410.405 273.267C410.94 273.759 411.58 274.006 412.323 274.006ZM424.589 275.199C423.566 275.199 422.692 274.905 421.968 274.318C421.248 273.726 420.694 272.872 420.306 271.754C419.922 270.637 419.731 269.295 419.731 267.727C419.731 266.165 419.922 264.827 420.306 263.714C420.694 262.597 421.25 261.742 421.975 261.151C422.704 260.554 423.575 260.256 424.589 260.256C425.602 260.256 426.471 260.554 427.195 261.151C427.924 261.742 428.481 262.597 428.864 263.714C429.252 264.827 429.446 266.165 429.446 267.727C429.446 269.295 429.252 270.637 428.864 271.754C428.481 272.872 427.927 273.726 427.202 274.318C426.482 274.905 425.611 275.199 424.589 275.199ZM424.589 274.006C425.711 274.006 426.587 273.459 427.216 272.365C427.846 271.267 428.161 269.721 428.161 267.727C428.161 266.402 428.017 265.27 427.728 264.332C427.444 263.39 427.034 262.67 426.499 262.173C425.969 261.676 425.332 261.428 424.589 261.428C423.476 261.428 422.602 261.982 421.968 263.089C421.333 264.193 421.016 265.739 421.016 267.727C421.016 269.053 421.158 270.185 421.442 271.122C421.731 272.06 422.141 272.775 422.671 273.267C423.206 273.759 423.845 274.006 424.589 274.006ZM443.935 269.041H436.989V267.848H443.935C444.636 267.848 445.228 267.715 445.711 267.45C446.194 267.185 446.561 266.821 446.812 266.357C447.062 265.888 447.188 265.353 447.188 264.751C447.188 264.15 447.062 263.617 446.812 263.153C446.561 262.685 446.194 262.318 445.711 262.053C445.228 261.783 444.636 261.648 443.935 261.648H440.455V275H439.127V260.455H443.935C444.929 260.455 445.763 260.646 446.435 261.03C447.112 261.413 447.624 261.929 447.969 262.578C448.32 263.227 448.495 263.951 448.495 264.751C448.495 265.552 448.32 266.276 447.969 266.925C447.624 267.573 447.112 268.089 446.435 268.473C445.763 268.852 444.929 269.041 443.935 269.041ZM443.878 270.376V271.57H436.989V270.376H443.878Z" fill="white"/>
<path d="M165.982 468L172.608 454.74V454.648H164.973V453.455H174V454.705L167.381 468H165.982ZM181.037 468.199C180.014 468.199 179.14 467.905 178.416 467.318C177.696 466.726 177.142 465.872 176.754 464.754C176.371 463.637 176.179 462.295 176.179 460.727C176.179 459.165 176.371 457.827 176.754 456.714C177.142 455.597 177.699 454.742 178.423 454.151C179.152 453.554 180.023 453.256 181.037 453.256C182.05 453.256 182.919 453.554 183.643 454.151C184.372 454.742 184.929 455.597 185.312 456.714C185.701 457.827 185.895 459.165 185.895 460.727C185.895 462.295 185.701 463.637 185.312 464.754C184.929 465.872 184.375 466.726 183.65 467.318C182.931 467.905 182.059 468.199 181.037 468.199ZM181.037 467.006C182.159 467.006 183.035 466.459 183.665 465.365C184.294 464.267 184.609 462.721 184.609 460.727C184.609 459.402 184.465 458.27 184.176 457.332C183.892 456.39 183.482 455.67 182.947 455.173C182.417 454.676 181.78 454.428 181.037 454.428C179.924 454.428 179.05 454.982 178.416 456.089C177.782 457.193 177.464 458.739 177.464 460.727C177.464 462.053 177.606 463.185 177.89 464.122C178.179 465.06 178.589 465.775 179.119 466.267C179.654 466.759 180.293 467.006 181.037 467.006ZM198.927 468.199C197.905 468.199 197.031 467.905 196.307 467.318C195.587 466.726 195.033 465.872 194.645 464.754C194.261 463.637 194.069 462.295 194.069 460.727C194.069 459.165 194.261 457.827 194.645 456.714C195.033 455.597 195.589 454.742 196.314 454.151C197.043 453.554 197.914 453.256 198.927 453.256C199.941 453.256 200.809 453.554 201.534 454.151C202.263 454.742 202.819 455.597 203.203 456.714C203.591 457.827 203.785 459.165 203.785 460.727C203.785 462.295 203.591 463.637 203.203 464.754C202.819 465.872 202.265 466.726 201.541 467.318C200.821 467.905 199.95 468.199 198.927 468.199ZM198.927 467.006C200.05 467.006 200.925 466.459 201.555 465.365C202.185 464.267 202.5 462.721 202.5 460.727C202.5 459.402 202.355 458.27 202.067 457.332C201.782 456.39 201.373 455.67 200.838 455.173C200.308 454.676 199.671 454.428 198.927 454.428C197.815 454.428 196.941 454.982 196.307 456.089C195.672 457.193 195.355 458.739 195.355 460.727C195.355 462.053 195.497 463.185 195.781 464.122C196.07 465.06 196.479 465.775 197.01 466.267C197.545 466.759 198.184 467.006 198.927 467.006ZM211.193 468.199C210.17 468.199 209.297 467.905 208.572 467.318C207.853 466.726 207.299 465.872 206.91 464.754C206.527 463.637 206.335 462.295 206.335 460.727C206.335 459.165 206.527 457.827 206.91 456.714C207.299 455.597 207.855 454.742 208.579 454.151C209.309 453.554 210.18 453.256 211.193 453.256C212.206 453.256 213.075 453.554 213.8 454.151C214.529 454.742 215.085 455.597 215.469 456.714C215.857 457.827 216.051 459.165 216.051 460.727C216.051 462.295 215.857 463.637 215.469 464.754C215.085 465.872 214.531 466.726 213.807 467.318C213.087 467.905 212.216 468.199 211.193 468.199ZM211.193 467.006C212.315 467.006 213.191 466.459 213.821 465.365C214.451 464.267 214.765 462.721 214.765 460.727C214.765 459.402 214.621 458.27 214.332 457.332C214.048 456.39 213.639 455.67 213.104 455.173C212.573 454.676 211.936 454.428 211.193 454.428C210.08 454.428 209.207 454.982 208.572 456.089C207.938 457.193 207.621 458.739 207.621 460.727C207.621 462.053 207.763 463.185 208.047 464.122C208.336 465.06 208.745 465.775 209.275 466.267C209.81 466.759 210.45 467.006 211.193 467.006ZM223.459 468.199C222.436 468.199 221.562 467.905 220.838 467.318C220.118 466.726 219.564 465.872 219.176 464.754C218.792 463.637 218.601 462.295 218.601 460.727C218.601 459.165 218.792 457.827 219.176 456.714C219.564 455.597 220.121 454.742 220.845 454.151C221.574 453.554 222.445 453.256 223.459 453.256C224.472 453.256 225.341 453.554 226.065 454.151C226.794 454.742 227.351 455.597 227.734 456.714C228.122 457.827 228.317 459.165 228.317 460.727C228.317 462.295 228.122 463.637 227.734 464.754C227.351 465.872 226.797 466.726 226.072 467.318C225.353 467.905 224.481 468.199 223.459 468.199ZM223.459 467.006C224.581 467.006 225.457 466.459 226.086 465.365C226.716 464.267 227.031 462.721 227.031 460.727C227.031 459.402 226.887 458.27 226.598 457.332C226.314 456.39 225.904 455.67 225.369 455.173C224.839 454.676 224.202 454.428 223.459 454.428C222.346 454.428 221.472 454.982 220.838 456.089C220.203 457.193 219.886 458.739 219.886 460.727C219.886 462.053 220.028 463.185 220.312 464.122C220.601 465.06 221.011 465.775 221.541 466.267C222.076 466.759 222.715 467.006 223.459 467.006ZM242.805 462.041H235.859V460.848H242.805C243.506 460.848 244.098 460.715 244.581 460.45C245.064 460.185 245.431 459.821 245.682 459.357C245.933 458.888 246.058 458.353 246.058 457.751C246.058 457.15 245.933 456.617 245.682 456.153C245.431 455.685 245.064 455.318 244.581 455.053C244.098 454.783 243.506 454.648 242.805 454.648H239.325V468H237.997V453.455H242.805C243.8 453.455 244.633 453.646 245.305 454.03C245.982 454.413 246.494 454.929 246.839 455.578C247.19 456.227 247.365 456.951 247.365 457.751C247.365 458.552 247.19 459.276 246.839 459.925C246.494 460.573 245.982 461.089 245.305 461.473C244.633 461.852 243.8 462.041 242.805 462.041ZM242.748 463.376V464.57H235.859V463.376H242.748Z" fill="white"/>
<path d="M560.109 40.9134C559.996 39.9048 559.527 39.1236 558.703 38.5696C557.879 38.0085 556.842 37.728 555.592 37.728C554.697 37.728 553.923 37.87 553.27 38.1541C552.616 38.4311 552.109 38.8146 551.746 39.3047C551.391 39.7876 551.214 40.3381 551.214 40.956C551.214 41.4744 551.335 41.9219 551.576 42.2983C551.825 42.6747 552.148 42.9908 552.545 43.2464C552.95 43.495 553.384 43.7045 553.845 43.875C554.307 44.0384 554.751 44.1733 555.177 44.2798L557.308 44.8338C558.004 45.0043 558.717 45.2351 559.449 45.5263C560.18 45.8175 560.859 46.201 561.484 46.6768C562.109 47.1527 562.613 47.7422 562.996 48.4453C563.387 49.1484 563.582 49.9901 563.582 50.9702C563.582 52.206 563.263 53.3033 562.624 54.2621C561.991 55.2209 561.072 55.9773 559.864 56.5312C558.664 57.0852 557.212 57.3622 555.507 57.3622C553.874 57.3622 552.46 57.103 551.267 56.5845C550.074 56.0661 549.14 55.331 548.465 54.3793C547.79 53.4205 547.418 52.2841 547.347 50.9702H550.649C550.713 51.7585 550.969 52.4155 551.416 52.9411C551.871 53.4595 552.45 53.8466 553.153 54.1023C553.863 54.3509 554.641 54.4751 555.486 54.4751C556.416 54.4751 557.244 54.3295 557.968 54.0384C558.7 53.7401 559.275 53.3281 559.694 52.8026C560.113 52.2699 560.322 51.6484 560.322 50.9382C560.322 50.2919 560.138 49.7628 559.768 49.3509C559.406 48.9389 558.913 48.598 558.288 48.3281C557.67 48.0582 556.97 47.8203 556.189 47.6143L553.611 46.9112C551.864 46.4354 550.479 45.7358 549.456 44.8125C548.44 43.8892 547.933 42.6676 547.933 41.1477C547.933 39.8906 548.273 38.7933 548.955 37.8558C549.637 36.9183 550.56 36.1903 551.725 35.6719C552.89 35.1463 554.204 34.8835 555.667 34.8835C557.144 34.8835 558.447 35.1428 559.577 35.6612C560.713 36.1797 561.608 36.8935 562.261 37.8026C562.915 38.7045 563.256 39.7415 563.284 40.9134H560.109ZM574.313 57.3303C572.701 57.3303 571.312 56.9858 570.148 56.2969C568.99 55.6009 568.095 54.6243 567.463 53.3672C566.838 52.103 566.525 50.6222 566.525 48.9247C566.525 47.2486 566.838 45.7713 567.463 44.4929C568.095 43.2145 568.976 42.2166 570.105 41.4993C571.241 40.782 572.569 40.4233 574.089 40.4233C575.013 40.4233 575.907 40.576 576.774 40.8814C577.64 41.1868 578.418 41.6662 579.107 42.3196C579.796 42.973 580.339 43.8217 580.737 44.8658C581.135 45.9027 581.334 47.1634 581.334 48.6477V49.777H568.326V47.3906H578.212C578.212 46.5526 578.042 45.8104 577.701 45.1641C577.36 44.5107 576.881 43.9957 576.263 43.6193C575.652 43.2429 574.934 43.0547 574.111 43.0547C573.216 43.0547 572.434 43.2749 571.767 43.7152C571.106 44.1484 570.595 44.7166 570.233 45.4197C569.878 46.1158 569.7 46.8722 569.7 47.6889V49.5533C569.7 50.647 569.892 51.5774 570.275 52.3445C570.666 53.1115 571.209 53.6974 571.905 54.1023C572.601 54.5 573.415 54.6989 574.345 54.6989C574.949 54.6989 575.499 54.6136 575.996 54.4432C576.493 54.2656 576.923 54.0028 577.285 53.6548C577.648 53.3068 577.925 52.8771 578.116 52.3658L581.131 52.9091C580.89 53.7969 580.456 54.5746 579.831 55.2422C579.214 55.9027 578.436 56.4176 577.498 56.7869C576.568 57.1491 575.506 57.3303 574.313 57.3303ZM588.053 47.2841V57H584.868V40.6364H587.925V43.2997H588.128C588.504 42.4332 589.094 41.7372 589.896 41.2116C590.706 40.6861 591.725 40.4233 592.954 40.4233C594.069 40.4233 595.045 40.6577 595.884 41.1264C596.722 41.5881 597.371 42.277 597.833 43.1932C598.295 44.1094 598.526 45.2422 598.526 46.5916V57H595.34V46.9751C595.34 45.7891 595.031 44.8622 594.413 44.1946C593.795 43.5199 592.947 43.1825 591.867 43.1825C591.129 43.1825 590.472 43.3423 589.896 43.6619C589.328 43.9815 588.877 44.4503 588.543 45.0682C588.217 45.679 588.053 46.4176 588.053 47.2841ZM602.798 57V40.6364H605.983V57H602.798ZM604.406 38.1115C603.852 38.1115 603.376 37.9268 602.979 37.5575C602.588 37.1811 602.393 36.7337 602.393 36.2152C602.393 35.6896 602.588 35.2422 602.979 34.8729C603.376 34.4964 603.852 34.3082 604.406 34.3082C604.96 34.3082 605.433 34.4964 605.823 34.8729C606.221 35.2422 606.42 35.6896 606.42 36.2152C606.42 36.7337 606.221 37.1811 605.823 37.5575C605.433 37.9268 604.96 38.1115 604.406 38.1115ZM617.161 57.3303C615.627 57.3303 614.288 56.9787 613.145 56.2756C612.001 55.5724 611.113 54.5888 610.481 53.3246C609.849 52.0604 609.533 50.5831 609.533 48.8928C609.533 47.1953 609.849 45.7109 610.481 44.4396C611.113 43.1683 612.001 42.1811 613.145 41.478C614.288 40.7749 615.627 40.4233 617.161 40.4233C618.695 40.4233 620.034 40.7749 621.177 41.478C622.321 42.1811 623.209 43.1683 623.841 44.4396C624.473 45.7109 624.789 47.1953 624.789 48.8928C624.789 50.5831 624.473 52.0604 623.841 53.3246C623.209 54.5888 622.321 55.5724 621.177 56.2756C620.034 56.9787 618.695 57.3303 617.161 57.3303ZM617.172 54.6562C618.166 54.6562 618.99 54.3935 619.643 53.8679C620.297 53.3423 620.78 52.6428 621.092 51.7692C621.412 50.8956 621.572 49.9332 621.572 48.8821C621.572 47.8381 621.412 46.8793 621.092 46.0057C620.78 45.125 620.297 44.4183 619.643 43.8857C618.99 43.353 618.166 43.0866 617.172 43.0866C616.17 43.0866 615.339 43.353 614.679 43.8857C614.025 44.4183 613.539 45.125 613.219 46.0057C612.907 46.8793 612.751 47.8381 612.751 48.8821C612.751 49.9332 612.907 50.8956 613.219 51.7692C613.539 52.6428 614.025 53.3423 614.679 53.8679C615.339 54.3935 616.17 54.6562 617.172 54.6562ZM628.344 57V40.6364H631.423V43.2358H631.594C631.892 42.3551 632.418 41.6626 633.17 41.1584C633.93 40.647 634.79 40.3913 635.749 40.3913C635.947 40.3913 636.182 40.3984 636.452 40.4126C636.729 40.4268 636.945 40.4446 637.102 40.4659V43.5128C636.974 43.4773 636.746 43.4382 636.42 43.3956C636.093 43.3459 635.766 43.321 635.44 43.321C634.687 43.321 634.016 43.4808 633.426 43.8004C632.844 44.1129 632.382 44.5497 632.041 45.1108C631.7 45.6648 631.53 46.2969 631.53 47.0071V57H628.344Z" fill="white"/>
<path d="M544.433 88V87.027L549.184 81.6861C549.804 80.9853 550.304 80.3864 550.683 79.8892C551.062 79.392 551.336 78.9328 551.507 78.5114C551.682 78.09 551.769 77.652 551.769 77.1974C551.769 76.6435 551.639 76.1605 551.379 75.7486C551.123 75.3319 550.77 75.0076 550.321 74.7756C549.871 74.5436 549.364 74.4276 548.801 74.4276C548.204 74.4276 547.681 74.5554 547.231 74.8111C546.786 75.0668 546.44 75.4171 546.194 75.8622C545.948 76.3073 545.825 76.8187 545.825 77.3963H544.554C544.554 76.5914 544.738 75.8788 545.108 75.2585C545.482 74.6335 545.991 74.1435 546.634 73.7884C547.283 73.4332 548.017 73.2557 548.836 73.2557C549.646 73.2557 550.366 73.4309 550.995 73.7812C551.625 74.1269 552.12 74.598 552.48 75.1946C552.84 75.7912 553.019 76.4588 553.019 77.1974C553.019 77.7325 552.925 78.2509 552.735 78.7528C552.551 79.2547 552.231 79.8134 551.777 80.429C551.322 81.0445 550.692 81.7973 549.887 82.6875L546.279 86.7145V86.8068H553.474V88H544.433ZM560.894 88.1989C560.084 88.1989 559.36 88.0355 558.721 87.7088C558.086 87.3774 557.58 86.9228 557.201 86.3452C556.827 85.7675 556.628 85.107 556.604 84.3636H557.89C557.932 85.1354 558.235 85.7699 558.799 86.267C559.362 86.7595 560.061 87.0057 560.894 87.0057C561.543 87.0057 562.12 86.8518 562.627 86.544C563.134 86.2315 563.529 85.8054 563.813 85.2656C564.102 84.7211 564.246 84.108 564.246 83.4261C564.242 82.7159 564.088 82.0909 563.785 81.5511C563.482 81.0066 563.07 80.5805 562.549 80.2727C562.033 79.965 561.453 79.8111 560.809 79.8111C560.321 79.8063 559.843 79.8868 559.374 80.0526C558.905 80.2183 558.515 80.4313 558.202 80.6918L556.874 80.5213L557.748 73.4545H564.935V74.6477H558.863L558.28 79.5128H558.351C558.673 79.2429 559.064 79.0227 559.523 78.8523C559.987 78.6818 560.477 78.5966 560.994 78.5966C561.851 78.5966 562.62 78.8026 563.302 79.2145C563.988 79.6264 564.53 80.1946 564.928 80.919C565.331 81.6387 565.532 82.4673 565.532 83.4048C565.532 84.3234 565.331 85.1449 564.928 85.8693C564.53 86.589 563.981 87.1572 563.28 87.5739C562.584 87.9905 561.789 88.1989 560.894 88.1989ZM572.808 88.1989C571.998 88.1989 571.274 88.0355 570.635 87.7088C570 87.3774 569.494 86.9228 569.115 86.3452C568.741 85.7675 568.542 85.107 568.518 84.3636H569.804C569.847 85.1354 570.15 85.7699 570.713 86.267C571.276 86.7595 571.975 87.0057 572.808 87.0057C573.457 87.0057 574.034 86.8518 574.541 86.544C575.048 86.2315 575.443 85.8054 575.727 85.2656C576.016 84.7211 576.16 84.108 576.16 83.4261C576.156 82.7159 576.002 82.0909 575.699 81.5511C575.396 81.0066 574.984 80.5805 574.463 80.2727C573.947 79.965 573.367 79.8111 572.723 79.8111C572.235 79.8063 571.757 79.8868 571.288 80.0526C570.82 80.2183 570.429 80.4313 570.116 80.6918L568.788 80.5213L569.662 73.4545H576.849V74.6477H570.777L570.195 79.5128H570.266C570.588 79.2429 570.978 79.0227 571.437 78.8523C571.901 78.6818 572.391 78.5966 572.908 78.5966C573.765 78.5966 574.534 78.8026 575.216 79.2145C575.902 79.6264 576.445 80.1946 576.842 80.919C577.245 81.6387 577.446 82.4673 577.446 83.4048C577.446 84.3234 577.245 85.1449 576.842 85.8693C576.445 86.589 575.895 87.1572 575.195 87.5739C574.498 87.9905 573.703 88.1989 572.808 88.1989ZM590.61 88.1989C589.587 88.1989 588.714 87.9053 587.989 87.3182C587.27 86.7263 586.716 85.8717 586.327 84.7543C585.944 83.6368 585.752 82.2945 585.752 80.7273C585.752 79.1648 585.944 77.8272 586.327 76.7145C586.716 75.5971 587.272 74.7424 587.996 74.1506C588.726 73.554 589.597 73.2557 590.61 73.2557C591.623 73.2557 592.492 73.554 593.217 74.1506C593.946 74.7424 594.502 75.5971 594.886 76.7145C595.274 77.8272 595.468 79.1648 595.468 80.7273C595.468 82.2945 595.274 83.6368 594.886 84.7543C594.502 85.8717 593.948 86.7263 593.224 87.3182C592.504 87.9053 591.633 88.1989 590.61 88.1989ZM590.61 87.0057C591.732 87.0057 592.608 86.4588 593.238 85.3651C593.868 84.2666 594.182 82.7206 594.182 80.7273C594.182 79.4015 594.038 78.2699 593.749 77.3324C593.465 76.3902 593.056 75.6705 592.521 75.1733C591.99 74.6761 591.353 74.4276 590.61 74.4276C589.497 74.4276 588.624 74.9815 587.989 76.0895C587.355 77.1927 587.038 78.7386 587.038 80.7273C587.038 82.053 587.18 83.1847 587.464 84.1222C587.753 85.0597 588.162 85.7746 588.692 86.267C589.227 86.7595 589.867 87.0057 590.61 87.0057ZM602.876 88.1989C601.853 88.1989 600.979 87.9053 600.255 87.3182C599.535 86.7263 598.981 85.8717 598.593 84.7543C598.209 83.6368 598.018 82.2945 598.018 80.7273C598.018 79.1648 598.209 77.8272 598.593 76.7145C598.981 75.5971 599.538 74.7424 600.262 74.1506C600.991 73.554 601.862 73.2557 602.876 73.2557C603.889 73.2557 604.758 73.554 605.482 74.1506C606.211 74.7424 606.768 75.5971 607.151 76.7145C607.539 77.8272 607.734 79.1648 607.734 80.7273C607.734 82.2945 607.539 83.6368 607.151 84.7543C606.768 85.8717 606.214 86.7263 605.489 87.3182C604.77 87.9053 603.898 88.1989 602.876 88.1989ZM602.876 87.0057C603.998 87.0057 604.874 86.4588 605.503 85.3651C606.133 84.2666 606.448 82.7206 606.448 80.7273C606.448 79.4015 606.304 78.2699 606.015 77.3324C605.731 76.3902 605.321 75.6705 604.786 75.1733C604.256 74.6761 603.619 74.4276 602.876 74.4276C601.763 74.4276 600.889 74.9815 600.255 76.0895C599.62 77.1927 599.303 78.7386 599.303 80.7273C599.303 82.053 599.445 83.1847 599.729 84.1222C600.018 85.0597 600.428 85.7746 600.958 86.267C601.493 86.7595 602.132 87.0057 602.876 87.0057ZM615.141 88.1989C614.119 88.1989 613.245 87.9053 612.521 87.3182C611.801 86.7263 611.247 85.8717 610.859 84.7543C610.475 83.6368 610.283 82.2945 610.283 80.7273C610.283 79.1648 610.475 77.8272 610.859 76.7145C611.247 75.5971 611.803 74.7424 612.528 74.1506C613.257 73.554 614.128 73.2557 615.141 73.2557C616.155 73.2557 617.023 73.554 617.748 74.1506C618.477 74.7424 619.033 75.5971 619.417 76.7145C619.805 77.8272 619.999 79.1648 619.999 80.7273C619.999 82.2945 619.805 83.6368 619.417 84.7543C619.033 85.8717 618.479 86.7263 617.755 87.3182C617.035 87.9053 616.164 88.1989 615.141 88.1989ZM615.141 87.0057C616.263 87.0057 617.139 86.4588 617.769 85.3651C618.399 84.2666 618.714 82.7206 618.714 80.7273C618.714 79.4015 618.569 78.2699 618.28 77.3324C617.996 76.3902 617.587 75.6705 617.052 75.1733C616.521 74.6761 615.885 74.4276 615.141 74.4276C614.029 74.4276 613.155 74.9815 612.521 76.0895C611.886 77.1927 611.569 78.7386 611.569 80.7273C611.569 82.053 611.711 83.1847 611.995 84.1222C612.284 85.0597 612.693 85.7746 613.224 86.267C613.759 86.7595 614.398 87.0057 615.141 87.0057ZM634.488 82.0412H627.542V80.848H634.488C635.189 80.848 635.78 80.7154 636.263 80.4503C636.746 80.1851 637.113 79.8205 637.364 79.3565C637.615 78.8878 637.741 78.3527 637.741 77.7514C637.741 77.1501 637.615 76.6174 637.364 76.1534C637.113 75.6847 636.746 75.3177 636.263 75.0526C635.78 74.7827 635.189 74.6477 634.488 74.6477H631.008V88H629.68V73.4545H634.488C635.482 73.4545 636.315 73.6463 636.988 74.0298C637.665 74.4134 638.176 74.9295 638.522 75.5781C638.872 76.2268 639.047 76.9512 639.047 77.7514C639.047 78.5516 638.872 79.276 638.522 79.9247C638.176 80.5734 637.665 81.0895 636.988 81.473C636.315 81.8518 635.482 82.0412 634.488 82.0412ZM634.431 83.3764V84.5696H627.542V83.3764H634.431Z" fill="white"/>
<defs>
<linearGradient id="paint0_linear_814_1785" x1="516.736" y1="128.166" x2="653.972" y2="286.247" gradientUnits="userSpaceOnUse">
<stop stop-color="#FAE673"/>
<stop offset="1" stop-color="#EF183D"/>
</linearGradient>
<linearGradient id="paint1_linear_814_1785" x1="503.876" y1="216.416" x2="695.619" y2="324.15" gradientUnits="userSpaceOnUse">
<stop stop-color="#FAE673"/>
<stop offset="1" stop-color="#EF183D"/>
</linearGradient>
<linearGradient id="paint2_linear_814_1785" x1="492.72" y1="96.9401" x2="754.047" y2="89.1829" gradientUnits="userSpaceOnUse">
<stop stop-color="#EFFCFB"/>
<stop offset="1" stop-color="#5D8BE4"/>
</linearGradient>
<linearGradient id="paint3_linear_814_1785" x1="512.323" y1="114.942" x2="643.099" y2="114.486" gradientUnits="userSpaceOnUse">
<stop stop-color="#EFFCFB"/>
<stop offset="1" stop-color="#5D8BE4"/>
</linearGradient>
<linearGradient id="paint4_linear_814_1785" x1="513.252" y1="604.845" x2="815.604" y2="432.653" gradientUnits="userSpaceOnUse">
<stop stop-color="#EFFCFB"/>
<stop offset="1" stop-color="#5D8BE4"/>
</linearGradient>
<linearGradient id="paint5_linear_814_1785" x1="351.822" y1="305.078" x2="458.009" y2="427.393" gradientUnits="userSpaceOnUse">
<stop stop-color="#FAE673"/>
<stop offset="1" stop-color="#EF183D"/>
</linearGradient>
<linearGradient id="paint6_linear_814_1785" x1="328.929" y1="373.686" x2="475.386" y2="455.975" gradientUnits="userSpaceOnUse">
<stop stop-color="#FAE673"/>
<stop offset="1" stop-color="#EF183D"/>
</linearGradient>
<linearGradient id="paint7_linear_814_1785" x1="304.093" y1="285.631" x2="565.42" y2="277.873" gradientUnits="userSpaceOnUse">
<stop stop-color="#EFFCFB"/>
<stop offset="1" stop-color="#5D8BE4"/>
</linearGradient>
<linearGradient id="paint8_linear_814_1785" x1="323.696" y1="309.408" x2="454.471" y2="308.787" gradientUnits="userSpaceOnUse">
<stop stop-color="#EFFCFB"/>
<stop offset="1" stop-color="#5D8BE4"/>
</linearGradient>
<linearGradient id="paint9_linear_814_1785" x1="324.625" y1="668.879" x2="574.51" y2="474.932" gradientUnits="userSpaceOnUse">
<stop stop-color="#EFFCFB"/>
<stop offset="1" stop-color="#5D8BE4"/>
</linearGradient>
<linearGradient id="paint10_linear_814_1785" x1="179.07" y1="482.138" x2="254.597" y2="569.137" gradientUnits="userSpaceOnUse">
<stop stop-color="#FAE673"/>
<stop offset="1" stop-color="#EF183D"/>
</linearGradient>
<linearGradient id="paint11_linear_814_1785" x1="146.268" y1="531.35" x2="248.007" y2="588.513" gradientUnits="userSpaceOnUse">
<stop stop-color="#FAE673"/>
<stop offset="1" stop-color="#EF183D"/>
</linearGradient>
<linearGradient id="paint12_linear_814_1785" x1="107.924" y1="474.321" x2="369.251" y2="466.564" gradientUnits="userSpaceOnUse">
<stop stop-color="#EFFCFB"/>
<stop offset="1" stop-color="#5D8BE4"/>
</linearGradient>
<linearGradient id="paint13_linear_814_1785" x1="127.527" y1="503.761" x2="258.298" y2="502.794" gradientUnits="userSpaceOnUse">
<stop stop-color="#EFFCFB"/>
<stop offset="1" stop-color="#5D8BE4"/>
</linearGradient>
<linearGradient id="paint14_linear_814_1785" x1="128.456" y1="734.5" x2="291.088" y2="537.849" gradientUnits="userSpaceOnUse">
<stop stop-color="#EFFCFB"/>
<stop offset="1" stop-color="#5D8BE4"/>
</linearGradient>
</defs>
</svg>
