<svg width="660" height="551" viewBox="0 0 660 551" fill="none" xmlns="http://www.w3.org/2000/svg">
<path d="M511.657 459.322L511.391 458.869L656.861 377.272C658.539 376.335 659.453 375.091 659.453 373.799C659.453 372.491 658.523 371.263 656.861 370.326L530.753 298.872L531.018 298.419L657.127 369.874C658.971 370.908 660.002 372.313 660.002 373.799C660.002 375.285 658.988 376.69 657.143 377.724L511.657 459.322Z" fill="#427AE8"/>
<path d="M306.583 481.523C305.202 481.523 303.73 481.181 302.599 480.535L119.637 374.81C118.488 374.145 117.824 373.229 117.824 372.331C117.824 371.558 118.291 370.858 119.152 370.355L228.337 307.272C230.15 306.23 233.327 306.356 235.408 307.559L418.371 413.284C419.519 413.949 420.183 414.865 420.183 415.763C420.183 416.536 419.717 417.236 418.855 417.739L309.67 480.822C308.863 481.289 307.75 481.523 306.583 481.523ZM119.96 374.271L302.922 479.996C304.843 481.109 307.732 481.235 309.383 480.283L418.568 417.2C419.214 416.823 419.591 416.32 419.591 415.781C419.591 415.099 419.053 414.398 418.084 413.841L235.121 308.116C233.201 307.003 230.312 306.877 228.661 307.829L119.475 370.912C118.829 371.289 118.452 371.792 118.452 372.331C118.452 373.013 118.991 373.714 119.96 374.271Z" fill="#427AE8"/>
<path d="M419.88 397.478L409.812 396.023L235.266 295.166C233.256 294.016 230.241 293.89 228.5 294.878L124.555 354.944L118.148 354.027V362.524H118.166C118.184 363.278 118.723 364.086 119.8 364.715L302.762 470.44C304.772 471.59 307.787 471.715 309.528 470.727L418.713 407.644C419.503 407.177 419.88 406.567 419.862 405.92H419.88V397.478Z" fill="url(#paint0_linear_814_283)"/>
<path d="M119.798 356.273L302.76 461.998C304.77 463.147 307.785 463.273 309.526 462.285L418.711 399.202C420.452 398.196 420.237 396.454 418.227 395.286L235.264 289.561C233.254 288.412 230.239 288.286 228.498 289.274L119.313 352.357C117.572 353.363 117.788 355.105 119.798 356.273Z" fill="url(#paint1_linear_814_283)"/>
<path opacity="0.3" d="M135.643 358.338L299.17 452.837C300.964 453.879 303.674 453.987 305.218 453.089L402.81 396.705C404.353 395.807 404.174 394.245 402.379 393.203L238.852 298.704C237.058 297.662 234.348 297.555 232.804 298.453L135.212 354.836C133.651 355.734 133.848 357.315 135.643 358.338Z" fill="#163572"/>
<path d="M418.712 398.268L309.526 461.351C307.786 462.357 304.771 462.231 302.761 461.064L119.798 355.356C118.919 354.854 118.398 354.225 118.237 353.596C117.968 354.494 118.488 355.5 119.798 356.273L302.761 461.998C304.771 463.147 307.786 463.273 309.526 462.285L418.712 399.202C419.681 398.645 420.022 397.837 419.788 397.047C419.645 397.496 419.304 397.927 418.712 398.268Z" fill="white"/>
<path d="M300.174 303.374L299.887 302.871L358.123 269.228L205.454 180.998C201.147 178.502 195.781 178.502 191.473 180.998L141.834 209.684L141.547 209.181L191.186 180.495C195.673 177.909 201.254 177.909 205.741 180.495L359.289 269.228L358.859 269.48L300.174 303.374Z" fill="#427AE8"/>
<path d="M234.921 256.583L258.054 119.245L256.187 118.454L258.987 116.856V116.874C259.525 116.514 260.297 116.532 261.141 117.017L445.987 223.82C447.513 224.7 448.661 226.945 448.392 228.526L425.08 366.96C424.954 367.679 424.595 368.164 424.111 368.361L421.383 369.942L420.916 367.391L421.078 367.445L237.362 261.289C235.8 260.409 234.652 258.164 234.921 256.583Z" fill="url(#paint2_linear_814_283)"/>
<path opacity="0.3" d="M444.948 227.592L447.981 226.245C448.322 227.017 448.484 227.844 448.376 228.526L425.064 366.96C424.938 367.679 424.579 368.164 424.095 368.361L421.367 369.942L420.9 367.391L421.062 367.445L411.766 362.075L444.948 227.592Z" fill="#051535"/>
<path d="M234.42 262.96L419.267 369.762C420.702 370.589 421.923 370.104 422.174 368.631L445.486 230.197C445.755 228.616 444.607 226.371 443.081 225.491L258.235 118.688C256.799 117.862 255.579 118.347 255.327 119.819L232.015 258.254C231.764 259.834 232.912 262.079 234.42 262.96Z" fill="#163572"/>
<g opacity="0.51">
<path d="M257.625 121.274L443.333 228.544L419.877 367.32L234.276 260.122L257.625 121.274Z" fill="#0A1D43"/>
</g>
<path d="M118.236 328.485L128.322 333.766L229.468 275.317C231.154 274.347 234.116 274.455 236.072 275.587L410.528 376.39C412.197 375.456 419.806 371.792 419.806 371.792L416.109 377.791L416.091 377.773C415.93 378.204 415.607 378.6 415.05 378.923L308.521 440.479C306.834 441.449 303.873 441.341 301.917 440.21L123.405 337.053C122.597 336.586 122.113 336.029 121.915 335.455L121.897 335.473L118.236 328.485Z" fill="url(#paint3_linear_814_283)"/>
<path d="M119.798 330.156L302.76 435.881C304.77 437.03 307.785 437.156 309.526 436.168L418.711 373.085C420.452 372.079 420.237 370.337 418.227 369.169L235.264 263.444C233.254 262.295 230.239 262.169 228.498 263.157L119.313 326.24C117.572 327.246 117.788 328.988 119.798 330.156Z" fill="url(#paint4_linear_814_283)"/>
<path d="M119.798 329.329L302.76 435.054C304.77 436.204 307.785 436.33 309.526 435.342L418.711 372.259C419.321 371.9 419.68 371.451 419.806 370.984C420.003 371.756 419.662 372.528 418.711 373.085L309.526 436.168C307.785 437.174 304.77 437.048 302.76 435.881L119.798 330.156C118.505 329.401 117.967 328.413 118.218 327.533C118.38 328.162 118.9 328.809 119.798 329.329Z" fill="white"/>
<g opacity="0.15">
<mask id="mask0_814_283" style="mask-type:luminance" maskUnits="userSpaceOnUse" x="234" y="121" width="210" height="247">
<path d="M443.335 228.544L257.626 121.274L234.278 260.122L419.879 367.32L443.335 228.544Z" fill="white"/>
</mask>
<g mask="url(#mask0_814_283)">
<path d="M234.204 262.061L244.29 267.342L345.435 208.894C347.122 207.924 350.083 208.031 352.039 209.163L526.495 309.966C528.164 309.032 535.774 305.368 535.774 305.368L532.077 311.367L532.059 311.35C531.897 311.781 531.574 312.176 531.018 312.499L424.489 374.055C422.802 375.025 419.841 374.917 417.884 373.786L239.373 270.629C238.565 270.162 238.08 269.606 237.883 269.031L237.865 269.049L234.204 262.061Z" fill="url(#paint5_linear_814_283)"/>
<path d="M235.766 263.714L418.728 369.439C420.738 370.589 423.753 370.714 425.494 369.726L534.679 306.644C536.42 305.638 536.205 303.895 534.195 302.728L351.232 197.003C349.222 195.853 346.207 195.727 344.466 196.715L235.281 259.798C233.54 260.822 233.756 262.565 235.766 263.714Z" fill="url(#paint6_linear_814_283)"/>
<path d="M534.175 302.728L351.213 197.003C349.921 196.266 348.216 195.943 346.69 196.087C347.821 196.176 348.952 196.482 349.867 197.003L532.829 302.728C534.839 303.877 535.055 305.638 533.314 306.643L424.129 369.726C423.519 370.086 422.729 370.283 421.885 370.373C423.213 370.481 424.541 370.283 425.475 369.726L534.66 306.643C536.401 305.638 536.185 303.877 534.175 302.728Z" fill="white"/>
<g opacity="0.5">
<path d="M331.6 245.518L325.731 242.124C325.265 241.854 324.457 241.872 323.954 242.177L317.44 245.985C316.92 246.291 316.902 246.74 317.368 247.027L323.237 250.422C323.703 250.691 324.511 250.674 325.013 250.368L331.528 246.56C332.03 246.255 332.066 245.788 331.6 245.518Z" fill="#163572"/>
<path d="M340.645 250.763L334.776 247.368C334.31 247.099 333.502 247.117 332.999 247.422L326.485 251.23C325.964 251.536 325.947 251.985 326.413 252.272L332.282 255.667C332.748 255.936 333.556 255.918 334.058 255.613L340.573 251.805C341.093 251.5 341.129 251.033 340.645 250.763Z" fill="#163572"/>
<path d="M349.706 255.99L343.838 252.595C343.371 252.326 342.563 252.344 342.061 252.649L335.546 256.457C335.026 256.763 335.008 257.212 335.475 257.499L341.343 260.894C341.81 261.163 342.617 261.145 343.12 260.84L349.634 257.032C350.155 256.727 350.173 256.26 349.706 255.99Z" fill="#163572"/>
<path d="M342.816 262.96L336.947 259.565C336.481 259.296 335.673 259.313 335.17 259.619L329.697 262.816C329.176 263.121 329.158 263.57 329.625 263.858L335.493 267.253C335.96 267.522 336.768 267.504 337.27 267.199L342.744 264.002C343.246 263.696 343.282 263.229 342.816 262.96Z" fill="#163572"/>
<path d="M351.878 268.187L346.01 264.792C345.543 264.522 344.735 264.54 344.233 264.846L338.759 268.043C338.239 268.348 338.221 268.797 338.688 269.085L344.556 272.48C345.023 272.749 345.83 272.731 346.333 272.426L351.806 269.228C352.309 268.923 352.345 268.456 351.878 268.187Z" fill="#163572"/>
<path d="M360.922 273.414L355.054 270.019C354.587 269.749 353.779 269.767 353.277 270.073L347.803 273.27C347.283 273.575 347.265 274.024 347.731 274.312L353.6 277.707C354.067 277.976 354.874 277.958 355.377 277.653L360.85 274.455C361.371 274.15 361.389 273.701 360.922 273.414Z" fill="#163572"/>
<path d="M369.986 278.659L364.118 275.264C363.651 274.994 362.844 275.012 362.341 275.318L356.868 278.515C356.347 278.82 356.329 279.269 356.796 279.557L362.664 282.951C363.131 283.221 363.939 283.203 364.441 282.898L369.915 279.7C370.417 279.395 370.453 278.928 369.986 278.659Z" fill="#163572"/>
<path d="M379.051 283.886L373.182 280.491C372.716 280.221 371.908 280.239 371.406 280.545L365.932 283.742C365.412 284.047 365.394 284.496 365.86 284.784L371.729 288.178C372.195 288.448 373.003 288.43 373.506 288.125L378.979 284.927C379.482 284.622 379.518 284.155 379.051 283.886Z" fill="#163572"/>
<path d="M388.096 289.13L382.227 285.736C381.761 285.466 380.953 285.484 380.451 285.789L374.977 288.987C374.457 289.292 374.439 289.741 374.905 290.029L380.774 293.423C381.24 293.693 382.048 293.675 382.55 293.369L388.024 290.172C388.545 289.867 388.562 289.4 388.096 289.13Z" fill="#163572"/>
<path d="M397.158 294.357L391.29 290.962C390.823 290.693 390.016 290.711 389.513 291.016L384.04 294.214C383.519 294.519 383.501 294.968 383.968 295.255L389.836 298.65C390.303 298.92 391.11 298.902 391.613 298.596L397.087 295.399C397.589 295.094 397.625 294.627 397.158 294.357Z" fill="#163572"/>
<path d="M406.221 299.584L400.352 296.189C399.886 295.92 399.078 295.938 398.576 296.243L393.102 299.441C392.582 299.746 392.564 300.195 393.03 300.482L398.899 303.877C399.365 304.147 400.173 304.129 400.675 303.823L406.149 300.626C406.652 300.321 406.687 299.854 406.221 299.584Z" fill="#163572"/>
<path d="M415.265 304.829L409.396 301.435C408.93 301.165 408.122 301.183 407.62 301.488L402.146 304.686C401.626 304.991 401.608 305.44 402.074 305.728L407.943 309.122C408.409 309.392 409.217 309.374 409.719 309.068L415.193 305.871C415.713 305.566 415.731 305.099 415.265 304.829Z" fill="#163572"/>
<path d="M424.327 310.056L418.459 306.661C417.992 306.392 417.185 306.41 416.682 306.715L411.209 309.913C410.688 310.218 410.67 310.667 411.137 310.954L417.005 314.349C417.472 314.619 418.279 314.601 418.782 314.295L424.256 311.098C424.758 310.793 424.794 310.326 424.327 310.056Z" fill="#163572"/>
<path d="M339.047 270.432L333.179 267.037C332.712 266.768 331.904 266.786 331.402 267.091L325.928 270.288C325.408 270.594 325.39 271.043 325.856 271.33L331.725 274.725C332.192 274.994 332.999 274.976 333.502 274.671L338.975 271.474C339.478 271.168 339.514 270.701 339.047 270.432Z" fill="#163572"/>
<path d="M329.84 265.115L323.972 261.72C323.505 261.451 322.697 261.469 322.195 261.774L316.721 264.971C316.201 265.277 316.183 265.726 316.649 266.013L322.518 269.408C322.985 269.677 323.792 269.659 324.295 269.354L329.768 266.157C330.289 265.851 330.325 265.384 329.84 265.115Z" fill="#163572"/>
<path d="M320.634 259.798L308 252.506C307.533 252.236 306.726 252.254 306.223 252.56L300.75 255.757C300.229 256.062 300.211 256.511 300.678 256.799L313.312 264.091C313.779 264.361 314.586 264.343 315.089 264.038L320.562 260.84C321.083 260.535 321.119 260.068 320.634 259.798Z" fill="#163572"/>
<path d="M309.955 263.265L299.708 257.337C299.241 257.068 298.434 257.086 297.931 257.391L292.458 260.589C291.937 260.894 291.919 261.343 292.386 261.63L302.633 267.558C303.1 267.827 303.907 267.809 304.41 267.504L309.883 264.307C310.404 264.001 310.422 263.552 309.955 263.265Z" fill="#163572"/>
<path d="M348.092 275.659L342.223 272.264C341.757 271.995 340.949 272.013 340.447 272.318L334.973 275.515C334.453 275.821 334.435 276.27 334.901 276.557L340.77 279.952C341.236 280.221 342.044 280.203 342.547 279.898L348.02 276.701C348.541 276.395 348.577 275.928 348.092 275.659Z" fill="#163572"/>
<path d="M357.154 280.886L351.286 277.491C350.819 277.222 350.012 277.239 349.509 277.545L344.036 280.742C343.515 281.047 343.497 281.497 343.964 281.784L349.832 285.179C350.299 285.448 351.107 285.43 351.609 285.125L357.083 281.928C357.585 281.622 357.621 281.173 357.154 280.886Z" fill="#163572"/>
<path d="M366.219 286.131L360.35 282.736C359.884 282.466 359.076 282.484 358.574 282.79L353.1 285.987C352.58 286.292 352.562 286.741 353.028 287.029L358.897 290.424C359.363 290.693 360.171 290.675 360.674 290.37L366.147 287.172C366.65 286.867 366.686 286.4 366.219 286.131Z" fill="#163572"/>
<path d="M375.263 291.358L369.394 287.963C368.928 287.693 368.12 287.711 367.618 288.017L362.144 291.214C361.624 291.519 361.606 291.968 362.072 292.256L367.941 295.651C368.407 295.92 369.215 295.902 369.717 295.597L375.191 292.4C375.712 292.094 375.747 291.627 375.263 291.358Z" fill="#163572"/>
<path d="M384.325 296.585L378.457 293.19C377.99 292.921 377.183 292.938 376.68 293.244L371.207 296.441C370.686 296.746 370.668 297.195 371.135 297.483L377.003 300.878C377.47 301.147 378.277 301.129 378.78 300.824L384.254 297.627C384.756 297.321 384.792 296.872 384.325 296.585Z" fill="#163572"/>
<path d="M393.388 301.83L387.519 298.435C387.053 298.165 386.245 298.183 385.743 298.489L380.269 301.686C379.749 301.991 379.731 302.44 380.197 302.728L386.066 306.123C386.532 306.392 387.34 306.374 387.842 306.069L393.316 302.871C393.819 302.566 393.854 302.099 393.388 301.83Z" fill="#163572"/>
<path d="M402.433 307.056L396.564 303.662C396.098 303.392 395.29 303.41 394.788 303.715L389.314 306.913C388.794 307.218 388.776 307.667 389.242 307.955L395.111 311.349C395.577 311.619 396.385 311.601 396.887 311.296L402.361 308.098C402.881 307.793 402.917 307.326 402.433 307.056Z" fill="#163572"/>
<path d="M411.497 312.302L405.629 308.907C405.162 308.637 404.355 308.655 403.852 308.961L398.378 312.158C397.858 312.463 397.84 312.912 398.307 313.2L404.175 316.595C404.642 316.864 405.449 316.846 405.952 316.541L411.425 313.343C411.928 313.038 411.964 312.571 411.497 312.302Z" fill="#163572"/>
<path d="M420.56 317.529L414.691 314.134C414.225 313.864 413.417 313.882 412.915 314.188L407.441 317.385C406.921 317.69 406.903 318.139 407.369 318.427L413.238 321.822C413.704 322.091 414.512 322.073 415.014 321.768L420.488 318.57C420.99 318.265 421.026 317.798 420.56 317.529Z" fill="#163572"/>
<path d="M436.656 326.833L423.86 319.433C423.394 319.163 422.586 319.181 422.084 319.486L416.61 322.684C416.089 322.989 416.072 323.438 416.538 323.726L429.334 331.126C429.8 331.395 430.608 331.377 431.111 331.072L436.584 327.875C437.087 327.569 437.123 327.102 436.656 326.833Z" fill="#163572"/>
<path d="M420.056 336.533L409.252 330.3C408.785 330.03 407.978 330.048 407.475 330.354L402.002 333.551C401.481 333.856 401.463 334.305 401.93 334.593L412.733 340.826C413.2 341.095 414.008 341.077 414.51 340.772L419.984 337.574C420.486 337.269 420.522 336.82 420.056 336.533Z" fill="#163572"/>
<path d="M346.837 284.586L340.969 281.191C340.502 280.922 339.694 280.94 339.192 281.245L333.718 284.442C333.198 284.748 333.18 285.197 333.647 285.484L339.515 288.879C339.982 289.148 340.789 289.13 341.292 288.825L346.765 285.628C347.286 285.322 347.322 284.855 346.837 284.586Z" fill="#163572"/>
<path d="M337.559 279.215L331.69 275.821C331.224 275.551 330.416 275.569 329.914 275.874L324.44 279.072C323.92 279.377 323.902 279.826 324.368 280.113L330.237 283.508C330.703 283.778 331.511 283.76 332.013 283.454L337.487 280.257C337.989 279.952 338.025 279.485 337.559 279.215Z" fill="#163572"/>
<path d="M328.279 273.863L322.411 270.468C321.944 270.198 321.137 270.216 320.634 270.522L315.161 273.719C314.64 274.024 314.622 274.473 315.089 274.761L320.957 278.156C321.424 278.425 322.232 278.407 322.734 278.102L328.208 274.904C328.71 274.599 328.746 274.132 328.279 273.863Z" fill="#163572"/>
<path d="M319.002 268.492L313.134 265.097C312.667 264.828 311.859 264.846 311.357 265.151L305.883 268.348C305.363 268.654 305.345 269.103 305.812 269.39L311.68 272.785C312.147 273.054 312.954 273.036 313.457 272.731L318.93 269.534C319.433 269.228 319.469 268.761 319.002 268.492Z" fill="#163572"/>
<path d="M355.898 289.813L350.029 286.418C349.563 286.149 348.755 286.167 348.252 286.472L342.779 289.669C342.258 289.975 342.24 290.424 342.707 290.711L348.575 294.106C349.042 294.375 349.85 294.357 350.352 294.052L355.826 290.855C356.328 290.549 356.364 290.082 355.898 289.813Z" fill="#163572"/>
<path d="M364.962 295.058L359.094 291.663C358.627 291.394 357.819 291.412 357.317 291.717L351.843 294.914C351.323 295.22 351.305 295.669 351.772 295.956L357.64 299.351C358.107 299.62 358.914 299.602 359.417 299.297L364.89 296.1C365.393 295.794 365.429 295.327 364.962 295.058Z" fill="#163572"/>
<path d="M374.007 300.285L368.139 296.89C367.672 296.621 366.864 296.639 366.362 296.944L360.888 300.141C360.368 300.447 360.35 300.896 360.816 301.183L366.685 304.578C367.151 304.847 367.959 304.829 368.462 304.524L373.935 301.327C374.456 301.021 374.492 300.554 374.007 300.285Z" fill="#163572"/>
<path d="M383.069 305.512L377.2 302.117C376.733 301.848 375.926 301.866 375.423 302.171L369.95 305.368C369.429 305.674 369.411 306.123 369.878 306.41L375.746 309.805C376.213 310.074 377.021 310.056 377.523 309.751L382.997 306.554C383.499 306.248 383.535 305.799 383.069 305.512Z" fill="#163572"/>
<path d="M392.133 310.757L386.265 307.362C385.798 307.092 384.99 307.11 384.488 307.416L379.014 310.613C378.494 310.918 378.476 311.367 378.942 311.655L384.811 315.05C385.277 315.319 386.085 315.301 386.588 314.996L392.061 311.798C392.564 311.493 392.6 311.026 392.133 310.757Z" fill="#163572"/>
<path d="M401.178 315.984L395.309 312.589C394.843 312.319 394.035 312.337 393.533 312.643L388.059 315.84C387.539 316.145 387.521 316.594 387.987 316.882L393.856 320.277C394.322 320.546 395.13 320.528 395.632 320.223L401.106 317.026C401.627 316.72 401.662 316.253 401.178 315.984Z" fill="#163572"/>
<path d="M410.24 321.211L404.372 317.816C403.905 317.546 403.098 317.564 402.595 317.87L397.122 321.067C396.601 321.372 396.583 321.821 397.05 322.109L402.918 325.504C403.385 325.773 404.192 325.755 404.695 325.45L410.169 322.253C410.671 321.947 410.707 321.498 410.24 321.211Z" fill="#163572"/>
<path d="M419.303 326.456L413.434 323.061C412.968 322.791 412.16 322.809 411.658 323.115L406.184 326.312C405.664 326.617 405.646 327.066 406.112 327.354L411.981 330.749C412.447 331.018 413.255 331 413.757 330.695L419.231 327.497C419.734 327.192 419.769 326.725 419.303 326.456Z" fill="#163572"/>
<path d="M428.348 331.683L422.479 328.288C422.013 328.018 421.205 328.036 420.703 328.342L415.229 331.539C414.709 331.844 414.691 332.293 415.157 332.581L421.026 335.976C421.492 336.245 422.3 336.227 422.802 335.922L428.276 332.724C428.796 332.419 428.814 331.952 428.348 331.683Z" fill="#163572"/>
<path d="M324.958 281.586L319.09 278.191C318.623 277.922 317.816 277.94 317.313 278.245L311.839 281.443C311.319 281.748 311.301 282.197 311.768 282.484L317.636 285.879C318.103 286.149 318.91 286.131 319.413 285.825L324.886 282.628C325.389 282.323 325.425 281.856 324.958 281.586Z" fill="#163572"/>
<path d="M315.95 276.377L310.082 272.982C309.615 272.713 308.808 272.731 308.305 273.036L302.832 276.234C302.311 276.539 302.293 276.988 302.76 277.275L308.628 280.67C309.095 280.94 309.902 280.922 310.405 280.616L315.879 277.419C316.381 277.114 316.417 276.647 315.95 276.377Z" fill="#163572"/>
<path d="M306.923 271.168L301.055 267.773C300.588 267.504 299.78 267.522 299.278 267.827L293.804 271.025C293.284 271.33 293.266 271.779 293.732 272.066L299.601 275.461C300.067 275.731 300.875 275.713 301.378 275.407L306.851 272.21C307.372 271.905 307.408 271.438 306.923 271.168Z" fill="#163572"/>
<path d="M297.915 265.959L292.047 262.564C291.58 262.295 290.773 262.313 290.27 262.618L284.796 265.816C284.276 266.121 284.258 266.57 284.725 266.857L290.593 270.252C291.06 270.522 291.867 270.504 292.37 270.198L297.843 267.001C298.364 266.696 298.382 266.229 297.915 265.959Z" fill="#163572"/>
<path d="M289.193 271.06L283.324 267.666C282.858 267.396 282.05 267.414 281.547 267.719L279.735 268.779C279.214 269.085 279.197 269.534 279.663 269.821L285.532 273.216C285.998 273.485 286.806 273.467 287.308 273.162L289.121 272.102C289.623 271.797 289.659 271.348 289.193 271.06Z" fill="#163572"/>
<path d="M300.947 277.868L295.079 274.473C294.612 274.204 293.805 274.222 293.302 274.527L291.49 275.587C290.969 275.892 290.951 276.341 291.418 276.629L297.286 280.024C297.753 280.293 298.561 280.275 299.063 279.97L300.876 278.91C301.396 278.605 301.432 278.138 300.947 277.868Z" fill="#163572"/>
<path d="M309.92 283.041L304.052 279.646C303.585 279.377 302.778 279.395 302.275 279.7L300.462 280.76C299.942 281.066 299.924 281.515 300.391 281.802L306.259 285.197C306.726 285.466 307.533 285.448 308.036 285.143L309.848 284.083C310.369 283.778 310.405 283.329 309.92 283.041Z" fill="#163572"/>
<path d="M318.893 288.232L313.024 284.837C312.558 284.568 311.75 284.586 311.248 284.891L309.435 285.951C308.915 286.256 308.897 286.705 309.363 286.993L315.232 290.388C315.698 290.657 316.506 290.639 317.008 290.334L318.821 289.274C319.342 288.969 319.377 288.502 318.893 288.232Z" fill="#163572"/>
<path d="M327.885 293.423L322.017 290.028C321.55 289.759 320.742 289.777 320.24 290.082L318.427 291.142C317.907 291.447 317.889 291.896 318.356 292.184L324.224 295.579C324.691 295.848 325.498 295.83 326.001 295.525L327.813 294.465C328.316 294.16 328.352 293.693 327.885 293.423Z" fill="#163572"/>
<path d="M377.972 322.378L372.103 318.983C371.637 318.714 370.829 318.732 370.327 319.037L368.514 320.097C367.994 320.402 367.976 320.851 368.442 321.139L374.311 324.534C374.777 324.803 375.585 324.785 376.088 324.48L377.9 323.42C378.421 323.115 378.456 322.648 377.972 322.378Z" fill="#163572"/>
<path d="M386.947 327.551L381.078 324.156C380.611 323.887 379.804 323.905 379.301 324.21L377.489 325.27C376.968 325.575 376.95 326.025 377.417 326.312L383.285 329.707C383.752 329.976 384.56 329.958 385.062 329.653L386.875 328.593C387.395 328.288 387.431 327.839 386.947 327.551Z" fill="#163572"/>
<path d="M395.919 332.742L390.051 329.348C389.584 329.078 388.777 329.096 388.274 329.402L386.461 330.461C385.941 330.767 385.923 331.216 386.39 331.503L392.258 334.898C392.725 335.167 393.532 335.149 394.035 334.844L395.847 333.784C396.368 333.479 396.404 333.012 395.919 332.742Z" fill="#163572"/>
<path d="M404.891 337.933L399.022 334.539C398.556 334.269 397.748 334.287 397.246 334.592L395.433 335.652C394.913 335.958 394.895 336.407 395.361 336.694L401.23 340.089C401.696 340.358 402.504 340.34 403.007 340.035L404.819 338.975C405.339 338.67 405.375 338.203 404.891 337.933Z" fill="#163572"/>
<path d="M334.005 286.813L328.137 283.418C327.67 283.149 326.862 283.167 326.36 283.472L320.886 286.67C320.366 286.975 320.348 287.424 320.814 287.711L326.683 291.106C327.15 291.376 327.957 291.358 328.46 291.052L333.933 287.855C334.454 287.55 334.49 287.101 334.005 286.813Z" fill="#163572"/>
<path d="M343.068 292.058L337.199 288.664C336.732 288.394 335.925 288.412 335.422 288.717L329.949 291.915C329.428 292.22 329.41 292.669 329.877 292.957L335.745 296.351C336.212 296.621 337.02 296.603 337.522 296.297L342.996 293.1C343.498 292.795 343.534 292.328 343.068 292.058Z" fill="#163572"/>
<path d="M352.131 297.285L346.263 293.89C345.796 293.621 344.988 293.639 344.486 293.944L339.012 297.142C338.492 297.447 338.474 297.896 338.94 298.183L344.809 301.578C345.275 301.848 346.083 301.83 346.586 301.524L352.059 298.327C352.562 298.022 352.598 297.555 352.131 297.285Z" fill="#163572"/>
<path d="M361.176 302.53L355.307 299.135C354.841 298.866 354.033 298.884 353.531 299.189L348.057 302.386C347.537 302.692 347.519 303.141 347.985 303.428L353.854 306.823C354.32 307.092 355.128 307.075 355.631 306.769L361.104 303.572C361.625 303.249 361.661 302.8 361.176 302.53Z" fill="#163572"/>
<path d="M370.238 307.757L364.37 304.362C363.903 304.093 363.096 304.111 362.593 304.416L357.12 307.613C356.599 307.919 356.581 308.368 357.048 308.655L362.916 312.05C363.383 312.32 364.191 312.302 364.693 311.996L370.167 308.799C370.669 308.494 370.705 308.027 370.238 307.757Z" fill="#163572"/>
<path d="M379.301 312.984L373.432 309.589C372.966 309.32 372.158 309.338 371.656 309.643L366.182 312.84C365.662 313.146 365.644 313.595 366.11 313.882L371.979 317.277C372.445 317.547 373.253 317.529 373.756 317.223L379.229 314.026C379.732 313.721 379.768 313.254 379.301 312.984Z" fill="#163572"/>
<path d="M388.346 318.229L382.477 314.834C382.011 314.565 381.203 314.583 380.701 314.888L375.227 318.085C374.707 318.391 374.689 318.84 375.155 319.127L381.024 322.522C381.49 322.791 382.298 322.773 382.8 322.468L388.274 319.271C388.795 318.966 388.83 318.498 388.346 318.229Z" fill="#163572"/>
<path d="M397.407 323.456L391.539 320.061C391.072 319.792 390.265 319.81 389.762 320.115L384.289 323.312C383.768 323.618 383.75 324.067 384.217 324.354L390.085 327.749C390.552 328.018 391.359 328.001 391.862 327.695L397.336 324.498C397.838 324.193 397.874 323.726 397.407 323.456Z" fill="#163572"/>
<path d="M406.47 328.683L400.601 325.288C400.135 325.019 399.327 325.037 398.825 325.342L393.351 328.539C392.831 328.845 392.813 329.294 393.279 329.581L399.148 332.976C399.614 333.245 400.422 333.227 400.924 332.922L406.398 329.725C406.901 329.419 406.936 328.97 406.47 328.683Z" fill="#163572"/>
<path d="M333.59 257.625L316.326 247.638C315.859 247.368 315.052 247.386 314.549 247.692L309.076 250.889C308.555 251.194 308.537 251.643 309.004 251.931L326.268 261.918C326.735 262.187 327.542 262.169 328.045 261.864L333.519 258.667C334.021 258.361 334.057 257.894 333.59 257.625Z" fill="#163572"/>
<path d="M444.858 321.911L427.594 311.924C427.127 311.655 426.319 311.673 425.817 311.978L420.343 315.175C419.823 315.481 419.805 315.93 420.272 316.217L437.536 326.204C438.002 326.474 438.81 326.456 439.313 326.15L444.786 322.953C445.289 322.648 445.325 322.181 444.858 321.911Z" fill="#163572"/>
<path d="M428.06 301.255L422.191 297.86C421.725 297.591 420.917 297.609 420.414 297.914L413.9 301.722C413.38 302.027 413.362 302.476 413.828 302.764L419.697 306.159C420.163 306.428 420.971 306.41 421.473 306.105L427.988 302.297C428.49 301.991 428.526 301.524 428.06 301.255Z" fill="#163572"/>
<path d="M362.288 263.247L352.902 257.822C352.435 257.553 351.628 257.571 351.125 257.876L344.611 261.684C344.09 261.989 344.073 262.439 344.539 262.726L353.925 268.15C354.392 268.42 355.199 268.402 355.702 268.097L362.216 264.289C362.719 263.983 362.755 263.534 362.288 263.247Z" fill="#163572"/>
<path d="M419.32 296.225L409.934 290.801C409.468 290.531 408.66 290.549 408.158 290.855L401.643 294.663C401.123 294.968 401.105 295.417 401.571 295.704L410.957 301.129C411.424 301.398 412.231 301.38 412.734 301.075L419.248 297.267C419.769 296.944 419.787 296.495 419.32 296.225Z" fill="#163572"/>
<path d="M375.353 270.809L365.968 265.385C365.501 265.115 364.693 265.133 364.191 265.438L357.676 269.246C357.156 269.552 357.138 270.001 357.605 270.288L366.99 275.713C367.457 275.982 368.265 275.964 368.767 275.659L375.282 271.851C375.784 271.546 375.82 271.078 375.353 270.809Z" fill="#163572"/>
<path d="M357.657 270.324L398.431 293.89C398.934 294.178 399.741 294.196 400.208 293.908L406.848 290.029C407.333 289.741 407.297 289.292 406.794 288.987L366.02 265.42L357.657 270.324Z" fill="#163572"/>
<path d="M435.599 310.487L442.131 314.259C442.508 314.475 443.172 314.457 443.585 314.224L446.259 312.661C446.672 312.409 446.708 312.032 446.313 311.817L439.78 308.045C439.386 307.829 438.739 307.847 438.327 308.081L435.653 309.643C435.24 309.895 435.222 310.272 435.599 310.487Z" fill="#163572"/>
<path d="M426.534 305.26L433.067 309.032C433.462 309.248 434.108 309.23 434.521 308.997L437.195 307.434C437.607 307.182 437.643 306.805 437.248 306.59L430.716 302.818C430.321 302.602 429.675 302.62 429.262 302.853L426.588 304.416C426.176 304.65 426.158 305.027 426.534 305.26Z" fill="#163572"/>
<path d="M430.897 313.235L437.429 317.008C437.806 317.223 438.47 317.205 438.883 316.972L441.557 315.409C441.97 315.157 442.006 314.78 441.611 314.565L435.078 310.793C434.684 310.577 434.038 310.595 433.625 310.829L430.951 312.391C430.538 312.643 430.502 313.02 430.897 313.235Z" fill="#163572"/>
</g>
</g>
</g>
<g opacity="0.8">
<path d="M203.967 318.445L198.152 315.086C197.685 314.816 197.739 314.349 198.278 314.026L205.133 310.056C205.672 309.751 206.479 309.715 206.946 309.984L212.76 313.343C213.227 313.613 213.173 314.08 212.635 314.403L205.779 318.373C205.241 318.678 204.433 318.714 203.967 318.445Z" fill="#163572"/>
<path d="M212.924 323.618L207.109 320.259C206.642 319.989 206.696 319.522 207.235 319.199L214.09 315.229C214.629 314.924 215.436 314.888 215.903 315.158L221.717 318.516C222.184 318.786 222.13 319.253 221.592 319.576L214.736 323.546C214.216 323.869 213.39 323.887 212.924 323.618Z" fill="#163572"/>
<path d="M221.896 328.809L216.082 325.45C215.615 325.181 215.669 324.714 216.207 324.39L223.063 320.421C223.601 320.115 224.409 320.079 224.875 320.349L230.69 323.708C231.157 323.977 231.103 324.444 230.564 324.767L223.709 328.737C223.17 329.042 222.363 329.078 221.896 328.809Z" fill="#163572"/>
<path d="M234.298 324.534L228.483 321.175C228.016 320.906 228.07 320.438 228.609 320.115L234.369 316.792C234.908 316.487 235.715 316.451 236.182 316.72L241.997 320.079C242.463 320.349 242.409 320.816 241.871 321.139L236.11 324.462C235.59 324.767 234.764 324.803 234.298 324.534Z" fill="#163572"/>
<path d="M243.27 329.707L237.456 326.348C236.989 326.079 237.043 325.612 237.581 325.288L243.342 321.965C243.881 321.66 244.688 321.624 245.155 321.893L250.969 325.252C251.436 325.522 251.382 325.989 250.844 326.312L245.083 329.635C244.562 329.94 243.737 329.976 243.27 329.707Z" fill="#163572"/>
<path d="M252.243 334.898L246.428 331.539C245.962 331.27 246.016 330.802 246.554 330.479L252.315 327.156C252.853 326.851 253.661 326.815 254.127 327.084L259.942 330.443C260.409 330.713 260.355 331.18 259.816 331.503L254.056 334.826C253.517 335.131 252.71 335.167 252.243 334.898Z" fill="#163572"/>
<path d="M261.218 340.071L255.403 336.712C254.936 336.443 254.99 335.976 255.529 335.652L261.289 332.329C261.828 332.024 262.635 331.988 263.102 332.257L268.917 335.616C269.383 335.886 269.329 336.353 268.791 336.676L263.03 339.999C262.492 340.322 261.684 340.34 261.218 340.071Z" fill="#163572"/>
<path d="M270.19 345.262L264.376 341.903C263.909 341.634 263.963 341.167 264.501 340.843L270.262 337.52C270.8 337.215 271.608 337.179 272.075 337.449L277.889 340.808C278.356 341.077 278.302 341.544 277.764 341.867L272.003 345.19C271.464 345.496 270.657 345.532 270.19 345.262Z" fill="#163572"/>
<path d="M279.143 350.453L273.329 347.094C272.862 346.825 272.916 346.358 273.454 346.034L279.215 342.711C279.754 342.406 280.561 342.37 281.028 342.64L286.842 345.998C287.309 346.268 287.255 346.735 286.717 347.058L280.956 350.381C280.436 350.687 279.61 350.705 279.143 350.453Z" fill="#163572"/>
<path d="M288.117 355.626L282.302 352.267C281.836 351.998 281.89 351.531 282.428 351.208L288.189 347.885C288.727 347.579 289.535 347.543 290.001 347.813L295.816 351.172C296.283 351.441 296.229 351.908 295.69 352.232L289.93 355.555C289.409 355.86 288.584 355.896 288.117 355.626Z" fill="#163572"/>
<path d="M297.09 360.817L291.275 357.458C290.808 357.189 290.862 356.722 291.401 356.399L297.161 353.076C297.7 352.77 298.507 352.734 298.974 353.004L304.789 356.363C305.255 356.632 305.201 357.099 304.663 357.422L298.902 360.745C298.364 361.051 297.556 361.087 297.09 360.817Z" fill="#163572"/>
<path d="M306.062 365.99L300.248 362.631C299.781 362.362 299.835 361.895 300.373 361.571L306.134 358.248C306.672 357.943 307.48 357.907 307.947 358.177L313.761 361.536C314.228 361.805 314.174 362.272 313.636 362.595L307.875 365.918C307.337 366.224 306.529 366.26 306.062 365.99Z" fill="#163572"/>
<path d="M315.037 371.181L309.222 367.822C308.756 367.553 308.81 367.086 309.348 366.763L315.109 363.44C315.647 363.134 316.455 363.098 316.921 363.368L322.736 366.727C323.202 366.996 323.149 367.463 322.61 367.786L316.85 371.109C316.311 371.415 315.504 371.451 315.037 371.181Z" fill="#163572"/>
<path d="M247.522 322.073L241.708 318.714C241.241 318.445 241.295 317.978 241.833 317.654L247.594 314.331C248.132 314.026 248.94 313.99 249.407 314.26L255.221 317.619C255.688 317.888 255.634 318.355 255.096 318.678L249.335 322.001C248.796 322.307 247.989 322.343 247.522 322.073Z" fill="#163572"/>
<path d="M238.425 316.81L232.61 313.451C232.143 313.182 232.197 312.715 232.736 312.391L238.496 309.068C239.035 308.763 239.842 308.727 240.309 308.996L246.124 312.355C246.59 312.625 246.536 313.092 245.998 313.415L240.237 316.738C239.699 317.043 238.891 317.079 238.425 316.81Z" fill="#163572"/>
<path d="M229.289 311.547L216.781 304.327C216.314 304.057 216.368 303.59 216.907 303.267L222.667 299.944C223.206 299.638 224.013 299.603 224.48 299.872L236.988 307.093C237.455 307.362 237.401 307.829 236.863 308.152L231.102 311.475C230.582 311.781 229.756 311.817 229.289 311.547Z" fill="#163572"/>
<path d="M235.679 305.135L225.521 299.261C225.055 298.992 225.108 298.525 225.647 298.201L231.408 294.878C231.946 294.573 232.754 294.537 233.22 294.807L243.378 300.68C243.844 300.95 243.79 301.417 243.252 301.74L237.491 305.063C236.953 305.368 236.145 305.404 235.679 305.135Z" fill="#163572"/>
<path d="M256.495 327.264L250.68 323.905C250.214 323.636 250.268 323.169 250.806 322.845L256.567 319.522C257.105 319.217 257.913 319.181 258.379 319.451L264.194 322.809C264.661 323.079 264.607 323.546 264.068 323.869L258.308 327.192C257.769 327.498 256.962 327.534 256.495 327.264Z" fill="#163572"/>
<path d="M265.452 332.437L259.637 329.078C259.171 328.809 259.225 328.342 259.763 328.018L265.524 324.695C266.062 324.39 266.87 324.354 267.336 324.623L273.151 327.982C273.618 328.252 273.564 328.719 273.025 329.042L267.265 332.365C266.744 332.67 265.919 332.706 265.452 332.437Z" fill="#163572"/>
<path d="M274.425 337.628L268.61 334.269C268.143 334 268.197 333.533 268.736 333.209L274.496 329.886C275.035 329.581 275.842 329.545 276.309 329.815L282.124 333.173C282.59 333.443 282.536 333.91 281.998 334.233L276.237 337.556C275.717 337.862 274.891 337.898 274.425 337.628Z" fill="#163572"/>
<path d="M283.397 342.801L277.583 339.442C277.116 339.173 277.17 338.706 277.708 338.383L283.469 335.06C284.007 334.754 284.815 334.718 285.282 334.988L291.096 338.347C291.563 338.616 291.509 339.083 290.971 339.406L285.21 342.729C284.671 343.035 283.864 343.071 283.397 342.801Z" fill="#163572"/>
<path d="M292.37 347.992L286.555 344.633C286.089 344.364 286.143 343.897 286.681 343.574L292.442 340.251C292.98 339.945 293.788 339.909 294.254 340.179L300.069 343.538C300.536 343.807 300.482 344.274 299.943 344.597L294.183 347.921C293.644 348.226 292.837 348.262 292.37 347.992Z" fill="#163572"/>
<path d="M301.345 353.165L295.53 349.807C295.063 349.537 295.117 349.07 295.656 348.747L301.416 345.424C301.955 345.118 302.762 345.082 303.229 345.352L309.044 348.711C309.51 348.98 309.456 349.447 308.918 349.771L303.157 353.094C302.619 353.417 301.811 353.435 301.345 353.165Z" fill="#163572"/>
<path d="M310.299 358.356L304.484 354.997C304.017 354.728 304.071 354.261 304.61 353.938L310.37 350.615C310.909 350.309 311.716 350.273 312.183 350.543L317.998 353.902C318.464 354.171 318.41 354.638 317.872 354.962L312.111 358.285C311.591 358.59 310.765 358.626 310.299 358.356Z" fill="#163572"/>
<path d="M319.271 363.548L313.457 360.189C312.99 359.919 313.044 359.452 313.582 359.129L319.343 355.806C319.881 355.501 320.689 355.465 321.156 355.734L326.97 359.093C327.437 359.362 327.383 359.829 326.845 360.153L321.084 363.476C320.563 363.781 319.738 363.817 319.271 363.548Z" fill="#163572"/>
<path d="M328.244 368.721L322.429 365.362C321.963 365.092 322.017 364.625 322.555 364.302L328.316 360.979C328.854 360.674 329.662 360.638 330.128 360.907L335.943 364.266C336.41 364.535 336.356 365.002 335.817 365.326L330.057 368.649C329.518 368.954 328.711 368.99 328.244 368.721Z" fill="#163572"/>
<path d="M344.181 377.935L331.511 370.607C331.045 370.337 331.099 369.87 331.637 369.547L337.398 366.224C337.936 365.919 338.744 365.883 339.21 366.152L351.88 373.481C352.347 373.75 352.293 374.217 351.755 374.541L345.994 377.864C345.474 378.169 344.648 378.205 344.181 377.935Z" fill="#163572"/>
<path d="M361.661 367.84L350.965 361.662C350.498 361.392 350.552 360.925 351.09 360.602L356.851 357.279C357.389 356.973 358.197 356.937 358.663 357.207L369.359 363.386C369.826 363.655 369.772 364.122 369.234 364.446L363.473 367.769C362.935 368.074 362.127 368.11 361.661 367.84Z" fill="#163572"/>
<path d="M272.198 326.24L266.383 322.881C265.917 322.612 265.971 322.145 266.509 321.821L272.27 318.498C272.808 318.193 273.616 318.157 274.082 318.427L279.897 321.786C280.364 322.055 280.31 322.522 279.771 322.845L274.011 326.168C273.472 326.474 272.665 326.51 272.198 326.24Z" fill="#163572"/>
<path d="M263.011 320.923L257.196 317.564C256.729 317.295 256.783 316.828 257.322 316.505L263.082 313.182C263.621 312.876 264.428 312.84 264.895 313.11L270.71 316.469C271.176 316.738 271.122 317.205 270.584 317.528L264.823 320.851C264.285 321.175 263.477 321.193 263.011 320.923Z" fill="#163572"/>
<path d="M253.804 315.624L247.989 312.266C247.522 311.996 247.576 311.529 248.115 311.206L253.875 307.883C254.414 307.577 255.221 307.541 255.688 307.811L261.502 311.17C261.969 311.439 261.915 311.906 261.377 312.23L255.616 315.553C255.096 315.858 254.27 315.894 253.804 315.624Z" fill="#163572"/>
<path d="M244.617 310.308L238.802 306.949C238.336 306.679 238.39 306.212 238.928 305.889L244.689 302.566C245.227 302.261 246.035 302.225 246.501 302.494L252.316 305.853C252.783 306.123 252.729 306.59 252.19 306.913L246.43 310.236C245.909 310.541 245.084 310.577 244.617 310.308Z" fill="#163572"/>
<path d="M281.173 331.431L275.358 328.072C274.891 327.803 274.945 327.336 275.484 327.012L281.244 323.689C281.783 323.384 282.59 323.348 283.057 323.618L288.872 326.976C289.338 327.246 289.284 327.713 288.746 328.036L282.985 331.359C282.447 331.665 281.639 331.7 281.173 331.431Z" fill="#163572"/>
<path d="M290.128 336.604L284.313 333.246C283.847 332.976 283.9 332.509 284.439 332.186L290.2 328.863C290.738 328.557 291.546 328.521 292.012 328.791L297.827 332.15C298.293 332.419 298.239 332.886 297.701 333.21L291.94 336.533C291.42 336.838 290.594 336.874 290.128 336.604Z" fill="#163572"/>
<path d="M299.1 341.795L293.286 338.436C292.819 338.167 292.873 337.7 293.411 337.377L299.172 334.054C299.711 333.748 300.518 333.712 300.985 333.982L306.799 337.341C307.266 337.61 307.212 338.077 306.674 338.4L300.913 341.723C300.393 342.029 299.567 342.065 299.1 341.795Z" fill="#163572"/>
<path d="M308.072 346.968L302.257 343.609C301.791 343.34 301.845 342.873 302.383 342.55L308.144 339.227C308.682 338.921 309.49 338.885 309.956 339.155L315.771 342.514C316.238 342.783 316.184 343.25 315.645 343.574L309.885 346.897C309.346 347.22 308.539 347.238 308.072 346.968Z" fill="#163572"/>
<path d="M317.047 352.16L311.232 348.801C310.765 348.531 310.819 348.064 311.358 347.741L317.118 344.418C317.657 344.113 318.464 344.077 318.931 344.346L324.746 347.705C325.212 347.974 325.158 348.441 324.62 348.765L318.859 352.088C318.321 352.393 317.513 352.429 317.047 352.16Z" fill="#163572"/>
<path d="M326.019 357.351L320.205 353.992C319.738 353.722 319.792 353.255 320.33 352.932L326.091 349.609C326.63 349.303 327.437 349.268 327.904 349.537L333.718 352.896C334.185 353.165 334.131 353.632 333.593 353.956L327.832 357.279C327.294 357.584 326.486 357.62 326.019 357.351Z" fill="#163572"/>
<path d="M334.974 362.524L329.16 359.165C328.693 358.895 328.747 358.428 329.285 358.105L335.046 354.782C335.585 354.477 336.392 354.441 336.859 354.71L342.673 358.069C343.14 358.338 343.086 358.805 342.548 359.129L336.787 362.452C336.267 362.757 335.441 362.793 334.974 362.524Z" fill="#163572"/>
<path d="M343.947 367.715L338.132 364.356C337.666 364.086 337.72 363.619 338.258 363.296L344.019 359.973C344.557 359.668 345.365 359.632 345.831 359.901L351.646 363.26C352.113 363.53 352.059 363.997 351.52 364.32L345.76 367.643C345.239 367.948 344.414 367.984 343.947 367.715Z" fill="#163572"/>
<path d="M352.922 372.888L347.107 369.529C346.64 369.259 346.694 368.792 347.233 368.469L352.993 365.146C353.532 364.841 354.339 364.805 354.806 365.074L360.621 368.433C361.087 368.702 361.033 369.169 360.495 369.493L354.734 372.816C354.196 373.121 353.388 373.157 352.922 372.888Z" fill="#163572"/>
<path d="M267.479 313.415L261.665 310.056C261.198 309.787 261.252 309.32 261.79 308.997L267.551 305.674C268.089 305.368 268.897 305.332 269.364 305.602L275.178 308.961C275.645 309.23 275.591 309.697 275.053 310.02L269.292 313.343C268.753 313.667 267.946 313.685 267.479 313.415Z" fill="#163572"/>
<path d="M258.542 308.26L252.727 304.901C252.261 304.632 252.314 304.165 252.853 303.841L258.614 300.519C259.152 300.213 259.96 300.177 260.426 300.447L266.241 303.806C266.707 304.075 266.654 304.542 266.115 304.865L260.354 308.188C259.834 308.494 259.008 308.53 258.542 308.26Z" fill="#163572"/>
<path d="M249.624 303.105L243.809 299.746C243.343 299.477 243.396 299.01 243.935 298.686L249.696 295.363C250.234 295.058 251.042 295.022 251.508 295.291L257.323 298.65C257.789 298.92 257.736 299.387 257.197 299.71L251.436 303.033C250.898 303.338 250.09 303.374 249.624 303.105Z" fill="#163572"/>
<path d="M240.702 297.95L234.887 294.591C234.421 294.321 234.475 293.854 235.013 293.531L240.774 290.208C241.312 289.903 242.12 289.867 242.586 290.136L248.401 293.495C248.868 293.764 248.814 294.231 248.275 294.555L242.515 297.878C241.976 298.183 241.169 298.219 240.702 297.95Z" fill="#163572"/>
<path d="M249.874 292.651L244.059 289.292C243.593 289.023 243.646 288.556 244.185 288.232L246.087 287.137C246.626 286.831 247.433 286.795 247.9 287.065L253.714 290.424C254.181 290.693 254.127 291.16 253.589 291.483L251.686 292.579C251.148 292.885 250.34 292.92 249.874 292.651Z" fill="#163572"/>
<path d="M261.521 299.387L255.707 296.028C255.24 295.759 255.294 295.291 255.832 294.968L257.735 293.873C258.273 293.567 259.081 293.531 259.547 293.801L265.362 297.16C265.828 297.429 265.775 297.896 265.236 298.219L263.334 299.315C262.795 299.62 261.988 299.656 261.521 299.387Z" fill="#163572"/>
<path d="M270.404 304.506L264.59 301.147C264.123 300.878 264.177 300.411 264.715 300.087L266.617 298.992C267.156 298.686 267.963 298.65 268.43 298.92L274.245 302.279C274.711 302.548 274.657 303.015 274.119 303.338L272.217 304.434C271.696 304.757 270.871 304.775 270.404 304.506Z" fill="#163572"/>
<path d="M279.306 309.643L273.492 306.284C273.025 306.015 273.079 305.548 273.617 305.225L275.52 304.129C276.058 303.823 276.866 303.788 277.332 304.057L283.147 307.416C283.614 307.685 283.56 308.152 283.021 308.476L281.119 309.571C280.581 309.895 279.773 309.913 279.306 309.643Z" fill="#163572"/>
<path d="M288.189 314.78L282.375 311.421C281.908 311.152 281.962 310.685 282.5 310.362L284.403 309.266C284.941 308.961 285.749 308.925 286.215 309.194L292.03 312.553C292.496 312.823 292.443 313.29 291.904 313.613L290.002 314.709C289.463 315.014 288.656 315.05 288.189 314.78Z" fill="#163572"/>
<path d="M337.81 343.466L331.996 340.107C331.529 339.838 331.583 339.371 332.121 339.047L334.024 337.952C334.562 337.646 335.37 337.61 335.836 337.88L341.651 341.239C342.117 341.508 342.064 341.975 341.525 342.298L339.623 343.394C339.085 343.699 338.277 343.735 337.81 343.466Z" fill="#163572"/>
<path d="M346.695 348.603L340.881 345.244C340.414 344.975 340.468 344.508 341.006 344.184L342.908 343.089C343.447 342.783 344.254 342.747 344.721 343.017L350.536 346.376C351.002 346.645 350.948 347.112 350.41 347.435L348.508 348.531C347.969 348.836 347.162 348.872 346.695 348.603Z" fill="#163572"/>
<path d="M355.578 353.722L349.763 350.363C349.297 350.094 349.351 349.627 349.889 349.304L351.791 348.208C352.33 347.903 353.137 347.867 353.604 348.136L359.418 351.495C359.885 351.764 359.831 352.231 359.293 352.555L357.391 353.65C356.87 353.974 356.045 353.992 355.578 353.722Z" fill="#163572"/>
<path d="M364.461 358.859L358.646 355.5C358.18 355.231 358.233 354.764 358.772 354.441L360.674 353.345C361.213 353.04 362.02 353.004 362.487 353.273L368.301 356.632C368.768 356.901 368.714 357.368 368.176 357.692L366.273 358.787C365.753 359.093 364.927 359.129 364.461 358.859Z" fill="#163572"/>
<path d="M276.434 318.606L270.62 315.247C270.153 314.978 270.207 314.511 270.745 314.187L276.506 310.864C277.045 310.559 277.852 310.523 278.319 310.793L284.133 314.152C284.6 314.421 284.546 314.888 284.008 315.211L278.247 318.534C277.727 318.84 276.901 318.876 276.434 318.606Z" fill="#163572"/>
<path d="M285.407 323.797L279.592 320.438C279.126 320.169 279.18 319.702 279.718 319.379L285.479 316.056C286.017 315.75 286.825 315.714 287.291 315.984L293.106 319.343C293.573 319.612 293.519 320.079 292.98 320.402L287.22 323.725C286.699 324.031 285.874 324.067 285.407 323.797Z" fill="#163572"/>
<path d="M294.38 328.97L288.565 325.611C288.098 325.342 288.152 324.875 288.691 324.552L294.451 321.229C294.99 320.923 295.797 320.887 296.264 321.157L302.079 324.516C302.545 324.785 302.491 325.252 301.953 325.576L296.192 328.899C295.654 329.204 294.846 329.24 294.38 328.97Z" fill="#163572"/>
<path d="M303.354 334.162L297.54 330.803C297.073 330.533 297.127 330.066 297.665 329.743L303.426 326.42C303.964 326.115 304.772 326.079 305.239 326.348L311.053 329.707C311.52 329.976 311.466 330.443 310.928 330.767L305.167 334.09C304.628 334.395 303.821 334.431 303.354 334.162Z" fill="#163572"/>
<path d="M312.327 339.335L306.512 335.976C306.046 335.706 306.1 335.239 306.638 334.916L312.399 331.593C312.937 331.288 313.745 331.252 314.211 331.521L320.026 334.88C320.493 335.149 320.439 335.616 319.9 335.94L314.14 339.263C313.601 339.568 312.794 339.604 312.327 339.335Z" fill="#163572"/>
<path d="M321.284 344.526L315.469 341.167C315.003 340.897 315.057 340.43 315.595 340.107L321.356 336.784C321.894 336.479 322.702 336.443 323.168 336.712L328.983 340.071C329.45 340.341 329.396 340.808 328.857 341.131L323.097 344.454C322.576 344.759 321.751 344.795 321.284 344.526Z" fill="#163572"/>
<path d="M330.256 349.699L324.441 346.34C323.974 346.07 324.028 345.603 324.567 345.28L330.327 341.957C330.866 341.652 331.673 341.616 332.14 341.885L337.955 345.244C338.421 345.513 338.367 345.98 337.829 346.304L332.068 349.627C331.548 349.932 330.722 349.968 330.256 349.699Z" fill="#163572"/>
<path d="M339.228 354.89L333.414 351.531C332.947 351.261 333.001 350.794 333.539 350.471L339.3 347.148C339.839 346.843 340.646 346.807 341.113 347.076L346.927 350.435C347.394 350.704 347.34 351.171 346.802 351.495L341.041 354.818C340.503 355.123 339.695 355.159 339.228 354.89Z" fill="#163572"/>
<path d="M348.201 360.063L342.386 356.704C341.92 356.435 341.974 355.968 342.512 355.644L348.273 352.321C348.811 352.016 349.619 351.98 350.085 352.249L355.9 355.608C356.367 355.878 356.313 356.345 355.774 356.668L350.014 359.991C349.475 360.314 348.668 360.332 348.201 360.063Z" fill="#163572"/>
<path d="M225.16 319.253L208.057 309.374C207.591 309.104 207.645 308.637 208.183 308.314L213.944 304.991C214.482 304.686 215.29 304.65 215.756 304.919L232.859 314.798C233.326 315.068 233.272 315.535 232.733 315.858L226.973 319.181C226.434 319.486 225.627 319.522 225.16 319.253Z" fill="#163572"/>
<path d="M335.352 382.929L318.25 373.049C317.783 372.78 317.837 372.313 318.375 371.99L324.136 368.667C324.674 368.361 325.482 368.325 325.949 368.595L343.051 378.474C343.518 378.743 343.464 379.21 342.926 379.534L337.165 382.857C336.645 383.162 335.819 383.198 335.352 382.929Z" fill="#163572"/>
<path d="M299.476 373.642L293.662 370.283C293.195 370.014 293.249 369.547 293.787 369.223L300.643 365.254C301.181 364.948 301.989 364.913 302.456 365.182L308.27 368.541C308.737 368.81 308.683 369.277 308.144 369.601L301.289 373.57C300.769 373.876 299.943 373.912 299.476 373.642Z" fill="#163572"/>
<path d="M234.351 336.012L225.054 330.641C224.588 330.371 224.642 329.904 225.18 329.581L232.035 325.612C232.574 325.306 233.381 325.27 233.848 325.54L243.144 330.91C243.611 331.18 243.557 331.647 243.019 331.97L236.163 335.94C235.625 336.245 234.817 336.281 234.351 336.012Z" fill="#163572"/>
<path d="M290.844 368.649L281.548 363.278C281.081 363.008 281.135 362.541 281.673 362.218L288.529 358.248C289.067 357.943 289.875 357.907 290.341 358.177L299.637 363.547C300.104 363.817 300.05 364.284 299.512 364.607L292.656 368.577C292.118 368.882 291.31 368.918 290.844 368.649Z" fill="#163572"/>
<path d="M247.29 343.484L237.994 338.113C237.527 337.844 237.581 337.377 238.119 337.053L244.975 333.084C245.513 332.778 246.321 332.742 246.787 333.012L256.084 338.383C256.55 338.652 256.496 339.119 255.958 339.442L249.103 343.412C248.564 343.717 247.757 343.753 247.29 343.484Z" fill="#163572"/>
<path d="M246.877 333.066L287.256 356.399C287.759 356.686 287.759 357.153 287.256 357.441L280.257 361.482C279.755 361.769 278.947 361.769 278.445 361.482L238.065 338.149L246.877 333.066Z" fill="#163572"/>
<path d="M324.548 383.036L331.027 386.773C331.404 386.988 331.368 387.383 330.919 387.635L328.12 389.251C327.671 389.503 327.007 389.539 326.63 389.305L320.152 385.569C319.775 385.354 319.811 384.958 320.259 384.707L323.059 383.09C323.508 382.839 324.172 382.821 324.548 383.036Z" fill="#163572"/>
<path d="M315.504 377.809L321.982 381.546C322.359 381.761 322.323 382.156 321.874 382.408L319.075 384.024C318.626 384.276 317.962 384.312 317.585 384.078L311.107 380.342C310.73 380.127 310.766 379.731 311.214 379.48L314.014 377.863C314.463 377.63 315.127 377.594 315.504 377.809Z" fill="#163572"/>
<path d="M306.547 372.636L313.007 376.372C313.384 376.588 313.348 376.983 312.899 377.235L310.1 378.851C309.651 379.103 308.987 379.139 308.61 378.905L302.15 375.169C301.773 374.953 301.809 374.558 302.257 374.307L305.057 372.69C305.488 372.439 306.152 372.403 306.547 372.636Z" fill="#163572"/>
<path d="M320.457 374.953L326.917 378.69C327.294 378.905 327.258 379.3 326.81 379.552L324.01 381.168C323.561 381.42 322.897 381.456 322.521 381.222L316.06 377.486C315.683 377.271 315.719 376.875 316.168 376.624L318.967 375.007C319.416 374.756 320.08 374.738 320.457 374.953Z" fill="#163572"/>
</g>
<path d="M411.967 235.28C411.518 235.28 411.051 235.154 410.621 234.885C409.221 234.077 408.395 232.316 408.718 230.879C408.88 230.197 409.275 229.676 409.849 229.442C410.495 229.155 411.267 229.245 412.002 229.676C413.384 230.466 414.228 232.262 413.905 233.681C413.743 234.364 413.348 234.885 412.774 235.136C412.523 235.226 412.254 235.28 411.967 235.28ZM410.656 229.891C410.459 229.891 410.28 229.927 410.1 229.999C409.705 230.161 409.436 230.52 409.328 231.005C409.059 232.173 409.777 233.663 410.926 234.328C411.482 234.651 412.056 234.723 412.523 234.526C412.918 234.364 413.187 234.005 413.295 233.502C413.564 232.334 412.846 230.843 411.697 230.179C411.356 229.999 410.997 229.891 410.656 229.891Z" fill="#427AE8"/>
<path d="M419.36 239.555C418.911 239.555 418.445 239.429 418.014 239.16C416.65 238.37 415.789 236.573 416.112 235.154C416.273 234.472 416.668 233.951 417.242 233.699C417.871 233.43 418.66 233.502 419.396 233.933C420.76 234.723 421.621 236.519 421.298 237.938C421.137 238.621 420.742 239.142 420.168 239.393C419.916 239.501 419.647 239.555 419.36 239.555ZM418.05 234.166C417.853 234.166 417.673 234.202 417.494 234.274C417.099 234.436 416.83 234.795 416.722 235.298C416.453 236.466 417.171 237.956 418.319 238.621C418.876 238.944 419.45 239.016 419.916 238.819C420.311 238.657 420.58 238.298 420.688 237.795C420.957 236.627 420.24 235.136 419.091 234.472C418.75 234.274 418.391 234.166 418.05 234.166Z" fill="#427AE8"/>
<path d="M428.387 242.142C428.082 243.435 426.826 243.884 425.551 243.166C424.295 242.429 423.506 240.795 423.811 239.501C424.116 238.208 425.372 237.759 426.646 238.477C427.902 239.214 428.692 240.848 428.387 242.142Z" fill="#427AE8"/>
<path d="M286.593 160.468L282.627 158.187L282.95 156.354L286.898 158.636L286.593 160.468Z" fill="#427AE8"/>
<path d="M292.334 163.791L288.386 161.51L288.691 159.677L292.639 161.959L292.334 163.791Z" fill="#427AE8"/>
<path d="M280.902 157.181L272.216 152.169L272.521 150.337L281.207 155.349L280.902 157.181Z" fill="#427AE8"/>
<path d="M489.474 500.509C487.051 500.509 484.628 499.97 482.78 498.91L447.282 478.397C445.434 477.338 444.429 475.901 444.429 474.356C444.429 472.811 445.452 471.374 447.282 470.314L482.78 449.802C486.477 447.664 492.471 447.664 496.168 449.802L531.666 470.314C533.514 471.374 534.519 472.811 534.519 474.356C534.519 475.901 533.496 477.338 531.666 478.397L496.168 498.91C494.319 499.97 491.897 500.509 489.474 500.509ZM483.103 498.371C486.62 500.401 492.345 500.401 495.863 498.371L531.361 477.858C533.012 476.906 533.909 475.667 533.909 474.356C533.909 473.045 533.012 471.805 531.361 470.853L495.863 450.34C492.345 448.311 486.62 448.311 483.103 450.34L447.605 470.853C445.954 471.805 445.057 473.045 445.057 474.356C445.057 475.667 445.954 476.906 447.605 477.858L483.103 498.371Z" fill="#427AE8"/>
<path d="M535.634 455.657V447.61L533.408 446.371C532.78 450.179 528.312 452.675 524.579 453.196L499.149 468.087L488.04 472.092L452.614 453.789L453.44 453.322C450.407 451.903 448.774 448.67 447.141 445.706L444.754 447.125L443.336 447.52V455.783C443.336 457.363 444.377 458.944 446.459 460.13L481.956 480.642C486.12 483.049 492.868 483.049 497.031 480.642L532.529 460.13C534.575 458.944 535.616 457.399 535.652 455.855C535.634 455.801 535.634 455.729 535.634 455.657Z" fill="url(#paint7_linear_814_283)"/>
<path opacity="0.3" d="M524.577 453.196L499.147 468.087L489.492 471.572V482.457C492.22 482.457 494.948 481.864 497.03 480.66L532.527 460.148C534.573 458.962 535.614 457.417 535.65 455.873C535.65 455.801 535.65 455.729 535.65 455.657V447.61L533.622 446.479H533.407C532.689 450.215 528.274 452.675 524.577 453.196Z" fill="#051535"/>
<path d="M453.42 453.322L487.052 433.887C488.38 433.115 490.551 433.115 491.879 433.887L524.936 452.981L524.577 453.196C528.31 452.675 532.779 450.179 533.407 446.371L496.312 425.714L485.526 422.858L476.732 428.031L447.121 445.706C448.772 448.67 450.405 451.903 453.42 453.322Z" fill="url(#paint8_linear_814_283)"/>
<path opacity="0.3" d="M489.474 423.918L485.526 422.876L476.732 428.049L447.121 445.724C448.754 448.688 450.387 451.921 453.42 453.34L487.052 433.905C487.716 433.528 488.595 433.33 489.474 433.33V423.918Z" fill="#0F054C"/>
<path d="M481.937 472.488L446.439 451.975C442.276 449.568 442.276 445.67 446.439 443.263L481.937 422.751C486.1 420.344 492.848 420.344 497.012 422.751L532.51 443.263C536.673 445.67 536.673 449.568 532.51 451.975L497.012 472.488C492.866 474.877 486.1 474.877 481.937 472.488ZM491.897 425.696C490.569 424.924 488.398 424.924 487.07 425.696L451.572 446.209C450.244 446.981 450.244 448.221 451.572 448.993L487.07 469.506C488.398 470.278 490.569 470.278 491.897 469.506L527.395 448.993C528.723 448.221 528.723 446.981 527.395 446.209L491.897 425.696Z" fill="url(#paint9_linear_814_283)"/>
<path d="M527.395 446.209L491.897 425.696C490.569 424.924 488.397 424.924 487.069 425.696L451.572 446.209C450.692 446.73 450.387 447.448 450.692 448.113C450.836 447.79 451.141 447.484 451.572 447.215L487.069 426.702C488.397 425.93 490.569 425.93 491.897 426.702L527.395 447.215C527.843 447.466 528.13 447.79 528.274 448.113C528.579 447.448 528.274 446.73 527.395 446.209Z" fill="white"/>
<path d="M532.51 451.975L497.013 472.488C492.849 474.895 486.101 474.895 481.938 472.488L446.44 451.975C444.573 450.897 443.55 449.532 443.353 448.113C443.102 449.855 444.143 451.634 446.44 452.963L481.938 473.476C486.101 475.882 492.849 475.882 497.013 473.476L532.51 452.963C534.807 451.634 535.83 449.837 535.597 448.113C535.4 449.514 534.377 450.897 532.51 451.975Z" fill="white"/>
<path d="M482.941 471.895L447.444 451.382C443.836 449.299 443.836 445.904 447.444 443.82L482.941 423.307C486.549 421.224 492.417 421.224 496.006 423.307L531.504 443.82C535.111 445.904 535.111 449.299 531.504 451.364L496.006 471.877C492.417 473.978 486.549 473.978 482.941 471.895ZM492.902 425.121C491.017 424.026 487.949 424.026 486.064 425.121L450.566 445.634C448.682 446.73 448.682 448.49 450.566 449.586L486.064 470.099C487.949 471.194 491.017 471.194 492.902 470.099L528.399 449.586C530.284 448.49 530.284 446.73 528.399 445.634L492.902 425.121Z" fill="url(#paint10_linear_814_283)"/>
<path d="M128.396 240.992C125.973 240.992 123.55 240.453 121.702 239.393L86.204 218.88C84.3556 217.821 83.3506 216.384 83.3506 214.839C83.3506 213.294 84.3735 211.857 86.204 210.797L121.702 190.285C125.399 188.147 131.393 188.147 135.09 190.285L170.588 210.797C172.436 211.857 173.441 213.294 173.441 214.839C173.441 216.384 172.418 217.821 170.588 218.88L135.09 239.393C133.241 240.453 130.819 240.992 128.396 240.992ZM122.007 238.854C125.524 240.884 131.249 240.884 134.767 238.854L170.265 218.342C171.916 217.39 172.813 216.15 172.813 214.839C172.813 213.528 171.916 212.288 170.265 211.336L134.767 190.824C131.249 188.794 125.524 188.794 122.007 190.824L86.5091 211.336C84.8581 212.288 83.9608 213.528 83.9608 214.839C83.9608 216.15 84.8581 217.39 86.5091 218.342L122.007 238.854Z" fill="#427AE8"/>
<path d="M174.536 196.14V188.093L172.311 186.854C171.683 190.662 167.214 193.159 163.481 193.68L138.051 208.57L126.942 212.576L91.5165 194.272L92.342 193.805C89.3091 192.386 87.676 189.153 86.0429 186.189L83.656 187.608L82.2383 188.004V196.266C82.2383 197.847 83.2791 199.428 85.3609 200.613L120.859 221.126C125.022 223.533 131.77 223.533 135.934 221.126L171.431 200.613C173.477 199.428 174.518 197.883 174.554 196.338C174.536 196.284 174.536 196.212 174.536 196.14Z" fill="url(#paint11_linear_814_283)"/>
<path opacity="0.3" d="M163.482 193.679L138.052 208.57L128.396 212.055V222.94C131.124 222.94 133.852 222.347 135.934 221.144L171.432 200.631C173.478 199.445 174.518 197.901 174.554 196.356C174.554 196.284 174.554 196.212 174.554 196.14V188.093L172.526 186.962H172.311C171.611 190.698 167.196 193.159 163.482 193.679Z" fill="#051535"/>
<path d="M120.859 212.953L85.3609 192.44C81.1974 190.033 81.1974 186.135 85.3609 183.729L120.859 163.216C125.022 160.809 131.77 160.809 135.934 163.216L171.431 183.729C175.595 186.135 175.595 190.033 171.431 192.44L135.934 212.953C131.77 215.36 125.004 215.36 120.859 212.953Z" fill="url(#paint12_linear_814_283)"/>
<path d="M171.432 192.44L135.934 212.953C131.771 215.36 125.023 215.36 120.86 212.953L85.3617 192.44C83.4953 191.363 82.4724 189.997 82.275 188.578C82.0237 190.321 83.0646 192.099 85.3617 193.428L120.86 213.941C125.023 216.348 131.771 216.348 135.934 213.941L171.432 193.428C173.729 192.099 174.752 190.303 174.519 188.578C174.304 189.997 173.281 191.38 171.432 192.44Z" fill="white"/>
<path d="M352.953 551C349.992 551 347.013 550.353 344.752 549.042L202.114 466.614C199.871 465.321 198.633 463.578 198.633 461.692C198.633 459.824 199.871 458.082 202.114 456.771L232.192 439.419L232.497 439.958L202.419 457.31C200.374 458.495 199.243 460.04 199.243 461.674C199.243 463.309 200.374 464.872 202.419 466.057L345.057 548.485C349.4 551 356.471 551 360.814 548.485L465.207 488.384L465.512 488.923L361.119 549.024C358.875 550.353 355.914 551 352.953 551Z" fill="#427AE8"/>
<path d="M125.687 460.148C123.964 460.148 122.259 459.698 120.734 458.818L73.625 431.534L73.9301 430.995L121.039 458.279C123.911 459.932 127.464 459.932 130.335 458.279L197.706 419.374L198.011 419.912L130.64 458.818C129.115 459.698 127.392 460.148 125.687 460.148Z" fill="#427AE8"/>
<path d="M43.9621 440C32.9755 440 22.0069 437.188 13.6507 431.584C5.49126 426.105 1 418.794 1 411.003C1 403.212 5.49126 395.9 13.6507 390.421C30.3631 379.193 57.5611 379.193 74.2736 390.421C82.433 395.9 86.9243 403.212 86.9243 411.003C86.9243 418.794 82.433 426.105 74.2736 431.584C65.8995 437.188 54.9308 440 43.9621 440ZM43.9442 382.693C33.0829 382.693 22.2216 385.463 13.9369 391.025C5.97437 396.379 1.60837 403.462 1.60837 410.982C1.60837 418.502 5.99226 425.585 13.9369 430.938C30.4884 442.062 57.4001 442.062 73.9336 430.938C81.8962 425.585 86.2622 418.502 86.2622 410.982C86.2622 403.462 81.8783 396.379 73.9336 391.025C65.6847 385.463 54.8055 382.693 43.9442 382.693Z" fill="#427AE8"/>
<path d="M281.296 175.179L271.838 169.7L272.215 167.527L281.654 172.987L281.296 175.179Z" fill="#427AE8"/>
<path d="M289.355 179.831L284.635 177.101L284.994 174.909L289.732 177.639L289.355 179.831Z" fill="#427AE8"/>
<path d="M283.218 181.915L279.198 179.58L279.557 177.388L283.595 179.723L283.218 181.915Z" fill="#427AE8"/>
<path d="M289.966 185.812L285.246 183.082L285.605 180.891L290.343 183.621L289.966 185.812Z" fill="#427AE8"/>
<path d="M296.91 195.44L278.336 184.717L278.713 182.525L297.287 193.266L296.91 195.44Z" fill="#427AE8"/>
<path d="M280.811 238.387L262.236 227.646L262.595 225.455L281.17 236.196L280.811 238.387Z" fill="#427AE8"/>
<path d="M287.955 242.501L283.235 239.771L283.594 237.597L288.314 240.327L287.955 242.501Z" fill="#427AE8"/>
<path d="M281.514 192.171L277.476 189.836L277.852 187.662L281.872 189.979L281.514 192.171Z" fill="#427AE8"/>
<path d="M288.26 196.069L283.522 193.338L283.899 191.147L288.619 193.877L288.26 196.069Z" fill="#427AE8"/>
<path d="M286.824 200.864L276.612 194.973L276.989 192.781L287.201 198.691L286.824 200.864Z" fill="#427AE8"/>
<path d="M293.661 204.816L288.941 202.086L289.3 199.895L294.038 202.643L293.661 204.816Z" fill="#427AE8"/>
<path d="M300.534 208.786L295.814 206.056L296.173 203.864L300.911 206.612L300.534 208.786Z" fill="#427AE8"/>
<path d="M311.625 215.198L302.688 210.025L303.046 207.852L312.002 213.007L311.625 215.198Z" fill="#427AE8"/>
<path d="M304.554 222.365L299.816 219.635L300.193 217.443L304.913 220.174L304.554 222.365Z" fill="#427AE8"/>
<path d="M315.647 228.76L306.691 223.604L307.068 221.413L316.006 226.586L315.647 228.76Z" fill="#427AE8"/>
<path d="M279.629 207.96L274.909 205.229L275.268 203.038L279.988 205.768L279.629 207.96Z" fill="#427AE8"/>
<path d="M286.5 211.929L281.78 209.199L282.139 207.008L286.859 209.738L286.5 211.929Z" fill="#427AE8"/>
<path d="M297.592 218.342L288.637 213.168L289.014 210.977L297.951 216.15L297.592 218.342Z" fill="#427AE8"/>
<path d="M312.11 221.108L307.391 218.377L307.767 216.186L312.487 218.916L312.11 221.108Z" fill="#427AE8"/>
<path d="M318.985 225.077L314.265 222.347L314.624 220.156L319.361 222.886L318.985 225.077Z" fill="#427AE8"/>
<path d="M330.075 231.49L321.138 226.317L321.497 224.125L330.452 229.299L330.075 231.49Z" fill="#427AE8"/>
<path d="M295.35 246.776L290.63 244.045L290.989 241.854L295.727 244.602L295.35 246.776Z" fill="#427AE8"/>
<path d="M306.439 253.188L297.502 248.015L297.861 245.842L306.798 250.997L306.439 253.188Z" fill="#427AE8"/>
<path d="M277.903 218.216L273.184 215.486L273.542 213.294L278.28 216.024L277.903 218.216Z" fill="#427AE8"/>
<path d="M288.994 224.628L280.057 219.455L280.416 217.264L289.371 222.437L288.994 224.628Z" fill="#427AE8"/>
<path d="M300.501 255.38L295.781 252.649L296.14 250.458L300.86 253.188L300.501 255.38Z" fill="#427AE8"/>
<path d="M311.59 261.792L302.635 256.619L303.012 254.428L311.949 259.601L311.59 261.792Z" fill="#427AE8"/>
<path d="M311.053 203.613L306.315 200.882L306.692 198.691L311.412 201.421L311.053 203.613Z" fill="#427AE8"/>
<path d="M303.891 199.481L299.171 196.751L299.53 194.56L304.268 197.29L303.891 199.481Z" fill="#427AE8"/>
<path d="M322.141 210.025L313.186 204.852L313.562 202.661L322.5 207.834L322.141 210.025Z" fill="#427AE8"/>
<path d="M280.023 202.571L275.77 200.092L276.128 197.919L280.4 200.38L280.023 202.571Z" fill="#427AE8"/>
<path d="M292.674 209.864L282.301 203.882L282.678 201.691L293.033 207.69L292.674 209.864Z" fill="#427AE8"/>
<path d="M305.327 217.174L294.954 211.193L295.313 209.001L305.686 214.983L305.327 217.174Z" fill="#427AE8"/>
<path d="M328.711 213.815L324.439 211.354L324.798 209.163L329.07 211.624L328.711 213.815Z" fill="#427AE8"/>
<path d="M341.345 221.126L330.99 215.127L331.349 212.953L341.722 218.935L341.345 221.126Z" fill="#427AE8"/>
<path d="M353.997 228.436L343.624 222.437L344.001 220.264L354.356 226.245L353.997 228.436Z" fill="#427AE8"/>
<path d="M284.508 216.402L274.135 210.402L274.494 208.229L284.867 214.21L284.508 216.402Z" fill="#427AE8"/>
<path d="M289.964 219.563L286.787 217.713L287.146 215.521L290.323 217.372L289.964 219.563Z" fill="#427AE8"/>
<path d="M295.439 222.724L292.263 220.874L292.622 218.701L295.816 220.533L295.439 222.724Z" fill="#427AE8"/>
<path d="M305.559 228.58L297.734 224.054L298.093 221.862L305.936 226.389L305.559 228.58Z" fill="#427AE8"/>
<path d="M316.921 218.252L313.727 216.42L314.103 214.228L317.28 216.06L316.921 218.252Z" fill="#427AE8"/>
<path d="M327.043 224.107L319.2 219.581L319.577 217.39L327.402 221.916L327.043 224.107Z" fill="#427AE8"/>
<path d="M329.158 225.329L321.333 220.802L321.692 218.629L329.534 223.155L329.158 225.329Z" fill="#427AE8"/>
<path d="M287.47 253.476L277.259 247.584L277.618 245.393L287.829 251.284L287.47 253.476Z" fill="#427AE8"/>
<path d="M294.308 257.427L289.57 254.697L289.947 252.506L294.667 255.236L294.308 257.427Z" fill="#427AE8"/>
<path d="M301.182 261.397L296.444 258.666L296.821 256.475L301.541 259.205L301.182 261.397Z" fill="#427AE8"/>
<path d="M312.271 267.809L303.315 262.636L303.692 260.445L312.63 265.618L312.271 267.809Z" fill="#427AE8"/>
<path d="M319.362 271.905L314.624 269.174L315.001 266.983L319.721 269.713L319.362 271.905Z" fill="#427AE8"/>
<path d="M330.452 278.317L321.497 273.144L321.874 270.953L330.811 276.126L330.452 278.317Z" fill="#427AE8"/>
<path d="M296.425 269.911L291.705 267.181L292.064 264.989L296.802 267.719L296.425 269.911Z" fill="#427AE8"/>
<path d="M307.516 276.305L298.579 271.15L298.938 268.959L307.893 274.132L307.516 276.305Z" fill="#427AE8"/>
<path d="M271.75 255.631L267.012 252.901L267.389 250.728L272.108 253.458L271.75 255.631Z" fill="#427AE8"/>
<path d="M278.605 259.6L273.885 256.87L274.244 254.697L278.982 257.427L278.605 259.6Z" fill="#427AE8"/>
<path d="M289.695 266.013L280.758 260.84L281.117 258.667L290.072 263.822L289.695 266.013Z" fill="#427AE8"/>
<path d="M280.668 255.164L276.396 252.703L276.755 250.512L281.027 252.99L280.668 255.164Z" fill="#427AE8"/>
<path d="M293.304 262.475L282.949 256.493L283.308 254.302L293.681 260.283L293.304 262.475Z" fill="#427AE8"/>
<path d="M305.955 269.785L295.582 263.804L295.959 261.612L306.332 267.594L305.955 269.785Z" fill="#427AE8"/>
<path d="M268.25 259.241L257.895 253.26L258.253 251.069L268.626 257.068L268.25 259.241Z" fill="#427AE8"/>
<path d="M273.723 262.403L270.528 260.571L270.905 258.379L274.082 260.212L273.723 262.403Z" fill="#427AE8"/>
<path d="M279.196 265.564L276.002 263.732L276.379 261.541L279.555 263.391L279.196 265.564Z" fill="#427AE8"/>
<path d="M289.32 271.42L281.495 266.893L281.854 264.702L289.679 269.228L289.32 271.42Z" fill="#427AE8"/>
<path d="M291.455 272.641L283.612 268.133L283.989 265.941L291.814 270.468L291.455 272.641Z" fill="#427AE8"/>
<path d="M272.915 239.447L269.738 237.597L270.097 235.424L273.292 237.256L272.915 239.447Z" fill="#427AE8"/>
<path d="M283.038 245.303L275.214 240.776L275.573 238.585L283.415 243.111L283.038 245.303Z" fill="#427AE8"/>
<path d="M293.392 251.266L285.55 246.74L285.927 244.566L293.751 249.093L293.392 251.266Z" fill="#427AE8"/>
<path d="M333.251 285.556L328.531 282.826L328.89 280.634L333.61 283.365L333.251 285.556Z" fill="#427AE8"/>
<path d="M344.342 291.968L335.387 286.795L335.764 284.604L344.701 289.777L344.342 291.968Z" fill="#427AE8"/>
<path d="M315.79 275.479L307.966 270.953L308.325 268.761L316.167 273.288L315.79 275.479Z" fill="#427AE8"/>
<path d="M326.145 281.443L318.303 276.916L318.68 274.743L326.504 279.269L326.145 281.443Z" fill="#427AE8"/>
<path d="M267.389 217.749L264.194 215.917L264.571 213.725L267.748 215.575L267.389 217.749Z" fill="#427AE8"/>
<path d="M277.509 223.605L269.666 219.078L270.043 216.887L277.867 221.413L277.509 223.605Z" fill="#427AE8"/>
<path d="M287.846 229.586L280.021 225.06L280.38 222.868L288.223 227.395L287.846 229.586Z" fill="#427AE8"/>
<path opacity="0.4" d="M471.242 360.763C471.242 359.973 471.888 359.326 472.678 359.326C473.468 359.326 474.114 359.973 474.114 360.763C474.114 361.554 473.468 362.2 472.678 362.2C471.888 362.2 471.242 361.554 471.242 360.763Z" fill="#427AE8"/>
<path opacity="0.4" d="M496.331 426.523C496.331 425.732 496.977 425.086 497.767 425.086C498.556 425.086 499.202 425.732 499.202 426.523C499.202 427.313 498.556 427.96 497.767 427.96C496.977 427.96 496.331 427.313 496.331 426.523Z" fill="#427AE8"/>
<path opacity="0.4" d="M495.649 379.498C496.818 379.498 497.767 378.549 497.767 377.378C497.767 376.208 496.818 375.259 495.649 375.259C494.479 375.259 493.531 376.208 493.531 377.378C493.531 378.549 494.479 379.498 495.649 379.498Z" fill="#427AE8"/>
<path opacity="0.8" d="M498.88 342.657C499.703 342.657 500.37 341.99 500.37 341.167C500.37 340.343 499.703 339.676 498.88 339.676C498.057 339.676 497.391 340.343 497.391 341.167C497.391 341.99 498.057 342.657 498.88 342.657Z" fill="#427AE8"/>
<path opacity="0.8" d="M476.07 401.771C476.07 400.496 477.093 399.472 478.367 399.472C479.642 399.472 480.665 400.496 480.665 401.771C480.665 403.046 479.642 404.07 478.367 404.07C477.093 404.07 476.07 403.046 476.07 401.771Z" fill="#427AE8"/>
<path opacity="0.8" d="M479.409 395.879C480.261 395.879 480.952 395.188 480.952 394.335C480.952 393.481 480.261 392.79 479.409 392.79C478.556 392.79 477.865 393.481 477.865 394.335C477.865 395.188 478.556 395.879 479.409 395.879Z" fill="#427AE8"/>
<path d="M393.038 30.4083L384.773 25.6258V21.0303L393.038 25.7972V30.4083Z" fill="#427AE8"/>
<path d="M399.059 33.8826L396.227 32.2469V27.6514L399.059 29.2715V33.8826Z" fill="#427AE8"/>
<path d="M417.085 75.8346L404.867 68.7777V64.1821L417.085 71.239V75.8346Z" fill="#427AE8"/>
<path d="M430.144 104.421L425.023 101.461V96.8496L430.144 99.8095V104.421Z" fill="#427AE8"/>
<path d="M439.031 35.9545L453.553 44.3511V39.74L439.031 31.3589V35.9545Z" fill="#427AE8"/>
<path d="M505.972 74.4636L500.852 71.5037V66.8926L505.972 69.8524V74.4636Z" fill="#427AE8"/>
<path d="M502.894 83.1872L497.773 80.2274V75.6318L502.894 78.5917V83.1872Z" fill="#427AE8"/>
<path d="M482.876 113.674L465.973 103.922V99.311L482.876 109.079V113.674Z" fill="#427AE8"/>
<path d="M497.773 132.804L485.617 125.778V121.183L497.773 128.193V132.804Z" fill="#427AE8"/>
<path d="M520.23 82.7049L534.752 91.086V86.4904L520.23 78.0938V82.7049Z" fill="#427AE8"/>
<path d="M484.108 145.921L479.656 143.35V138.755L484.108 141.325V145.921Z" fill="#427AE8"/>
<path d="M405.723 16.6998L384.773 4.61114V0L405.723 12.1042V16.6998Z" fill="#274888"/>
<path d="M416.463 22.9155L408.914 18.5536V13.958L416.463 18.3043V22.9155Z" fill="#274888"/>
<path d="M424.777 27.7136L419.656 24.7538V20.1582L424.777 23.118V27.7136Z" fill="#274888"/>
<path d="M396.182 21.7159L384.773 15.1107V10.5151L396.182 17.1047V21.7159Z" fill="#274888"/>
<path d="M413.364 31.6391L399.387 23.5541V18.9585L413.364 27.0436V31.6391Z" fill="#274888"/>
<path d="M421.691 36.4528L416.57 33.493V28.8818L421.691 31.8417V36.4528Z" fill="#274888"/>
<path d="M429.617 41.0173L424.496 38.0575V33.4619L429.617 36.4218V41.0173Z" fill="#274888"/>
<path d="M407.375 38.696L402.254 35.7362V31.125L407.375 34.0849V38.696Z" fill="#274888"/>
<path d="M415.249 53.7604L384.773 36.1415V31.5459L415.249 49.1493V53.7604Z" fill="#274888"/>
<path d="M425.986 59.9604L418.453 55.5985V51.0029L425.986 55.3492V59.9604Z" fill="#274888"/>
<path d="M393.038 51.4235L384.773 46.6566V42.061L393.038 46.828V51.4235Z" fill="#274888"/>
<path d="M412.414 62.6241L396.227 53.2772V48.6816L412.414 58.0286V62.6241Z" fill="#274888"/>
<path d="M420.726 67.4382L415.605 64.4783V59.8672L420.726 62.8271V67.4382Z" fill="#274888"/>
<path d="M401.676 66.9393L384.773 57.1717V52.5762L401.676 62.3281V66.9393Z" fill="#274888"/>
<path d="M428.538 82.4553L420.273 77.6883V73.0928L428.538 77.8597V82.4553Z" fill="#274888"/>
<path d="M390.486 70.9899L384.773 67.6874V63.0918L390.486 66.3788V70.9899Z" fill="#274888"/>
<path d="M401.225 77.1899L393.676 72.828V68.2324L401.225 72.5787V77.1899Z" fill="#274888"/>
<path d="M416.57 86.054L404.414 79.0438V74.4326L416.57 81.4584V86.054Z" fill="#274888"/>
<path d="M402.252 88.2971L384.773 78.2024V73.5913L402.252 83.7015V88.2971Z" fill="#274888"/>
<path d="M421.831 99.6071L405.457 90.1512V85.54L421.831 95.0116V99.6071Z" fill="#274888"/>
<path d="M438.129 109.032L433.008 106.072V101.477L438.129 104.436V109.032Z" fill="#274888"/>
<path d="M395.248 94.7619L384.773 88.7176V84.1064L395.248 90.1664V94.7619Z" fill="#274888"/>
<path d="M442.145 48.2611L453.553 54.8662V50.2551L442.145 43.6655V48.2611Z" fill="#274888"/>
<path d="M445.305 60.5995L453.554 65.382V60.7708L445.305 56.0039V60.5995Z" fill="#274888"/>
<path d="M441.555 68.9491L453.555 75.8814V71.2858L441.555 64.3535V68.9491Z" fill="#274888"/>
<path d="M445.305 81.6297L453.554 86.3967V81.8011L445.305 77.0342V81.6297Z" fill="#274888"/>
<path d="M443.078 90.8675L453.553 96.9118V92.3163L443.078 86.2563V90.8675Z" fill="#274888"/>
<path d="M447.859 104.14L453.556 107.427V102.832L447.859 99.5293V104.14Z" fill="#274888"/>
<path d="M442.5 111.556L453.551 117.943V113.347L442.5 106.96V111.556Z" fill="#274888"/>
<path d="M443.078 122.413L453.553 128.458V123.847L443.078 117.802V122.413Z" fill="#274888"/>
<path d="M402.905 99.1864L398.453 96.616V92.0049L402.905 94.5909V99.1864Z" fill="#274888"/>
<path d="M416.121 106.819L406.098 101.04V96.4287L416.121 102.224V106.819Z" fill="#274888"/>
<path d="M486.922 63.4498L465.973 51.3456V46.75L486.922 58.8387V63.4498Z" fill="#274888"/>
<path d="M497.662 69.6498L490.113 65.2879V60.6924L497.662 65.0543V69.6498Z" fill="#274888"/>
<path d="M477.381 68.4507L465.973 61.8612V57.25L477.381 63.8552V68.4507Z" fill="#274888"/>
<path d="M494.563 78.374L480.586 70.3045V65.6934L494.563 73.7784V78.374Z" fill="#274888"/>
<path d="M510.816 87.7673L505.695 84.8074V80.1963L510.816 83.1562V87.7673Z" fill="#274888"/>
<path d="M474.237 77.1432L465.973 72.3763V67.7651L474.237 72.5476V77.1432Z" fill="#274888"/>
<path d="M480.262 80.617L477.43 78.9969V74.3857L480.262 76.0215V80.617Z" fill="#274888"/>
<path d="M488.574 85.4309L483.453 82.471V77.8755L488.574 80.8353V85.4309Z" fill="#274888"/>
<path d="M496.448 100.495L465.973 82.8914V78.2803L496.448 95.8992V100.495Z" fill="#274888"/>
<path d="M507.189 106.695L499.656 102.348V97.7373L507.189 102.099V106.695Z" fill="#274888"/>
<path d="M474.237 98.174L465.973 93.4071V88.7959L474.237 93.5628V98.174Z" fill="#274888"/>
<path d="M493.601 109.359L477.43 100.012V95.4165L493.601 104.763V109.359Z" fill="#274888"/>
<path d="M501.929 114.173L496.809 111.213V106.617L501.929 109.577V114.173Z" fill="#274888"/>
<path d="M498.284 122.585L486.066 115.528V110.917L498.284 117.973V122.585Z" fill="#274888"/>
<path d="M509.741 129.205L501.477 124.423V119.827L509.741 124.594V129.205Z" fill="#274888"/>
<path d="M471.685 117.724L465.973 114.422V109.826L471.685 113.129V117.724Z" fill="#274888"/>
<path d="M482.424 123.924L474.875 119.578V114.967L482.424 119.329V123.924Z" fill="#274888"/>
<path d="M483.452 135.047L465.973 124.937V120.342L483.452 130.436V135.047Z" fill="#274888"/>
<path d="M503.034 146.357L486.66 136.886V132.29L503.034 141.746V146.357Z" fill="#274888"/>
<path d="M511.343 151.155L506.223 148.195V143.6L511.343 146.559V151.155Z" fill="#274888"/>
<path d="M519.328 155.766L514.207 152.806V148.211L519.328 151.171V155.766Z" fill="#274888"/>
<path d="M476.448 141.512L465.973 135.452V130.857L476.448 136.901V141.512Z" fill="#274888"/>
<path d="M523.344 95.0115L534.753 101.601V97.0056L523.344 90.4004V95.0115Z" fill="#274888"/>
<path d="M526.504 107.349L534.753 112.116V107.521L526.504 102.738V107.349Z" fill="#274888"/>
<path d="M522.754 115.684L534.754 122.632V118.02L522.754 111.088V115.684Z" fill="#274888"/>
<path d="M526.504 128.38L534.753 133.147V128.535L526.504 123.769V128.38Z" fill="#274888"/>
<path d="M524.277 137.602L534.752 143.662V139.051L524.277 133.007V137.602Z" fill="#274888"/>
<path d="M529.055 150.875L534.751 154.177V149.566L529.055 146.279V150.875Z" fill="#274888"/>
<path d="M523.703 158.29L534.754 164.677V160.081L523.703 153.694V158.29Z" fill="#274888"/>
<path d="M524.277 169.148L534.752 175.192V170.597L524.277 164.552V169.148Z" fill="#274888"/>
<path d="M497.32 153.57L487.297 147.775V143.179L497.32 148.959V153.57Z" fill="#274888"/>
<path d="M405.723 111.384L384.773 99.2957V94.6846L405.723 106.789V111.384Z" fill="#274888"/>
<path d="M416.463 117.6L408.914 113.238V108.642L416.463 112.988V117.6Z" fill="#274888"/>
<path d="M424.777 122.398L419.656 119.438V114.842L424.777 117.802V122.398Z" fill="#274888"/>
<path d="M396.182 116.4L384.773 109.811V105.2L396.182 111.789V116.4Z" fill="#274888"/>
<path d="M413.364 126.324L399.387 118.239V113.643L413.364 121.728V126.324Z" fill="#274888"/>
<path d="M421.691 131.137L416.57 128.177V123.566L421.691 126.526V131.137Z" fill="#274888"/>
<path d="M429.617 135.702L424.496 132.742V128.146L429.617 131.106V135.702Z" fill="#274888"/>
<path d="M393.038 125.093L384.773 120.31V115.715L393.038 120.482V125.093Z" fill="#274888"/>
<path d="M399.059 128.567L396.227 126.931V122.335L399.059 123.956V128.567Z" fill="#274888"/>
<path d="M407.375 133.381L402.254 130.421V125.81L407.375 128.769V133.381Z" fill="#274888"/>
<path d="M415.249 148.444L384.773 130.826V126.23L415.249 143.833V148.444Z" fill="#274888"/>
<path d="M425.986 154.645L418.453 150.283V145.687L425.986 150.034V154.645Z" fill="#274888"/>
<path d="M393.038 146.108L384.773 141.341V136.745L393.038 141.512V146.108Z" fill="#274888"/>
<path d="M412.414 157.309L396.227 147.962V143.366L412.414 152.713V157.309Z" fill="#274888"/>
<path d="M420.726 162.122L415.605 159.162V154.551L420.726 157.511V162.122Z" fill="#274888"/>
<path d="M401.676 161.624L384.773 151.856V147.261L401.676 157.013V161.624Z" fill="#274888"/>
<path d="M417.085 170.519L404.867 163.462V158.866L417.085 165.923V170.519Z" fill="#274888"/>
<path d="M428.538 177.14L420.273 172.373V167.777L428.538 172.544V177.14Z" fill="#274888"/>
<path d="M390.486 165.674L384.773 162.371V157.776L390.486 161.063V165.674Z" fill="#274888"/>
<path d="M401.225 171.874L393.676 167.512V162.917L401.225 167.263V171.874Z" fill="#274888"/>
<path d="M416.57 180.738L404.414 173.728V169.117L416.57 176.142V180.738Z" fill="#274888"/>
<path d="M402.252 182.981L384.773 172.887V168.276L402.252 178.386V182.981Z" fill="#274888"/>
<path d="M421.831 194.291L405.457 184.835V180.224L421.831 189.696V194.291Z" fill="#274888"/>
<path d="M430.144 199.105L425.023 196.145V191.534L430.144 194.494V199.105Z" fill="#274888"/>
<path d="M438.129 203.716L433.008 200.756V196.161L438.129 199.12V203.716Z" fill="#274888"/>
<path d="M395.248 189.446L384.773 183.402V178.791L395.248 184.851V189.446Z" fill="#274888"/>
<path d="M439.031 130.639L453.553 139.035V134.424L439.031 126.043V130.639Z" fill="#274888"/>
<path d="M442.145 142.945L453.553 149.551V144.939L442.145 138.35V142.945Z" fill="#274888"/>
<path d="M445.305 155.283L453.554 160.066V155.455L445.305 150.688V155.283Z" fill="#274888"/>
<path d="M441.555 163.633L453.555 170.565V165.97L441.555 159.038V163.633Z" fill="#274888"/>
<path d="M445.305 176.314L453.554 181.081V176.485L445.305 171.718V176.314Z" fill="#274888"/>
<path d="M443.078 185.552L453.553 191.596V187.001L443.078 180.941V185.552Z" fill="#274888"/>
<path d="M447.859 198.825L453.556 202.112V197.516L447.859 194.213V198.825Z" fill="#274888"/>
<path d="M442.5 206.24L453.551 212.627V208.031L442.5 201.644V206.24Z" fill="#274888"/>
<path d="M443.078 217.098L453.553 223.142V218.546L443.078 212.487V217.098Z" fill="#274888"/>
<path d="M402.905 193.871L398.453 191.3V186.689L402.905 189.275V193.871Z" fill="#274888"/>
<path d="M416.121 201.504L406.098 195.724V191.113L416.121 196.908V201.504Z" fill="#274888"/>
<path d="M470.516 263.379L453.598 253.596V249L470.516 258.768V263.379Z" fill="#274888"/>
<path d="M482.099 270.062L475.438 266.214V261.618L482.099 265.466V270.062Z" fill="#274888"/>
<path d="M486.922 158.134L465.973 146.03V141.434L486.922 153.523V158.134Z" fill="#274888"/>
<path d="M497.662 164.334L490.113 159.973V155.377L497.662 159.739V164.334Z" fill="#274888"/>
<path d="M505.972 169.148L500.852 166.188V161.577L505.972 164.537V169.148Z" fill="#274888"/>
<path d="M477.381 163.135L465.973 156.545V151.934L477.381 158.539V163.135Z" fill="#274888"/>
<path d="M494.563 173.058L480.586 164.989V160.377L494.563 168.463V173.058Z" fill="#274888"/>
<path d="M502.894 177.872L497.773 174.912V170.316L502.894 173.276V177.872Z" fill="#274888"/>
<path d="M510.816 182.452L505.695 179.492V174.881L510.816 177.84V182.452Z" fill="#274888"/>
<path d="M474.237 171.827L465.973 167.06V162.449L474.237 167.232V171.827Z" fill="#274888"/>
<path d="M480.262 175.302L477.43 173.681V169.07L480.262 170.706V175.302Z" fill="#274888"/>
<path d="M488.574 180.115L483.453 177.155V172.56L488.574 175.519V180.115Z" fill="#274888"/>
<path d="M496.448 195.179L465.973 177.576V172.965L496.448 190.584V195.179Z" fill="#274888"/>
<path d="M507.189 201.379L499.656 197.033V192.422L507.189 196.784V201.379Z" fill="#274888"/>
<path d="M474.237 192.858L465.973 188.091V183.48L474.237 188.247V192.858Z" fill="#274888"/>
<path d="M493.601 204.043L477.43 194.712V190.101L493.601 199.447V204.043Z" fill="#274888"/>
<path d="M501.929 208.857L496.809 205.897V201.301L501.929 204.261V208.857Z" fill="#274888"/>
<path d="M482.876 208.358L465.973 198.606V193.995L482.876 203.763V208.358Z" fill="#274888"/>
<path d="M498.284 217.269L486.066 210.212V205.601L498.284 212.658V217.269Z" fill="#274888"/>
<path d="M509.741 223.89L501.477 219.107V214.512L509.741 219.279V223.89Z" fill="#274888"/>
<path d="M471.685 212.409L465.973 209.106V204.51L471.685 207.813V212.409Z" fill="#274888"/>
<path d="M482.424 218.609L474.875 214.262V209.651L482.424 214.013V218.609Z" fill="#274888"/>
<path d="M497.773 227.488L485.617 220.463V215.867L497.773 222.877V227.488Z" fill="#274888"/>
<path d="M483.452 229.732L465.973 219.621V215.026L483.452 225.121V229.732Z" fill="#274888"/>
<path d="M503.034 241.041L486.66 231.57V226.974L503.034 236.43V241.041Z" fill="#274888"/>
<path d="M511.343 245.84L506.223 242.88V238.284L511.343 241.244V245.84Z" fill="#274888"/>
<path d="M519.328 250.45L514.207 247.491V242.895L519.328 245.855V250.45Z" fill="#274888"/>
<path d="M476.448 236.196L465.973 230.137V225.541L476.448 231.585V236.196Z" fill="#274888"/>
<path d="M520.23 177.389L534.752 185.77V181.174L520.23 172.778V177.389Z" fill="#274888"/>
<path d="M523.344 189.696L534.753 196.285V191.69L523.344 185.084V189.696Z" fill="#274888"/>
<path d="M526.504 202.034L534.753 206.8V202.205L526.504 197.422V202.034Z" fill="#274888"/>
<path d="M522.754 210.368L534.754 217.316V212.705L522.754 205.772V210.368Z" fill="#274888"/>
<path d="M526.504 223.064L534.753 227.831V223.22L526.504 218.453V223.064Z" fill="#274888"/>
<path d="M524.277 232.286L534.752 238.346V233.735L524.277 227.691V232.286Z" fill="#274888"/>
<path d="M529.055 245.559L534.751 248.862V244.25L529.055 240.963V245.559Z" fill="#274888"/>
<path d="M523.703 252.974L534.754 259.361V254.766L523.703 248.379V252.974Z" fill="#274888"/>
<path d="M524.277 263.832L534.752 269.877V265.281L524.277 259.237V263.832Z" fill="#274888"/>
<path d="M484.108 240.605L479.656 238.035V233.439L484.108 236.009V240.605Z" fill="#274888"/>
<path d="M497.32 248.254L487.297 242.459V237.863L497.32 243.643V248.254Z" fill="#274888"/>
<path d="M505.618 283.616L488.699 273.849V269.238L505.618 279.021V283.616Z" fill="#274888"/>
<path d="M517.193 290.315L510.531 286.467V281.856L517.193 285.704V290.315Z" fill="#274888"/>
<path d="M113.789 178.826L116.789 185.377L114.02 186.974L108.906 176L127.863 178.976L125.094 180.573L113.789 178.826Z" fill="#061635"/>
<path d="M115.67 192.298L113.352 190.96C121.78 188.735 128.094 187.056 132.295 185.937L141.759 183.426L144.078 184.763L115.67 192.298Z" fill="#061635"/>
<path d="M143.819 196.188L140.792 189.622L143.533 188.039L148.702 199L129.69 196.024L132.486 194.414L143.819 196.188Z" fill="#061635"/>
<path d="M86.5013 327.47L79.3588 409.476C79.3384 414.562 75.9916 419.648 69.3185 423.529C55.8907 431.352 34.0347 431.352 20.5048 423.529C13.6888 419.587 10.3012 414.44 10.3216 409.272L3.64851 327.225C3.62811 333.413 7.70953 339.602 15.8724 344.32C32.1164 353.695 58.3395 353.695 74.4407 344.32C82.4607 339.684 86.4809 333.577 86.5013 327.47Z" fill="#E4E6F0"/>
<path fill-rule="evenodd" clip-rule="evenodd" d="M15.7909 344.303C15.8026 344.313 15.8146 344.318 15.8307 344.324C15.8415 344.328 15.8541 344.333 15.8697 344.341C25.5427 349.937 38.746 352.184 51.2556 351.122L49.9903 429.187C39.5623 430.085 28.5425 428.186 20.5021 423.549C20.4919 423.539 20.4817 423.534 20.4715 423.529C20.4613 423.524 20.4511 423.519 20.4409 423.508L20.4408 423.507C13.6879 419.585 10.3012 414.439 10.3216 409.293L3.84148 329.618C4.7328 334.973 8.7114 340.188 15.7908 344.3L15.7909 344.303ZM3.64851 327.245C3.64589 328.037 3.7102 328.829 3.84148 329.618L3.64851 327.245ZM86.5045 327.47L86.301 329.806C86.4341 329.03 86.5019 328.25 86.5045 327.47ZM86.301 329.806L79.3621 409.476C79.3416 414.562 75.9949 419.648 69.3218 423.529C63.8935 426.695 57.0775 428.574 49.9963 429.166L51.2615 351.102C59.7508 350.366 67.9341 348.119 74.4439 344.32C81.4397 340.276 85.3921 335.113 86.301 329.806Z" fill="url(#paint13_linear_814_283)"/>
<path d="M74.2639 310.374C90.4875 319.749 90.5692 334.966 74.4476 344.341C58.326 353.716 32.1029 353.716 15.8792 344.341C-0.344397 334.966 -0.446446 319.749 15.6752 310.374C31.8172 300.999 58.0403 300.999 74.2639 310.374Z" fill="#E4E6F0"/>
<path d="M89.9137 319.177L89.8933 326.02C89.8729 332.637 85.5262 339.255 76.8327 344.32C59.3439 354.492 30.876 354.492 13.2647 344.32C4.408 339.194 -0.0203369 332.474 7.02081e-05 325.775L0.0204661 318.932C5.8999e-05 325.652 4.4284 332.372 13.2851 337.478C30.8964 347.65 59.3643 347.65 76.8532 337.478C85.5466 332.413 89.8933 325.795 89.9137 319.177Z" fill="#10295A"/>
<path d="M76.6445 300.611C94.2558 310.782 94.3578 327.286 76.8485 337.458C59.3597 347.629 30.8918 347.629 13.2804 337.458C-4.33088 327.286 -4.41249 310.782 13.0764 300.611C30.5653 290.439 59.0331 290.439 76.6445 300.611Z" fill="#1E3A70"/>
<path d="M86.5011 311.211L86.4807 318.054C86.4603 324.181 82.4401 330.288 74.4201 334.966C58.2577 344.361 31.9529 344.361 15.668 334.966C7.4848 330.227 3.38299 324.018 3.4034 317.829L3.42379 310.987C3.40338 317.196 7.50523 323.405 15.6885 328.123C31.9733 337.539 58.2781 337.539 74.4405 328.123C82.4605 323.446 86.4807 317.318 86.5011 311.211Z" fill="#10295A"/>
<path d="M74.2375 294.054C90.5224 303.45 90.604 318.707 74.4416 328.103C58.2792 337.519 31.9745 337.519 15.6896 328.103C-0.574844 318.707 -0.656465 303.45 15.5059 294.054C31.6684 284.638 57.9731 284.659 74.2375 294.054Z" fill="#1E3A70"/>
<path d="M68.3421 324.59C55.5264 332.045 34.65 332.045 21.7323 324.59C19.3855 323.221 17.4468 321.71 15.9367 320.096C9.24316 312.866 11.1002 303.675 21.5895 297.588C34.4051 290.133 55.2816 290.133 68.1788 297.588C72.4847 300.08 75.3621 303.062 76.811 306.248C79.7088 312.58 76.8927 319.606 68.3421 324.59Z" fill="#10295A"/>
<path d="M68.3432 324.59C55.5276 332.045 34.6511 332.045 21.7334 324.59C19.3866 323.222 17.4479 321.71 15.9378 320.096C13.04 313.744 15.8562 306.698 24.4068 301.714C37.2224 294.259 58.0784 294.259 70.9961 301.714C73.3633 303.082 75.302 304.614 76.7917 306.228C79.71 312.58 76.8938 319.606 68.3432 324.59Z" fill="#1E3A70"/>
<path d="M69.4869 321.404L64.7524 324.14C63.2219 325.019 60.7322 325.019 59.2221 324.14C57.6916 323.262 57.6916 321.812 59.2221 320.934L63.9361 318.197C65.4667 317.319 67.9563 317.319 69.4665 318.197C71.0174 319.075 71.0174 320.525 69.4869 321.404Z" fill="#10295A"/>
<path opacity="0.5" d="M83.7335 360.191L80.8765 392.973C79.1419 394.668 77.0603 396.261 74.5707 397.712C68.0404 401.511 59.8776 403.757 51.3882 404.493C38.8787 405.555 25.6753 403.308 15.982 397.712C15.9615 397.691 15.9411 397.671 15.9003 397.671C13.1658 396.078 10.8802 394.321 9.06395 392.442L6.39062 359.741C8.41093 362.846 11.574 365.767 15.8799 368.279C15.9003 368.3 15.9207 368.32 15.9616 368.32C25.6345 373.916 38.8583 376.163 51.3678 375.101C59.8572 374.386 68.02 372.119 74.5503 368.32C78.6725 365.91 81.7336 363.132 83.7335 360.191Z" fill="url(#paint14_linear_814_283)"/>
<path opacity="0.5" d="M527.816 447.723V321H450.001V447.723C449.983 448.244 450.324 448.747 450.988 449.142L486.485 469.654C487.814 470.427 489.985 470.427 491.313 469.654L526.811 449.142C527.511 448.747 527.834 448.226 527.816 447.723Z" fill="url(#paint15_linear_814_283)"/>
<defs>
<linearGradient id="paint0_linear_814_283" x1="154.692" y1="298.122" x2="472.951" y2="345.763" gradientUnits="userSpaceOnUse">
<stop stop-color="#EFFCFB"/>
<stop offset="1" stop-color="#427AE8"/>
</linearGradient>
<linearGradient id="paint1_linear_814_283" x1="19.1515" y1="275.828" x2="678.959" y2="256.25" gradientUnits="userSpaceOnUse">
<stop stop-color="#EFFCFB"/>
<stop offset="1" stop-color="#5D8BE4"/>
</linearGradient>
<linearGradient id="paint2_linear_814_283" x1="164.83" y1="98.056" x2="632.09" y2="91.3031" gradientUnits="userSpaceOnUse">
<stop stop-color="#EFFCFB"/>
<stop offset="1" stop-color="#5D8BE4"/>
</linearGradient>
<linearGradient id="paint3_linear_814_283" x1="154.76" y1="278.33" x2="471.935" y2="328.833" gradientUnits="userSpaceOnUse">
<stop stop-color="#EFFCFB"/>
<stop offset="1" stop-color="#427AE8"/>
</linearGradient>
<linearGradient id="paint4_linear_814_283" x1="19.1515" y1="249.711" x2="678.959" y2="230.133" gradientUnits="userSpaceOnUse">
<stop stop-color="#EFFCFB"/>
<stop offset="1" stop-color="#5D8BE4"/>
</linearGradient>
<linearGradient id="paint5_linear_814_283" x1="535.773" y1="291.478" x2="234.201" y2="291.478" gradientUnits="userSpaceOnUse">
<stop stop-color="#5761D7"/>
<stop offset="0.1779" stop-color="#5C66D9"/>
<stop offset="0.3876" stop-color="#6A73DF"/>
<stop offset="0.6134" stop-color="#8289E8"/>
<stop offset="0.849" stop-color="#A3A7F5"/>
<stop offset="1" stop-color="#BCBEFF"/>
</linearGradient>
<linearGradient id="paint6_linear_814_283" x1="434.443" y1="283.225" x2="132.711" y2="283.225" gradientUnits="userSpaceOnUse">
<stop stop-color="#427AE8"/>
<stop offset="1" stop-color="#E9FBFD"/>
</linearGradient>
<linearGradient id="paint7_linear_814_283" x1="454.517" y1="446.517" x2="549.441" y2="467.481" gradientUnits="userSpaceOnUse">
<stop stop-color="#EFFCFB"/>
<stop offset="1" stop-color="#427AE8"/>
</linearGradient>
<linearGradient id="paint8_linear_814_283" x1="456.906" y1="428.764" x2="522.249" y2="466.456" gradientUnits="userSpaceOnUse">
<stop offset="0.2421" stop-color="#5761D7"/>
<stop offset="0.3923" stop-color="#7A82E5"/>
<stop offset="0.5463" stop-color="#979CF0"/>
<stop offset="0.7" stop-color="#ACAFF8"/>
<stop offset="0.8519" stop-color="#B8BAFD"/>
<stop offset="1" stop-color="#BCBEFF"/>
</linearGradient>
<linearGradient id="paint9_linear_814_283" x1="413.034" y1="417.036" x2="614.891" y2="411.046" gradientUnits="userSpaceOnUse">
<stop stop-color="#EFFCFB"/>
<stop offset="1" stop-color="#5D8BE4"/>
</linearGradient>
<linearGradient id="paint10_linear_814_283" x1="415.389" y1="417.954" x2="611.026" y2="412.151" gradientUnits="userSpaceOnUse">
<stop stop-color="#EFFCFB"/>
<stop offset="1" stop-color="#5D8BE4"/>
</linearGradient>
<linearGradient id="paint11_linear_814_283" x1="93.4189" y1="187" x2="188.343" y2="207.965" gradientUnits="userSpaceOnUse">
<stop stop-color="#EFFCFB"/>
<stop offset="1" stop-color="#427AE8"/>
</linearGradient>
<linearGradient id="paint12_linear_814_283" x1="51.9554" y1="157.5" x2="253.813" y2="151.512" gradientUnits="userSpaceOnUse">
<stop stop-color="#EFFCFB"/>
<stop offset="1" stop-color="#5D8BE4"/>
</linearGradient>
<linearGradient id="paint13_linear_814_283" x1="-23.5313" y1="319.774" x2="157.766" y2="317.247" gradientUnits="userSpaceOnUse">
<stop stop-color="#EFFCFB"/>
<stop offset="1" stop-color="#5D8BE4"/>
</linearGradient>
<linearGradient id="paint14_linear_814_283" x1="78.4326" y1="382" x2="5.99584" y2="377.009" gradientUnits="userSpaceOnUse">
<stop stop-color="#1C3870"/>
<stop offset="1" stop-color="#427AE8" stop-opacity="0"/>
</linearGradient>
<linearGradient id="paint15_linear_814_283" x1="488.913" y1="698" x2="488.913" y2="383.5" gradientUnits="userSpaceOnUse">
<stop stop-color="white"/>
<stop offset="1" stop-color="white" stop-opacity="0"/>
</linearGradient>
</defs>
</svg>
