<svg width="337" height="188" viewBox="0 0 337 188" fill="none" xmlns="http://www.w3.org/2000/svg">
<path d="M167.609 1.54665L168.054 1.77332L168.054 1.77332L167.609 1.54665ZM169.391 1.54665L168.946 1.77332L168.946 1.77332L169.391 1.54665ZM178.54 19.5335L178.985 19.3068L178.54 19.5335ZM158.46 19.5335L158.015 19.3068L158.46 19.5335ZM168.054 1.77332C168.24 1.40889 168.76 1.40889 168.946 1.77332L169.837 1.31998C169.281 0.226675 167.719 0.226667 167.163 1.31998L168.054 1.77332ZM158.906 19.7602L168.054 1.77332L167.163 1.31997L158.015 19.3068L158.906 19.7602ZM11 25.5H149.547V24.5H11V25.5ZM1.5 35C1.5 29.7533 5.7533 25.5 11 25.5V24.5C5.20101 24.5 0.5 29.201 0.5 35H1.5ZM1.5 177V35H0.5V177H1.5ZM11 186.5C5.75329 186.5 1.5 182.247 1.5 177H0.5C0.5 182.799 5.201 187.5 11 187.5V186.5ZM326 186.5H11V187.5H326V186.5ZM335.5 177C335.5 182.247 331.247 186.5 326 186.5V187.5C331.799 187.5 336.5 182.799 336.5 177H335.5ZM335.5 35V177H336.5V35H335.5ZM326 25.5C331.247 25.5 335.5 29.7533 335.5 35H336.5C336.5 29.201 331.799 24.5 326 24.5V25.5ZM187.453 25.5H326V24.5H187.453V25.5ZM168.946 1.77332L178.094 19.7602L178.985 19.3068L169.837 1.31998L168.946 1.77332ZM187.453 24.5C183.878 24.5 180.606 22.4932 178.985 19.3068L178.094 19.7602C179.885 23.2819 183.502 25.5 187.453 25.5V24.5ZM158.015 19.3068C156.394 22.4932 153.122 24.5 149.547 24.5V25.5C153.498 25.5 157.115 23.2819 158.906 19.7602L158.015 19.3068Z" fill="#427AE8"/>
</svg>
