<svg width="65" height="47" viewBox="0 0 65 47" fill="none" xmlns="http://www.w3.org/2000/svg">
<path d="M64.9292 18.1671L58.7914 45.0459C58.6696 45.6083 58.3539 46.111 57.8985 46.4676C57.4431 46.8241 56.8765 47.0122 56.2963 46.9994H8.49065C7.91042 47.0122 7.34385 46.8241 6.88845 46.4676C6.43305 46.111 6.1173 45.6083 5.99557 45.0459L0.0572931 18.1671C-0.0426438 17.713 -0.0113829 17.2401 0.147491 16.8027C0.306364 16.3654 0.586415 15.9812 0.95552 15.6944C1.32564 15.4066 1.77034 15.2283 2.2383 15.1802C2.70627 15.132 3.17843 15.216 3.6003 15.4224L18.1715 22.4203L30.2477 1.25356C30.4653 0.873005 30.7809 0.556473 31.1622 0.336252C31.5436 0.11603 31.977 0 32.4184 0C32.8598 0 33.2932 0.11603 33.6746 0.336252C34.0559 0.556473 34.3715 0.873005 34.5891 1.25356L46.6653 22.445L61.3363 15.3977C61.7612 15.1745 62.2421 15.0777 62.7212 15.119C63.2003 15.1603 63.6572 15.338 64.0368 15.6306C64.4163 15.9232 64.7025 16.3183 64.8609 16.7683C65.0192 17.2183 65.043 17.7041 64.9292 18.1671Z" fill="#427AE8"/>
</svg>
