<svg width="50" height="50" viewBox="0 0 50 50" fill="none" xmlns="http://www.w3.org/2000/svg">
<circle cx="25" cy="25" r="24" stroke="#427AE8" stroke-width="2"/>
<path d="M33.9091 36H16.0909C14.7411 35.9986 13.447 35.4528 12.4926 34.4823C11.5381 33.5119 11.0013 32.196 11 30.8235V19.1765C11.0013 17.804 11.5381 16.4881 12.4926 15.5177C13.447 14.5472 14.7411 14.0014 16.0909 14H33.9091C35.2589 14.0014 36.553 14.5472 37.5074 15.5177C38.4619 16.4881 38.9987 17.804 39 19.1765V30.8235C38.9987 32.196 38.4619 33.5119 37.5074 34.4823C36.553 35.4528 35.2589 35.9986 33.9091 36ZM16.0909 16.5882C15.416 16.5889 14.769 16.8618 14.2917 17.3471C13.8145 17.8323 13.5461 18.4902 13.5455 19.1765V30.8235C13.5461 31.5098 13.8145 32.1677 14.2917 32.6529C14.769 33.1382 15.416 33.4111 16.0909 33.4118H33.9091C34.584 33.4111 35.231 33.1382 35.7083 32.6529C36.1855 32.1677 36.4539 31.5098 36.4545 30.8235V19.1765C36.4539 18.4902 36.1855 17.8323 35.7083 17.3471C35.231 16.8618 34.584 16.5889 33.9091 16.5882H16.0909Z" fill="#427AE8"/>
<path d="M25 27C23.5541 27.0001 22.1496 26.5322 21.0092 25.6704L12.5025 19.2567C12.2301 19.0514 12.053 18.7497 12.0101 18.4179C11.9889 18.2535 12.0012 18.0868 12.0464 17.9271C12.0917 17.7674 12.1689 17.6179 12.2737 17.4872C12.3785 17.3564 12.5089 17.247 12.6573 17.1651C12.8058 17.0832 12.9694 17.0304 13.1389 17.0098C13.4811 16.9682 13.8264 17.0601 14.0988 17.2654L22.6055 23.6803C23.2896 24.1977 24.1324 24.4786 25 24.4786C25.8676 24.4786 26.7103 24.1977 27.3945 23.6803L35.9012 17.2654C36.1736 17.0601 36.5189 16.9682 36.8611 17.0098C37.2034 17.0514 37.5146 17.2231 37.7263 17.4872C37.938 17.7512 38.0328 18.086 37.9899 18.4179C37.947 18.7497 37.7699 19.0514 37.4975 19.2567L28.9908 25.6716C27.8499 26.5323 26.4455 26.9993 25 26.9987V27Z" fill="#427AE8"/>
</svg>
